<svg width="382" height="81" viewBox="0 0 382 81" fill="none" xmlns="http://www.w3.org/2000/svg">
<rect x="0.558105" y="0.21875" width="381.16" height="80.55" rx="12.831" fill="#FFAFCC"/>
<path d="M13.064 20.1129C13.064 16.1268 16.2953 12.8954 20.2814 12.8954H59.2116C63.1977 12.8954 66.4291 16.1268 66.4291 20.1129V59.0902C66.4291 63.0763 63.1977 66.3076 59.2116 66.3076H20.2814C16.2953 66.3076 13.064 63.0763 13.064 59.0902V20.1129Z" fill="#FFD7E6"/>
<path d="M35.7468 29.6015V49.6015H31.7468V45.6015H29.7468V43.6015H31.7468V40.6015H29.7468V38.6015H31.7468V35.6015H29.7468V33.6015H31.7468V29.6015H35.7468ZM47.7517 29.6015C48.8536 29.6015 49.7468 30.4997 49.7468 31.5923V47.6107C49.7468 48.7102 48.8542 49.6015 47.7517 49.6015H37.7468V29.6015H47.7517Z" fill="#0D1B2A"/>
<path d="M101.292 23.907V27.9955H98.0511C98.0511 27.9955 98.0467 28 98.0377 28.009C98.0377 28.009 98.0332 28.009 98.0242 28.009C98.0242 28.009 98.0242 28.0134 98.0242 28.0224C98.0242 28.4169 98.0242 28.8159 98.0242 29.2194C98.0242 29.6139 98.0242 30.0129 98.0242 30.4163C98.0242 30.8108 98.0242 31.2098 98.0242 31.6133C98.0242 32.0078 98.0242 32.4068 98.0242 32.8102C98.0242 33.2047 98.0242 33.5992 98.0242 33.9937H92.4429C92.4429 33.3303 92.4429 32.6668 92.4429 32.0033C92.4429 31.3398 92.4429 30.6763 92.4429 30.0129C92.4429 29.3494 92.4429 28.6859 92.4429 28.0224C92.4429 28.0134 92.4385 28.009 92.4295 28.009C92.4295 28 92.425 27.9955 92.416 27.9955H89.1748V23.907H101.292ZM106.386 25.6554C106.386 26.1933 106.386 26.7358 106.386 27.2827C106.386 27.8207 106.386 28.3631 106.386 28.91C106.386 29.448 106.386 29.9904 106.386 30.5374C106.386 31.1112 106.386 31.685 106.386 32.2588C106.386 32.8327 106.386 33.411 106.386 33.9937H101.733C101.733 33.1061 101.733 32.2185 101.733 31.3309C101.733 30.4432 101.733 29.5556 101.733 28.668C101.733 28.1659 101.733 27.6638 101.733 27.1617C101.733 26.6596 101.733 26.1575 101.733 25.6554H106.386ZM106.373 30.7929L107.099 27.1751C107.18 26.7896 107.337 26.4713 107.57 26.2202C107.812 25.9602 108.094 25.763 108.417 25.6285C108.74 25.494 109.072 25.4133 109.412 25.3864C109.753 25.3505 110.067 25.364 110.354 25.4268C110.641 25.4806 110.869 25.5747 111.04 25.7092L110.017 30.7122C109.757 30.497 109.439 30.3491 109.063 30.2684C108.695 30.1877 108.323 30.1608 107.946 30.1877C107.57 30.2056 107.238 30.2684 106.951 30.376C106.664 30.4836 106.471 30.6225 106.373 30.7929ZM111.389 26.1396C112.043 25.8437 112.751 25.624 113.513 25.4806C114.285 25.3281 115.056 25.2519 115.827 25.2519C116.58 25.2519 117.306 25.3236 118.005 25.4671C118.705 25.6106 119.328 25.8302 119.875 26.1261C120.431 26.422 120.87 26.7896 121.193 27.2289C121.516 27.6683 121.677 28.1838 121.677 28.7755C121.677 29.6452 121.677 30.5149 121.677 31.3846C121.677 32.2543 121.677 33.124 121.677 33.9937C121.363 33.9937 121.049 33.9937 120.736 33.9937C120.422 33.9937 120.108 33.9937 119.794 33.9937C119.48 33.9937 119.166 33.9937 118.853 33.9937C118.539 33.9937 118.225 33.9937 117.911 33.9937C117.597 33.9937 117.284 33.9937 116.97 33.9937C116.97 33.5185 116.97 33.0478 116.97 32.5816C116.97 32.1064 116.97 31.6357 116.97 31.1695C116.97 31.0081 116.916 30.8781 116.808 30.7794C116.701 30.6808 116.571 30.6136 116.418 30.5777C116.266 30.5329 116.114 30.5105 115.961 30.5105C115.62 30.5105 115.36 30.5777 115.181 30.7122C115.011 30.8467 114.926 30.9991 114.926 31.1695C114.926 31.3398 115.015 31.4967 115.195 31.6402C115.374 31.7747 115.629 31.8419 115.961 31.8419C116.123 31.8419 116.306 31.8105 116.513 31.7478C116.719 31.685 116.876 31.5236 116.983 31.2636C116.795 31.7029 116.602 32.1423 116.405 32.5816C116.217 33.0209 116.028 33.4603 115.84 33.8996C115.517 34.061 115.177 34.1731 114.818 34.2358C114.468 34.3076 114.119 34.3434 113.769 34.3434C113.348 34.3434 112.94 34.2851 112.545 34.1686C112.16 34.061 111.81 33.8996 111.496 33.6844C111.191 33.4692 110.949 33.2003 110.77 32.8775C110.591 32.5547 110.501 32.1781 110.501 31.7478C110.501 31.4878 110.546 31.2322 110.635 30.9812C110.725 30.7301 110.86 30.4925 111.039 30.2684C111.218 30.0442 111.442 29.847 111.711 29.6766C111.989 29.5063 112.316 29.3763 112.693 29.2866C113.07 29.188 113.5 29.1387 113.984 29.1387C114.298 29.1387 114.603 29.1656 114.899 29.2194C115.195 29.2642 115.473 29.3359 115.733 29.4345C116.002 29.5332 116.239 29.6542 116.445 29.7977C116.661 29.9411 116.835 30.1025 116.97 30.2818C116.97 30.2639 116.97 30.2505 116.97 30.2415C116.97 30.2236 116.97 30.2101 116.97 30.2011C116.97 30.1832 116.97 30.1698 116.97 30.1608C116.97 29.8828 116.898 29.6452 116.755 29.448C116.62 29.2418 116.432 29.0759 116.19 28.9504C115.957 28.8159 115.683 28.7173 115.369 28.6545C115.065 28.5917 114.742 28.5604 114.401 28.5604C113.872 28.5604 113.339 28.6276 112.801 28.7621C112.263 28.8966 111.792 29.0938 111.389 29.3539V26.1396ZM132.861 25.6554C132.646 26.3547 132.431 27.0541 132.216 27.7534C132.001 28.4438 131.785 29.1342 131.57 29.8246C131.364 30.5149 131.153 31.2098 130.938 31.9092C130.723 32.5995 130.508 33.2944 130.293 33.9937H123.877C123.707 33.4379 123.537 32.882 123.366 32.3261C123.196 31.7702 123.026 31.2143 122.855 30.6584C122.685 30.1025 122.51 29.5466 122.331 28.9907C122.16 28.4348 121.99 27.879 121.82 27.3231C121.649 26.7672 121.479 26.2113 121.309 25.6554H126.244C126.298 25.9692 126.348 26.283 126.392 26.5968C126.446 26.9017 126.5 27.211 126.554 27.5248C126.608 27.8386 126.657 28.1524 126.702 28.4662C126.756 28.78 126.809 29.0938 126.863 29.4076C126.917 29.7215 126.966 30.0353 127.011 30.3491C127.065 30.6539 127.119 30.9632 127.172 31.2771C127.181 31.3219 127.186 31.3577 127.186 31.3846C127.195 31.4026 127.204 31.4115 127.213 31.4115C127.222 31.4115 127.226 31.4026 127.226 31.3846C127.235 31.3577 127.244 31.3219 127.253 31.2771C127.307 30.9632 127.356 30.6539 127.401 30.3491C127.455 30.0353 127.509 29.7215 127.562 29.4076C127.616 29.0938 127.666 28.78 127.71 28.4662C127.764 28.1524 127.818 27.8386 127.872 27.5248C127.926 27.211 127.975 26.9017 128.02 26.5968C128.074 26.283 128.127 25.9692 128.181 25.6554H132.861ZM138.397 30.9543C138.872 30.9543 139.24 30.8691 139.5 30.6987C139.76 30.5284 139.894 30.2953 139.903 29.9994L144.059 31.3577C143.898 31.9226 143.553 32.4381 143.024 32.9044C142.504 33.3616 141.845 33.7248 141.047 33.9937C140.249 34.2627 139.357 34.3972 138.37 34.3972C137.527 34.3972 136.738 34.3031 136.003 34.1148C135.277 33.9265 134.636 33.6441 134.08 33.2675C133.533 32.882 133.103 32.4023 132.789 31.8285C132.475 31.2546 132.318 30.5867 132.318 29.8246C132.318 29.0625 132.475 28.3945 132.789 27.8207C133.103 27.2469 133.533 26.7717 134.08 26.3951C134.636 26.0095 135.282 25.7226 136.017 25.5344C136.752 25.3461 137.536 25.2519 138.37 25.2519C139.222 25.2519 140.002 25.3461 140.71 25.5344C141.428 25.7226 142.042 26.014 142.553 26.4085C143.073 26.7941 143.472 27.2872 143.75 27.8879C144.037 28.4797 144.18 29.1835 144.18 29.9994H136.851C136.851 29.9994 136.846 29.9994 136.837 29.9994C136.837 29.9994 136.837 30.0039 136.837 30.0129C136.837 30.1473 136.873 30.2729 136.945 30.3894C137.016 30.506 137.115 30.6091 137.241 30.6987C137.375 30.7794 137.536 30.8422 137.725 30.887C137.922 30.9319 138.146 30.9543 138.397 30.9543ZM138.37 28.6545C137.931 28.6545 137.568 28.7352 137.281 28.8966C136.994 29.049 136.851 29.2687 136.851 29.5556C136.851 29.5646 136.851 29.5735 136.851 29.5825C136.86 29.5825 136.864 29.5825 136.864 29.5825H139.863C139.872 29.5825 139.877 29.5825 139.877 29.5825C139.877 29.5735 139.877 29.5646 139.877 29.5556C139.877 29.4121 139.836 29.2866 139.756 29.179C139.684 29.0625 139.581 28.9683 139.446 28.8966C139.312 28.8159 139.15 28.7576 138.962 28.7218C138.783 28.6769 138.585 28.6545 138.37 28.6545ZM144.562 33.9937C144.562 33.2765 144.562 32.5637 144.562 31.8554C144.562 31.1381 144.562 30.4253 144.562 29.717C144.562 28.9997 144.562 28.2869 144.562 27.5786C144.562 26.9689 144.562 26.3592 144.562 25.7495C144.562 25.1309 144.562 24.5167 144.562 23.907H149.215C149.215 24.2836 149.215 24.6602 149.215 25.0367C149.215 25.4043 149.215 25.7764 149.215 26.153C149.215 27.4531 149.215 28.7576 149.215 30.0666C149.215 31.3757 149.215 32.6847 149.215 33.9937H144.562ZM152.442 33.9937C152.442 33.3482 152.442 32.7026 152.442 32.0571C152.442 31.4115 152.442 30.766 152.442 30.1204C152.442 29.4749 152.442 28.8293 152.442 28.1838C152.442 27.5382 152.442 26.8927 152.442 26.2471C152.442 25.8526 152.442 25.4626 152.442 25.0771C152.442 24.6826 152.442 24.2926 152.442 23.907H158.024C158.024 24.7767 158.024 25.6464 158.024 26.5161C158.024 27.3769 158.024 28.2421 158.024 29.1118C158.024 29.6497 158.024 30.1922 158.024 30.7391C158.024 31.2771 158.024 31.8195 158.024 32.3664C158.024 32.9044 158.024 33.4468 158.024 33.9937H152.442ZM163.203 29.3135C163.31 28.9011 163.413 28.4931 163.512 28.0897C163.619 27.6862 163.723 27.2827 163.821 26.8792C163.929 26.4668 164.032 26.0589 164.13 25.6554H166.753V29.3135H163.203ZM158.59 30.4836C158.59 29.7125 158.59 28.9011 158.59 28.0493C158.59 27.1975 158.59 26.3906 158.59 25.6285L163.189 24.5257C163.189 24.965 163.189 25.4133 163.189 25.8706C163.189 26.3278 163.189 26.7851 163.189 27.2424C163.189 27.5741 163.189 27.9058 163.189 28.2376C163.189 28.5693 163.189 28.8966 163.189 29.2194C163.189 29.2283 163.189 29.2328 163.189 29.2328C163.189 29.2328 163.189 29.2373 163.189 29.2463C163.189 29.4166 163.225 29.5646 163.297 29.6901C163.377 29.8156 163.485 29.9232 163.619 30.0129C163.763 30.0935 163.929 30.1563 164.117 30.2011C164.305 30.246 164.516 30.2684 164.749 30.2684C165.009 30.2684 165.274 30.228 165.543 30.1473C165.812 30.0666 166.054 29.9546 166.269 29.8111C166.493 29.6677 166.654 29.5018 166.753 29.3135V33.402C166.368 33.7068 165.87 33.931 165.26 34.0744C164.651 34.2269 164.041 34.3031 163.431 34.3031C162.508 34.3031 161.678 34.1551 160.943 33.8593C160.217 33.5544 159.643 33.1196 159.222 32.5547C158.8 31.9809 158.59 31.2905 158.59 30.4836ZM167.297 33.9937C167.297 33.5813 167.297 33.1734 167.297 32.7699C167.297 32.3575 167.297 31.9495 167.297 31.546C167.297 31.1336 167.297 30.7256 167.297 30.3222C167.297 30.1518 167.297 29.9815 167.297 29.8111C167.297 29.6408 167.297 29.4704 167.297 29.3001C167.817 29.3001 168.332 29.3001 168.843 29.3001C169.363 29.3001 169.883 29.3001 170.403 29.3001C170.923 29.3001 171.439 29.3001 171.95 29.3001C171.95 29.8201 171.95 30.3401 171.95 30.8601C171.95 31.3802 171.95 31.9047 171.95 32.4337C171.95 32.9537 171.95 33.4737 171.95 33.9937H167.297ZM167.297 29.3001C167.297 28.6904 167.297 28.0807 167.297 27.471C167.297 26.8613 167.297 26.2561 167.297 25.6554H171.95C171.95 25.9513 171.95 26.2471 171.95 26.543C171.95 26.8389 171.95 27.1348 171.95 27.4307C171.95 27.7265 171.95 28.0224 171.95 28.3183C171.95 28.3183 171.945 28.3228 171.936 28.3317C171.165 28.4931 170.39 28.6545 169.61 28.8159C168.839 28.9773 168.068 29.1387 167.297 29.3001ZM178.563 33.9937C178.563 33.2944 178.563 32.5861 178.563 31.8688C178.563 31.1515 178.563 30.4432 178.563 29.7439C178.563 29.4839 178.496 29.3001 178.362 29.1925C178.236 29.0849 178.084 29.0266 177.904 29.0176C177.725 29.0087 177.559 29.0311 177.407 29.0849C177.263 29.1387 177.174 29.1925 177.138 29.2463L178.214 25.7899C178.536 25.6464 178.882 25.5388 179.249 25.4671C179.617 25.3954 179.98 25.3595 180.339 25.3595C180.841 25.3595 181.307 25.4402 181.737 25.6016C182.177 25.763 182.531 26.0185 182.8 26.3682C183.078 26.7179 183.217 27.1841 183.217 27.7669V33.9937H178.563ZM172.484 33.9937C172.484 33.4199 172.484 32.8461 172.484 32.2723C172.484 31.6895 172.484 31.1112 172.484 30.5374C172.484 29.9546 172.484 29.3763 172.484 28.8024C172.484 28.2735 172.484 27.7489 172.484 27.2289C172.484 26.6999 172.484 26.1754 172.484 25.6554C173.004 25.6554 173.52 25.6554 174.031 25.6554C174.551 25.6554 175.071 25.6554 175.591 25.6554C176.111 25.6554 176.627 25.6554 177.138 25.6554C177.138 25.9782 177.138 26.2875 177.138 26.5834C177.138 26.8703 177.138 27.1617 177.138 27.4576C177.138 27.7445 177.138 28.0359 177.138 28.3317C177.138 28.6186 177.138 28.9235 177.138 29.2463C177.138 29.3628 177.138 29.4794 177.138 29.5959C177.138 29.7035 177.138 29.8201 177.138 29.9456C177.138 30.6091 177.138 31.2905 177.138 31.9898C177.138 32.6892 177.138 33.3572 177.138 33.9937H172.484ZM189.684 30.9543C190.16 30.9543 190.527 30.8691 190.787 30.6987C191.047 30.5284 191.182 30.2953 191.191 29.9994L195.346 31.3577C195.185 31.9226 194.84 32.4381 194.311 32.9044C193.791 33.3616 193.132 33.7248 192.334 33.9937C191.536 34.2627 190.644 34.3972 189.658 34.3972C188.815 34.3972 188.026 34.3031 187.291 34.1148C186.564 33.9265 185.923 33.6441 185.367 33.2675C184.82 32.882 184.39 32.4023 184.076 31.8285C183.762 31.2546 183.606 30.5867 183.606 29.8246C183.606 29.0625 183.762 28.3945 184.076 27.8207C184.39 27.2469 184.82 26.7717 185.367 26.3951C185.923 26.0095 186.569 25.7226 187.304 25.5344C188.039 25.3461 188.824 25.2519 189.658 25.2519C190.509 25.2519 191.289 25.3461 191.998 25.5344C192.715 25.7226 193.329 26.014 193.84 26.4085C194.36 26.7941 194.759 27.2872 195.037 27.8879C195.324 28.4797 195.468 29.1835 195.468 29.9994H188.138C188.138 29.9994 188.133 29.9994 188.124 29.9994C188.124 29.9994 188.124 30.0039 188.124 30.0129C188.124 30.1473 188.16 30.2729 188.232 30.3894C188.304 30.506 188.402 30.6091 188.528 30.6987C188.662 30.7794 188.824 30.8422 189.012 30.887C189.209 30.9319 189.433 30.9543 189.684 30.9543ZM189.658 28.6545C189.218 28.6545 188.855 28.7352 188.568 28.8966C188.281 29.049 188.138 29.2687 188.138 29.5556C188.138 29.5646 188.138 29.5735 188.138 29.5825C188.147 29.5825 188.151 29.5825 188.151 29.5825H191.15C191.159 29.5825 191.164 29.5825 191.164 29.5825C191.164 29.5735 191.164 29.5646 191.164 29.5556C191.164 29.4121 191.123 29.2866 191.043 29.179C190.971 29.0625 190.868 28.9683 190.733 28.8966C190.599 28.8159 190.438 28.7576 190.249 28.7218C190.07 28.6769 189.873 28.6545 189.658 28.6545ZM200.503 25.6554C200.503 26.1933 200.503 26.7358 200.503 27.2827C200.503 27.8207 200.503 28.3631 200.503 28.91C200.503 29.448 200.503 29.9904 200.503 30.5374C200.503 31.1112 200.503 31.685 200.503 32.2588C200.503 32.8327 200.503 33.411 200.503 33.9937H195.849C195.849 33.1061 195.849 32.2185 195.849 31.3309C195.849 30.4432 195.849 29.5556 195.849 28.668C195.849 28.1659 195.849 27.6638 195.849 27.1617C195.849 26.6596 195.849 26.1575 195.849 25.6554H200.503ZM200.489 30.7929L201.215 27.1751C201.296 26.7896 201.453 26.4713 201.686 26.2202C201.928 25.9602 202.211 25.763 202.533 25.6285C202.856 25.494 203.188 25.4133 203.529 25.3864C203.869 25.3505 204.183 25.364 204.47 25.4268C204.757 25.4806 204.986 25.5747 205.156 25.7092L204.134 30.7122C203.874 30.497 203.556 30.3491 203.179 30.2684C202.811 30.1877 202.439 30.1608 202.063 30.1877C201.686 30.2056 201.354 30.2684 201.068 30.376C200.781 30.4836 200.588 30.6225 200.489 30.7929ZM205.505 26.1396C206.159 25.8437 206.868 25.624 207.63 25.4806C208.401 25.3281 209.172 25.2519 209.943 25.2519C210.696 25.2519 211.422 25.3236 212.122 25.4671C212.821 25.6106 213.444 25.8302 213.991 26.1261C214.547 26.422 214.986 26.7896 215.309 27.2289C215.632 27.6683 215.793 28.1838 215.793 28.7755C215.793 29.6452 215.793 30.5149 215.793 31.3846C215.793 32.2543 215.793 33.124 215.793 33.9937C215.48 33.9937 215.166 33.9937 214.852 33.9937C214.538 33.9937 214.224 33.9937 213.911 33.9937C213.597 33.9937 213.283 33.9937 212.969 33.9937C212.655 33.9937 212.341 33.9937 212.028 33.9937C211.714 33.9937 211.4 33.9937 211.086 33.9937C211.086 33.5185 211.086 33.0478 211.086 32.5816C211.086 32.1064 211.086 31.6357 211.086 31.1695C211.086 31.0081 211.032 30.8781 210.925 30.7794C210.817 30.6808 210.687 30.6136 210.535 30.5777C210.382 30.5329 210.23 30.5105 210.078 30.5105C209.737 30.5105 209.477 30.5777 209.298 30.7122C209.127 30.8467 209.042 30.9991 209.042 31.1695C209.042 31.3398 209.132 31.4967 209.311 31.6402C209.49 31.7747 209.746 31.8419 210.078 31.8419C210.239 31.8419 210.423 31.8105 210.629 31.7478C210.835 31.685 210.992 31.5236 211.1 31.2636C210.911 31.7029 210.719 32.1423 210.521 32.5816C210.333 33.0209 210.145 33.4603 209.957 33.8996C209.634 34.061 209.293 34.1731 208.934 34.2358C208.585 34.3076 208.235 34.3434 207.885 34.3434C207.464 34.3434 207.056 34.2851 206.662 34.1686C206.276 34.061 205.926 33.8996 205.613 33.6844C205.308 33.4692 205.066 33.2003 204.886 32.8775C204.707 32.5547 204.617 32.1781 204.617 31.7478C204.617 31.4878 204.662 31.2322 204.752 30.9812C204.841 30.7301 204.976 30.4925 205.155 30.2684C205.335 30.0442 205.559 29.847 205.828 29.6766C206.106 29.5063 206.433 29.3763 206.809 29.2866C207.186 29.188 207.616 29.1387 208.101 29.1387C208.414 29.1387 208.719 29.1656 209.015 29.2194C209.311 29.2642 209.589 29.3359 209.849 29.4345C210.118 29.5332 210.356 29.6542 210.562 29.7977C210.777 29.9411 210.952 30.1025 211.086 30.2818C211.086 30.2639 211.086 30.2505 211.086 30.2415C211.086 30.2236 211.086 30.2101 211.086 30.2011C211.086 30.1832 211.086 30.1698 211.086 30.1608C211.086 29.8828 211.015 29.6452 210.871 29.448C210.737 29.2418 210.548 29.0759 210.306 28.9504C210.073 28.8159 209.8 28.7173 209.486 28.6545C209.181 28.5917 208.858 28.5604 208.518 28.5604C207.989 28.5604 207.455 28.6276 206.917 28.7621C206.379 28.8966 205.908 29.0938 205.505 29.3539V26.1396ZM220.965 25.6554C220.965 26.1933 220.965 26.7358 220.965 27.2827C220.965 27.8207 220.965 28.3631 220.965 28.91C220.965 29.448 220.965 29.9904 220.965 30.5374C220.965 31.1112 220.965 31.685 220.965 32.2588C220.965 32.8327 220.965 33.411 220.965 33.9937H216.312C216.312 33.1061 216.312 32.2185 216.312 31.3309C216.312 30.4432 216.312 29.5556 216.312 28.668C216.312 28.1659 216.312 27.6638 216.312 27.1617C216.312 26.6596 216.312 26.1575 216.312 25.6554H220.965ZM220.952 30.7929L221.678 27.1751C221.759 26.7896 221.915 26.4713 222.149 26.2202C222.391 25.9602 222.673 25.763 222.996 25.6285C223.319 25.494 223.65 25.4133 223.991 25.3864C224.332 25.3505 224.646 25.364 224.932 25.4268C225.219 25.4806 225.448 25.5747 225.618 25.7092L224.596 30.7122C224.336 30.497 224.018 30.3491 223.641 30.2684C223.274 30.1877 222.902 30.1608 222.525 30.1877C222.149 30.2056 221.817 30.2684 221.53 30.376C221.243 30.4836 221.05 30.6225 220.952 30.7929ZM229.501 35.6076C229.663 35.4283 229.819 35.249 229.972 35.0697C230.124 34.8903 230.277 34.711 230.429 34.5317C230.591 34.3524 230.747 34.1731 230.9 33.9937H228.385C228.089 33.0613 227.793 32.1333 227.497 31.2098C227.201 30.2863 226.906 29.3628 226.61 28.4393C226.314 27.5069 226.018 26.5789 225.722 25.6554H230.658C230.819 26.6147 230.976 27.5741 231.128 28.5335C231.29 29.4928 231.451 30.4522 231.613 31.4115C231.613 31.4115 231.613 31.425 231.613 31.4519C231.622 31.4788 231.626 31.4922 231.626 31.4922C231.626 31.4922 231.626 31.4878 231.626 31.4788C231.635 31.4609 231.64 31.4474 231.64 31.4384C231.64 31.4295 231.64 31.425 231.64 31.425C231.756 30.7794 231.868 30.1384 231.976 29.5018C232.083 28.8562 232.191 28.2152 232.299 27.5786C232.415 26.933 232.527 26.292 232.635 25.6554H237.315C236.956 26.7672 236.593 27.8745 236.226 28.9773C235.867 30.0801 235.508 31.1829 235.15 32.2857C234.791 33.3885 234.428 34.4958 234.06 35.6076H229.501Z" fill="#0D1B2A"/>
<path d="M97.1554 53.8265C97.1554 54.7164 96.9926 55.4815 96.6671 56.1217C96.3415 56.7593 95.8952 57.2504 95.3282 57.5949C94.7639 57.9368 94.1222 58.1077 93.4033 58.1077C92.6816 58.1077 92.0373 57.9368 91.4702 57.5949C90.9059 57.2504 90.461 56.758 90.1354 56.1177C89.8098 55.4774 89.6471 54.7137 89.6471 53.8265C89.6471 52.9366 89.8098 52.1729 90.1354 51.5353C90.461 50.8951 90.9059 50.404 91.4702 50.0622C92.0373 49.7176 92.6816 49.5453 93.4033 49.5453C94.1222 49.5453 94.7639 49.7176 95.3282 50.0622C95.8952 50.404 96.3415 50.8951 96.6671 51.5353C96.9926 52.1729 97.1554 52.9366 97.1554 53.8265ZM95.9101 53.8265C95.9101 53.1482 95.8003 52.5771 95.5805 52.1132C95.3635 51.6466 95.065 51.2939 94.6852 51.0551C94.3081 50.8137 93.8808 50.6929 93.4033 50.6929C92.9231 50.6929 92.4944 50.8137 92.1173 51.0551C91.7402 51.2939 91.4417 51.6466 91.222 52.1132C91.0049 52.5771 90.8964 53.1482 90.8964 53.8265C90.8964 54.5048 91.0049 55.0772 91.222 55.5439C91.4417 56.0078 91.7402 56.3605 92.1173 56.602C92.4944 56.8407 92.9231 56.9601 93.4033 56.9601C93.8808 56.9601 94.3081 56.8407 94.6852 56.602C95.065 56.3605 95.3635 56.0078 95.5805 55.5439C95.8003 55.0772 95.9101 54.5048 95.9101 53.8265ZM98.6255 57.9937V51.7429H99.8017V52.7359H99.8668C99.9807 52.3994 100.181 52.1349 100.469 51.9423C100.759 51.747 101.088 51.6493 101.454 51.6493C101.53 51.6493 101.619 51.652 101.722 51.6574C101.828 51.6629 101.911 51.6696 101.971 51.6778V52.8417C101.922 52.8281 101.835 52.8132 101.71 52.7969C101.585 52.7779 101.461 52.7684 101.336 52.7684C101.048 52.7684 100.792 52.8295 100.567 52.9515C100.344 53.0709 100.168 53.2378 100.038 53.4521C99.9075 53.6637 99.8424 53.9052 99.8424 54.1765V57.9937H98.6255ZM105.421 60.468C104.924 60.468 104.497 60.4029 104.139 60.2727C103.783 60.1425 103.493 59.9702 103.268 59.7559C103.043 59.5415 102.875 59.3069 102.763 59.0518L103.809 58.6205C103.882 58.7398 103.98 58.866 104.102 58.9989C104.227 59.1346 104.395 59.2499 104.607 59.3448C104.821 59.4398 105.097 59.4873 105.433 59.4873C105.894 59.4873 106.275 59.3747 106.576 59.1495C106.878 58.927 107.028 58.5716 107.028 58.0833V56.8543H106.951C106.878 56.9872 106.772 57.1351 106.633 57.2978C106.498 57.4606 106.311 57.6017 106.072 57.7211C105.833 57.8405 105.522 57.9001 105.14 57.9001C104.646 57.9001 104.201 57.7848 103.805 57.5542C103.412 57.3209 103.1 56.9777 102.869 56.5246C102.641 56.0688 102.527 55.5086 102.527 54.8439C102.527 54.1792 102.64 53.6095 102.865 53.1347C103.093 52.6599 103.405 52.2963 103.801 52.044C104.197 51.789 104.646 51.6615 105.148 51.6615C105.536 51.6615 105.849 51.7266 106.088 51.8568C106.327 51.9843 106.513 52.1336 106.646 52.3045C106.781 52.4754 106.886 52.626 106.959 52.7562H107.049V51.7429H108.241V58.1321C108.241 58.6693 108.116 59.1102 107.867 59.4547C107.617 59.7993 107.279 60.0543 106.853 60.2198C106.43 60.3853 105.952 60.468 105.421 60.468ZM105.409 56.8909C105.758 56.8909 106.054 56.8095 106.296 56.6467C106.54 56.4812 106.724 56.2452 106.849 55.9386C106.977 55.6293 107.04 55.259 107.04 54.8276C107.04 54.4071 106.978 54.0368 106.853 53.7166C106.728 53.3965 106.545 53.1469 106.304 52.9678C106.062 52.7861 105.764 52.6952 105.409 52.6952C105.042 52.6952 104.737 52.7901 104.493 52.98C104.249 53.1672 104.064 53.4223 103.939 53.7451C103.817 54.068 103.756 54.4288 103.756 54.8276C103.756 55.2373 103.819 55.5968 103.943 55.9061C104.068 56.2153 104.253 56.4568 104.497 56.6304C104.744 56.8041 105.048 56.8909 105.409 56.8909ZM111.692 58.1321C111.296 58.1321 110.938 58.0589 110.618 57.9124C110.297 57.7631 110.044 57.5474 109.857 57.2653C109.672 56.9831 109.58 56.6372 109.58 56.2276C109.58 55.8749 109.648 55.5846 109.783 55.3567C109.919 55.1288 110.102 54.9483 110.333 54.8154C110.563 54.6825 110.821 54.5821 111.106 54.5143C111.391 54.4464 111.681 54.3949 111.977 54.3596C112.351 54.3162 112.655 54.2809 112.888 54.2538C113.122 54.224 113.291 54.1765 113.397 54.1114C113.503 54.0463 113.556 53.9405 113.556 53.7939V53.7655C113.556 53.4101 113.455 53.1347 113.255 52.9393C113.057 52.744 112.761 52.6463 112.367 52.6463C111.958 52.6463 111.635 52.7372 111.399 52.919C111.166 53.0981 111.004 53.2975 110.915 53.5172L109.771 53.2568C109.907 52.8769 110.105 52.5704 110.365 52.337C110.628 52.101 110.931 51.9301 111.273 51.8243C111.615 51.7158 111.974 51.6615 112.351 51.6615C112.601 51.6615 112.865 51.6913 113.145 51.751C113.427 51.808 113.69 51.9138 113.934 52.0685C114.181 52.2231 114.383 52.4442 114.541 52.7318C114.698 53.0167 114.777 53.387 114.777 53.8428V57.9937H113.588V57.1391H113.54C113.461 57.2965 113.343 57.4511 113.185 57.6031C113.028 57.755 112.826 57.8812 112.579 57.9815C112.332 58.0819 112.036 58.1321 111.692 58.1321ZM111.956 57.1554C112.293 57.1554 112.58 57.0889 112.819 56.956C113.061 56.8231 113.244 56.6494 113.369 56.4351C113.496 56.2181 113.56 55.9861 113.56 55.7392V54.9334C113.516 54.9768 113.432 55.0175 113.308 55.0555C113.185 55.0908 113.046 55.122 112.888 55.1491C112.731 55.1735 112.578 55.1966 112.429 55.2183C112.279 55.2373 112.154 55.2536 112.054 55.2671C111.818 55.297 111.602 55.3472 111.407 55.4177C111.214 55.4882 111.06 55.59 110.943 55.7229C110.829 55.8532 110.772 56.0268 110.772 56.2438C110.772 56.545 110.883 56.7729 111.106 56.9275C111.328 57.0794 111.612 57.1554 111.956 57.1554ZM117.614 54.2823V57.9937H116.397V51.7429H117.565V52.7603H117.643C117.786 52.4293 118.012 52.1634 118.318 51.9626C118.627 51.7619 119.017 51.6615 119.486 51.6615C119.912 51.6615 120.285 51.751 120.605 51.9301C120.925 52.1064 121.174 52.3696 121.35 52.7196C121.526 53.0696 121.615 53.5023 121.615 54.0178V57.9937H120.398V54.1643C120.398 53.7112 120.28 53.3571 120.044 53.1021C119.808 52.8444 119.483 52.7155 119.071 52.7155C118.789 52.7155 118.538 52.7766 118.318 52.8986C118.101 53.0207 117.929 53.1998 117.801 53.4358C117.677 53.6691 117.614 53.9513 117.614 54.2823ZM123.246 57.9937V51.7429H124.463V57.9937H123.246ZM123.861 50.7784C123.649 50.7784 123.468 50.7079 123.316 50.5668C123.166 50.423 123.092 50.2521 123.092 50.054C123.092 49.8532 123.166 49.6823 123.316 49.5412C123.468 49.3975 123.649 49.3256 123.861 49.3256C124.073 49.3256 124.253 49.3975 124.402 49.5412C124.554 49.6823 124.63 49.8532 124.63 50.054C124.63 50.2521 124.554 50.423 124.402 50.5668C124.253 50.7079 124.073 50.7784 123.861 50.7784ZM125.97 57.9937V57.1595L129.356 52.8579V52.801H126.08V51.7429H130.874V52.6301L127.618 56.8787V56.9357H130.988V57.9937H125.97ZM134.938 58.1199C134.322 58.1199 133.792 57.9883 133.347 57.7252C132.905 57.4593 132.563 57.0862 132.322 56.606C132.083 56.1231 131.963 55.5574 131.963 54.909C131.963 54.2687 132.083 53.7044 132.322 53.2161C132.563 52.7277 132.899 52.3465 133.331 52.0725C133.765 51.7985 134.272 51.6615 134.853 51.6615C135.206 51.6615 135.547 51.7198 135.878 51.8365C136.209 51.9531 136.506 52.1363 136.77 52.3859C137.033 52.6355 137.24 52.9597 137.392 53.3585C137.544 53.7546 137.62 54.2362 137.62 54.8032V55.2346H132.651V54.323H136.428C136.428 54.0029 136.363 53.7193 136.232 53.4725C136.102 53.2229 135.919 53.0262 135.683 52.8824C135.45 52.7386 135.176 52.6667 134.861 52.6667C134.519 52.6667 134.221 52.7508 133.966 52.919C133.713 53.0845 133.518 53.3015 133.38 53.5701C133.244 53.836 133.176 54.1249 133.176 54.4369V55.1491C133.176 55.5669 133.249 55.9223 133.396 56.2153C133.545 56.5084 133.753 56.7322 134.019 56.8868C134.284 57.0388 134.595 57.1147 134.951 57.1147C135.181 57.1147 135.391 57.0822 135.581 57.017C135.771 56.9492 135.935 56.8488 136.074 56.7159C136.212 56.583 136.318 56.4188 136.391 56.2235L137.543 56.431C137.451 56.7702 137.285 57.0672 137.046 57.3223C136.81 57.5746 136.513 57.7713 136.155 57.9124C135.8 58.0507 135.394 58.1199 134.938 58.1199ZM142.772 60.3378C142.59 60.3378 142.425 60.3229 142.276 60.2931C142.127 60.2659 142.015 60.2361 141.942 60.2035L142.235 59.2065C142.458 59.2662 142.656 59.2919 142.829 59.2838C143.003 59.2757 143.156 59.2105 143.289 59.0885C143.425 58.9664 143.544 58.767 143.647 58.4902L143.798 58.0751L141.511 51.7429H142.813L144.396 56.5938H144.461L146.044 51.7429H147.351L144.774 58.828C144.655 59.1536 144.503 59.4289 144.319 59.6541C144.134 59.882 143.914 60.0529 143.659 60.1669C143.404 60.2808 143.109 60.3378 142.772 60.3378ZM150.914 58.1199C150.328 58.1199 149.817 57.9856 149.38 57.717C148.943 57.4484 148.604 57.0727 148.363 56.5897C148.121 56.1068 148.001 55.5425 148.001 54.8968C148.001 54.2484 148.121 53.6814 148.363 53.1957C148.604 52.7101 148.943 52.333 149.38 52.0644C149.817 51.7958 150.328 51.6615 150.914 51.6615C151.5 51.6615 152.012 51.7958 152.449 52.0644C152.885 52.333 153.225 52.7101 153.466 53.1957C153.708 53.6814 153.828 54.2484 153.828 54.8968C153.828 55.5425 153.708 56.1068 153.466 56.5897C153.225 57.0727 152.885 57.4484 152.449 57.717C152.012 57.9856 151.5 58.1199 150.914 58.1199ZM150.919 57.0984C151.298 57.0984 151.613 56.9981 151.863 56.7973C152.112 56.5965 152.297 56.3293 152.416 55.9956C152.538 55.6619 152.599 55.2943 152.599 54.8927C152.599 54.4939 152.538 54.1277 152.416 53.7939C152.297 53.4575 152.112 53.1876 151.863 52.9841C151.613 52.7806 151.298 52.6789 150.919 52.6789C150.536 52.6789 150.219 52.7806 149.966 52.9841C149.717 53.1876 149.531 53.4575 149.409 53.7939C149.289 54.1277 149.23 54.4939 149.23 54.8927C149.23 55.2943 149.289 55.6619 149.409 55.9956C149.531 56.3293 149.717 56.5965 149.966 56.7973C150.219 56.9981 150.536 57.0984 150.919 57.0984ZM159.146 55.4014V51.7429H160.367V57.9937H159.171V56.9112H159.105C158.962 57.2449 158.731 57.523 158.414 57.7455C158.099 57.9653 157.707 58.0751 157.238 58.0751C156.836 58.0751 156.481 57.987 156.171 57.8106C155.865 57.6316 155.623 57.367 155.447 57.017C155.273 56.6671 155.186 56.2343 155.186 55.7189V51.7429H156.403V55.5723C156.403 55.9983 156.521 56.3374 156.757 56.5897C156.993 56.8421 157.3 56.9682 157.677 56.9682C157.905 56.9682 158.131 56.9112 158.357 56.7973C158.585 56.6833 158.773 56.5111 158.922 56.2805C159.074 56.0498 159.149 55.7568 159.146 55.4014ZM162.002 57.9937V51.7429H163.178V52.7359H163.243C163.357 52.3994 163.558 52.1349 163.845 51.9423C164.136 51.747 164.464 51.6493 164.83 51.6493C164.906 51.6493 164.996 51.652 165.099 51.6574C165.205 51.6629 165.287 51.6696 165.347 51.6778V52.8417C165.298 52.8281 165.212 52.8132 165.087 52.7969C164.962 52.7779 164.837 52.7684 164.712 52.7684C164.425 52.7684 164.168 52.8295 163.943 52.9515C163.721 53.0709 163.544 53.2378 163.414 53.4521C163.284 53.6637 163.219 53.9052 163.219 54.1765V57.9937H162.002ZM169.433 60.3378V51.7429H170.621V52.7562H170.723C170.794 52.626 170.895 52.4754 171.028 52.3045C171.161 52.1336 171.346 51.9843 171.582 51.8568C171.818 51.7266 172.13 51.6615 172.518 51.6615C173.022 51.6615 173.473 51.789 173.869 52.044C174.265 52.2991 174.576 52.6667 174.801 53.1469C175.029 53.6271 175.143 54.205 175.143 54.8805C175.143 55.5561 175.03 56.1353 174.805 56.6182C174.58 57.0984 174.27 57.4688 173.877 57.7292C173.484 57.987 173.035 58.1158 172.53 58.1158C172.15 58.1158 171.839 58.0521 171.598 57.9246C171.359 57.797 171.172 57.6478 171.036 57.4769C170.901 57.306 170.796 57.1541 170.723 57.0211H170.65V60.3378H169.433ZM170.625 54.8683C170.625 55.3078 170.689 55.6931 170.817 56.0241C170.944 56.3551 171.129 56.6142 171.37 56.8014C171.612 56.9858 171.907 57.0781 172.257 57.0781C172.621 57.0781 172.925 56.9818 173.169 56.7892C173.413 56.5938 173.598 56.3293 173.722 55.9956C173.85 55.6619 173.914 55.2861 173.914 54.8683C173.914 54.4559 173.851 54.0856 173.726 53.7573C173.604 53.429 173.42 53.1699 173.173 52.98C172.929 52.7901 172.624 52.6952 172.257 52.6952C171.905 52.6952 171.606 52.7861 171.362 52.9678C171.121 53.1496 170.937 53.4033 170.813 53.7288C170.688 54.0544 170.625 54.4342 170.625 54.8683ZM177.723 49.6593V57.9937H176.506V49.6593H177.723ZM181.179 58.1321C180.783 58.1321 180.425 58.0589 180.104 57.9124C179.784 57.7631 179.531 57.5474 179.343 57.2653C179.159 56.9831 179.067 56.6372 179.067 56.2276C179.067 55.8749 179.135 55.5846 179.27 55.3567C179.406 55.1288 179.589 54.9483 179.82 54.8154C180.05 54.6825 180.308 54.5821 180.593 54.5143C180.878 54.4464 181.168 54.3949 181.464 54.3596C181.838 54.3162 182.142 54.2809 182.375 54.2538C182.609 54.224 182.778 54.1765 182.884 54.1114C182.99 54.0463 183.043 53.9405 183.043 53.7939V53.7655C183.043 53.4101 182.942 53.1347 182.742 52.9393C182.543 52.744 182.248 52.6463 181.854 52.6463C181.445 52.6463 181.122 52.7372 180.886 52.919C180.652 53.0981 180.491 53.2975 180.402 53.5172L179.258 53.2568C179.394 52.8769 179.592 52.5704 179.852 52.337C180.115 52.101 180.418 51.9301 180.76 51.8243C181.101 51.7158 181.461 51.6615 181.838 51.6615C182.088 51.6615 182.352 51.6913 182.632 51.751C182.914 51.808 183.177 51.9138 183.421 52.0685C183.668 52.2231 183.87 52.4442 184.027 52.7318C184.185 53.0167 184.264 53.387 184.264 53.8428V57.9937H183.075V57.1391H183.026C182.948 57.2965 182.83 57.4511 182.672 57.6031C182.515 57.755 182.313 57.8812 182.066 57.9815C181.819 58.0819 181.523 58.1321 181.179 58.1321ZM181.443 57.1554C181.78 57.1554 182.067 57.0889 182.306 56.956C182.548 56.8231 182.731 56.6494 182.855 56.4351C182.983 56.2181 183.047 55.9861 183.047 55.7392V54.9334C183.003 54.9768 182.919 55.0175 182.794 55.0555C182.672 55.0908 182.533 55.122 182.375 55.1491C182.218 55.1735 182.065 55.1966 181.915 55.2183C181.766 55.2373 181.641 55.2536 181.541 55.2671C181.305 55.297 181.089 55.3472 180.894 55.4177C180.701 55.4882 180.547 55.59 180.43 55.7229C180.316 55.8532 180.259 56.0268 180.259 56.2438C180.259 56.545 180.37 56.7729 180.593 56.9275C180.815 57.0794 181.099 57.1554 181.443 57.1554ZM187.101 54.2823V57.9937H185.884V51.7429H187.052V52.7603H187.13C187.273 52.4293 187.498 52.1634 187.805 51.9626C188.114 51.7619 188.504 51.6615 188.973 51.6615C189.399 51.6615 189.772 51.751 190.092 51.9301C190.412 52.1064 190.661 52.3696 190.837 52.7196C191.013 53.0696 191.101 53.5023 191.101 54.0178V57.9937H189.885V54.1643C189.885 53.7112 189.767 53.3571 189.531 53.1021C189.295 52.8444 188.97 52.7155 188.558 52.7155C188.276 52.7155 188.025 52.7766 187.805 52.8986C187.588 53.0207 187.416 53.1998 187.288 53.4358C187.163 53.6691 187.101 53.9513 187.101 54.2823ZM197.417 53.269L196.315 53.4643C196.268 53.3232 196.195 53.1889 196.095 53.0614C195.997 52.9339 195.864 52.8295 195.696 52.7481C195.528 52.6667 195.318 52.626 195.065 52.626C194.721 52.626 194.433 52.7033 194.202 52.8579C193.972 53.0099 193.857 53.2066 193.857 53.448C193.857 53.6569 193.934 53.8251 194.088 53.9527C194.243 54.0802 194.493 54.1846 194.837 54.266L195.83 54.4939C196.405 54.6269 196.834 54.8317 197.116 55.1084C197.398 55.3851 197.539 55.7446 197.539 56.1869C197.539 56.5613 197.431 56.895 197.214 57.188C197 57.4783 196.7 57.7062 196.315 57.8717C195.932 58.0372 195.488 58.1199 194.984 58.1199C194.284 58.1199 193.713 57.9707 193.271 57.6722C192.828 57.3711 192.557 56.9438 192.457 56.3903L193.633 56.2113C193.706 56.5178 193.857 56.7498 194.084 56.9072C194.312 57.0618 194.609 57.1391 194.976 57.1391C195.374 57.1391 195.693 57.0564 195.932 56.8909C196.171 56.7227 196.29 56.5178 196.29 56.2764C196.29 56.081 196.217 55.9169 196.07 55.784C195.927 55.651 195.705 55.5506 195.407 55.4828L194.349 55.2509C193.766 55.1179 193.334 54.9063 193.055 54.616C192.778 54.3257 192.64 53.9581 192.64 53.5131C192.64 53.1442 192.743 52.8213 192.949 52.5446C193.155 52.2679 193.44 52.0522 193.804 51.8975C194.167 51.7402 194.584 51.6615 195.053 51.6615C195.729 51.6615 196.26 51.808 196.648 52.101C197.036 52.3913 197.293 52.7806 197.417 53.269ZM203.265 57.9937L201.426 51.7429H202.683L203.908 56.3334H203.969L205.198 51.7429H206.456L207.677 56.313H207.738L208.955 51.7429H210.212L208.377 57.9937H207.136L205.866 53.4806H205.772L204.503 57.9937H203.265ZM211.367 57.9937V51.7429H212.584V57.9937H211.367ZM211.981 50.7784C211.77 50.7784 211.588 50.7079 211.436 50.5668C211.287 50.423 211.212 50.2521 211.212 50.054C211.212 49.8532 211.287 49.6823 211.436 49.5412C211.588 49.3975 211.77 49.3256 211.981 49.3256C212.193 49.3256 212.373 49.3975 212.523 49.5412C212.675 49.6823 212.751 49.8532 212.751 50.054C212.751 50.2521 212.675 50.423 212.523 50.5668C212.373 50.7079 212.193 50.7784 211.981 50.7784ZM217.139 51.7429V52.7196H213.724V51.7429H217.139ZM214.64 50.2453H215.857V56.1584C215.857 56.3944 215.892 56.5721 215.962 56.6915C216.033 56.8081 216.124 56.8882 216.235 56.9316C216.349 56.9723 216.472 56.9926 216.605 56.9926C216.703 56.9926 216.789 56.9858 216.862 56.9723C216.935 56.9587 216.992 56.9479 217.033 56.9397L217.252 57.9449C217.182 57.972 217.082 57.9992 216.951 58.0263C216.821 58.0561 216.658 58.0724 216.463 58.0751C216.143 58.0806 215.844 58.0236 215.568 57.9042C215.291 57.7848 215.067 57.6004 214.896 57.3508C214.725 57.1012 214.64 56.7878 214.64 56.4107V50.2453ZM219.836 54.2823V57.9937H218.619V49.6593H219.819V52.7603H219.897C220.043 52.4239 220.267 52.1566 220.568 51.9586C220.869 51.7605 221.263 51.6615 221.748 51.6615C222.177 51.6615 222.551 51.7497 222.872 51.926C223.194 52.1024 223.444 52.3655 223.62 52.7155C223.799 53.0628 223.889 53.4969 223.889 54.0178V57.9937H222.672V54.1643C222.672 53.7058 222.554 53.3504 222.318 53.0981C222.082 52.843 221.754 52.7155 221.333 52.7155C221.046 52.7155 220.788 52.7766 220.56 52.8986C220.335 53.0207 220.157 53.1998 220.027 53.4358C219.899 53.6691 219.836 53.9513 219.836 54.2823ZM231.24 58.1199C230.624 58.1199 230.093 57.9883 229.648 57.7252C229.206 57.4593 228.864 57.0862 228.623 56.606C228.384 56.1231 228.265 55.5574 228.265 54.909C228.265 54.2687 228.384 53.7044 228.623 53.2161C228.864 52.7277 229.201 52.3465 229.632 52.0725C230.066 51.7985 230.574 51.6615 231.154 51.6615C231.507 51.6615 231.849 51.7198 232.18 51.8365C232.511 51.9531 232.808 52.1363 233.071 52.3859C233.334 52.6355 233.542 52.9597 233.694 53.3585C233.845 53.7546 233.921 54.2362 233.921 54.8032V55.2346H228.952V54.323H232.729C232.729 54.0029 232.664 53.7193 232.534 53.4725C232.403 53.2229 232.22 53.0262 231.984 52.8824C231.751 52.7386 231.477 52.6667 231.162 52.6667C230.82 52.6667 230.522 52.7508 230.267 52.919C230.015 53.0845 229.819 53.3015 229.681 53.5701C229.545 53.836 229.477 54.1249 229.477 54.4369V55.1491C229.477 55.5669 229.551 55.9223 229.697 56.2153C229.846 56.5084 230.054 56.7322 230.32 56.8868C230.586 57.0388 230.896 57.1147 231.252 57.1147C231.482 57.1147 231.693 57.0822 231.883 57.017C232.072 56.9492 232.237 56.8488 232.375 56.7159C232.513 56.583 232.619 56.4188 232.692 56.2235L233.844 56.431C233.752 56.7702 233.586 57.0672 233.348 57.3223C233.112 57.5746 232.815 57.7713 232.456 57.9124C232.101 58.0507 231.695 58.1199 231.24 58.1199ZM237.091 58.1321C236.695 58.1321 236.336 58.0589 236.016 57.9124C235.696 57.7631 235.442 57.5474 235.255 57.2653C235.071 56.9831 234.979 56.6372 234.979 56.2276C234.979 55.8749 235.046 55.5846 235.182 55.3567C235.318 55.1288 235.501 54.9483 235.731 54.8154C235.962 54.6825 236.22 54.5821 236.505 54.5143C236.789 54.4464 237.08 54.3949 237.375 54.3596C237.75 54.3162 238.054 54.2809 238.287 54.2538C238.52 54.224 238.69 54.1765 238.796 54.1114C238.902 54.0463 238.954 53.9405 238.954 53.7939V53.7655C238.954 53.4101 238.854 53.1347 238.653 52.9393C238.455 52.744 238.16 52.6463 237.766 52.6463C237.356 52.6463 237.034 52.7372 236.798 52.919C236.564 53.0981 236.403 53.2975 236.313 53.5172L235.17 53.2568C235.305 52.8769 235.503 52.5704 235.764 52.337C236.027 52.101 236.33 51.9301 236.671 51.8243C237.013 51.7158 237.373 51.6615 237.75 51.6615C237.999 51.6615 238.264 51.6913 238.543 51.751C238.826 51.808 239.089 51.9138 239.333 52.0685C239.58 52.2231 239.782 52.4442 239.939 52.7318C240.097 53.0167 240.175 53.387 240.175 53.8428V57.9937H238.987V57.1391H238.938C238.86 57.2965 238.742 57.4511 238.584 57.6031C238.427 57.755 238.225 57.8812 237.978 57.9815C237.731 58.0819 237.435 58.1321 237.091 58.1321ZM237.355 57.1554C237.692 57.1554 237.979 57.0889 238.218 56.956C238.459 56.8231 238.642 56.6494 238.767 56.4351C238.895 56.2181 238.959 55.9861 238.959 55.7392V54.9334C238.915 54.9768 238.831 55.0175 238.706 55.0555C238.584 55.0908 238.444 55.122 238.287 55.1491C238.13 55.1735 237.976 55.1966 237.827 55.2183C237.678 55.2373 237.553 55.2536 237.453 55.2671C237.217 55.297 237.001 55.3472 236.806 55.4177C236.613 55.4882 236.458 55.59 236.342 55.7229C236.228 55.8532 236.171 56.0268 236.171 56.2438C236.171 56.545 236.282 56.7729 236.505 56.9275C236.727 57.0794 237.011 57.1554 237.355 57.1554ZM246.48 53.269L245.377 53.4643C245.331 53.3232 245.258 53.1889 245.158 53.0614C245.06 52.9339 244.927 52.8295 244.759 52.7481C244.59 52.6667 244.38 52.626 244.128 52.626C243.783 52.626 243.496 52.7033 243.265 52.8579C243.035 53.0099 242.919 53.2066 242.919 53.448C242.919 53.6569 242.997 53.8251 243.151 53.9527C243.306 54.0802 243.555 54.1846 243.9 54.266L244.893 54.4939C245.468 54.6269 245.897 54.8317 246.179 55.1084C246.461 55.3851 246.602 55.7446 246.602 56.1869C246.602 56.5613 246.494 56.895 246.277 57.188C246.062 57.4783 245.763 57.7062 245.377 57.8717C244.995 58.0372 244.551 58.1199 244.047 58.1199C243.347 58.1199 242.775 57.9707 242.333 57.6722C241.891 57.3711 241.62 56.9438 241.519 56.3903L242.695 56.2113C242.769 56.5178 242.919 56.7498 243.147 56.9072C243.375 57.0618 243.672 57.1391 244.038 57.1391C244.437 57.1391 244.756 57.0564 244.995 56.8909C245.233 56.7227 245.353 56.5178 245.353 56.2764C245.353 56.081 245.28 55.9169 245.133 55.784C244.989 55.651 244.768 55.5506 244.47 55.4828L243.412 55.2509C242.828 55.1179 242.397 54.9063 242.118 54.616C241.841 54.3257 241.702 53.9581 241.702 53.5131C241.702 53.1442 241.806 52.8213 242.012 52.5446C242.218 52.2679 242.503 52.0522 242.866 51.8975C243.23 51.7402 243.646 51.6615 244.116 51.6615C244.791 51.6615 245.323 51.808 245.711 52.101C246.099 52.3913 246.355 52.7806 246.48 53.269ZM250.634 58.1199C250.018 58.1199 249.488 57.9883 249.043 57.7252C248.601 57.4593 248.259 57.0862 248.017 56.606C247.779 56.1231 247.659 55.5574 247.659 54.909C247.659 54.2687 247.779 53.7044 248.017 53.2161C248.259 52.7277 248.595 52.3465 249.027 52.0725C249.461 51.7985 249.968 51.6615 250.549 51.6615C250.901 51.6615 251.243 51.7198 251.574 51.8365C251.905 51.9531 252.202 52.1363 252.465 52.3859C252.729 52.6355 252.936 52.9597 253.088 53.3585C253.24 53.7546 253.316 54.2362 253.316 54.8032V55.2346H248.347V54.323H252.124C252.124 54.0029 252.058 53.7193 251.928 53.4725C251.798 53.2229 251.615 53.0262 251.379 52.8824C251.146 52.7386 250.872 52.6667 250.557 52.6667C250.215 52.6667 249.917 52.7508 249.662 52.919C249.409 53.0845 249.214 53.3015 249.075 53.5701C248.94 53.836 248.872 54.1249 248.872 54.4369V55.1491C248.872 55.5669 248.945 55.9223 249.092 56.2153C249.241 56.5084 249.449 56.7322 249.714 56.8868C249.98 57.0388 250.291 57.1147 250.646 57.1147C250.877 57.1147 251.087 57.0822 251.277 57.017C251.467 56.9492 251.631 56.8488 251.77 56.7159C251.908 56.583 252.014 56.4188 252.087 56.2235L253.239 56.431C253.146 56.7702 252.981 57.0672 252.742 57.3223C252.506 57.5746 252.209 57.7713 251.851 57.9124C251.496 58.0507 251.09 58.1199 250.634 58.1199ZM259.518 58.1321C259.122 58.1321 258.764 58.0589 258.444 57.9124C258.124 57.7631 257.87 57.5474 257.683 57.2653C257.498 56.9831 257.406 56.6372 257.406 56.2276C257.406 55.8749 257.474 55.5846 257.609 55.3567C257.745 55.1288 257.928 54.9483 258.159 54.8154C258.389 54.6825 258.647 54.5821 258.932 54.5143C259.217 54.4464 259.507 54.3949 259.803 54.3596C260.177 54.3162 260.481 54.2809 260.714 54.2538C260.948 54.224 261.117 54.1765 261.223 54.1114C261.329 54.0463 261.382 53.9405 261.382 53.7939V53.7655C261.382 53.4101 261.281 53.1347 261.081 52.9393C260.883 52.744 260.587 52.6463 260.194 52.6463C259.784 52.6463 259.461 52.7372 259.225 52.919C258.992 53.0981 258.83 53.2975 258.741 53.5172L257.597 53.2568C257.733 52.8769 257.931 52.5704 258.191 52.337C258.455 52.101 258.757 51.9301 259.099 51.8243C259.441 51.7158 259.8 51.6615 260.177 51.6615C260.427 51.6615 260.691 51.6913 260.971 51.751C261.253 51.808 261.516 51.9138 261.76 52.0685C262.007 52.2231 262.209 52.4442 262.367 52.7318C262.524 53.0167 262.603 53.387 262.603 53.8428V57.9937H261.414V57.1391H261.366C261.287 57.2965 261.169 57.4511 261.012 57.6031C260.854 57.755 260.652 57.8812 260.405 57.9815C260.158 58.0819 259.863 58.1321 259.518 58.1321ZM259.783 57.1554C260.119 57.1554 260.407 57.0889 260.645 56.956C260.887 56.8231 261.07 56.6494 261.195 56.4351C261.322 56.2181 261.386 55.9861 261.386 55.7392V54.9334C261.343 54.9768 261.258 55.0175 261.134 55.0555C261.012 55.0908 260.872 55.122 260.714 55.1491C260.557 55.1735 260.404 55.1966 260.255 55.2183C260.105 55.2373 259.981 55.2536 259.88 55.2671C259.644 55.297 259.428 55.3472 259.233 55.4177C259.041 55.4882 258.886 55.59 258.769 55.7229C258.655 55.8532 258.598 56.0268 258.598 56.2438C258.598 56.545 258.71 56.7729 258.932 56.9275C259.154 57.0794 259.438 57.1554 259.783 57.1554ZM265.44 54.2823V57.9937H264.223V51.7429H265.391V52.7603H265.469C265.613 52.4293 265.838 52.1634 266.144 51.9626C266.454 51.7619 266.843 51.6615 267.312 51.6615C267.738 51.6615 268.111 51.751 268.431 51.9301C268.752 52.1064 269 52.3696 269.176 52.7196C269.352 53.0696 269.441 53.5023 269.441 54.0178V57.9937H268.224V54.1643C268.224 53.7112 268.106 53.3571 267.87 53.1021C267.634 52.8444 267.31 52.7155 266.897 52.7155C266.615 52.7155 266.364 52.7766 266.144 52.8986C265.927 53.0207 265.755 53.1998 265.627 53.4358C265.503 53.6691 265.44 53.9513 265.44 54.2823ZM273.413 58.1158C272.908 58.1158 272.458 57.987 272.061 57.7292C271.668 57.4688 271.359 57.0984 271.134 56.6182C270.911 56.1353 270.8 55.5561 270.8 54.8805C270.8 54.205 270.912 53.6271 271.138 53.1469C271.366 52.6667 271.678 52.2991 272.074 52.044C272.47 51.789 272.919 51.6615 273.421 51.6615C273.809 51.6615 274.121 51.7266 274.357 51.8568C274.595 51.9843 274.78 52.1336 274.91 52.3045C275.043 52.4754 275.146 52.626 275.219 52.7562H275.293V49.6593H276.509V57.9937H275.321V57.0211H275.219C275.146 57.1541 275.04 57.306 274.902 57.4769C274.766 57.6478 274.579 57.797 274.34 57.9246C274.102 58.0521 273.792 58.1158 273.413 58.1158ZM273.681 57.0781C274.031 57.0781 274.327 56.9858 274.568 56.8014C274.812 56.6142 274.997 56.3551 275.122 56.0241C275.249 55.6931 275.313 55.3078 275.313 54.8683C275.313 54.4342 275.251 54.0544 275.126 53.7288C275.001 53.4033 274.818 53.1496 274.576 52.9678C274.335 52.7861 274.037 52.6952 273.681 52.6952C273.315 52.6952 273.01 52.7901 272.765 52.98C272.521 53.1699 272.337 53.429 272.212 53.7573C272.09 54.0856 272.029 54.4559 272.029 54.8683C272.029 55.2861 272.091 55.6619 272.216 55.9956C272.341 56.3293 272.525 56.5938 272.77 56.7892C273.016 56.9818 273.32 57.0781 273.681 57.0781ZM284.254 51.7429V52.7196H280.721V51.7429H284.254ZM281.69 57.9937V51.0185C281.69 50.6278 281.776 50.3036 281.946 50.0459C282.117 49.7854 282.344 49.5914 282.626 49.4639C282.908 49.3337 283.215 49.2686 283.546 49.2686C283.79 49.2686 283.999 49.2889 284.172 49.3296C284.346 49.3676 284.475 49.4029 284.559 49.4354L284.274 50.4203C284.217 50.404 284.144 50.385 284.054 50.3633C283.965 50.3389 283.856 50.3267 283.729 50.3267C283.433 50.3267 283.222 50.3999 283.094 50.5464C282.969 50.6929 282.907 50.9046 282.907 51.1813V57.9937H281.69ZM286.726 49.6593V57.9937H285.509V49.6593H286.726ZM291.057 58.1199C290.441 58.1199 289.911 57.9883 289.466 57.7252C289.024 57.4593 288.682 57.0862 288.44 56.606C288.202 56.1231 288.082 55.5574 288.082 54.909C288.082 54.2687 288.202 53.7044 288.44 53.2161C288.682 52.7277 289.018 52.3465 289.45 52.0725C289.884 51.7985 290.391 51.6615 290.972 51.6615C291.324 51.6615 291.666 51.7198 291.997 51.8365C292.328 51.9531 292.625 52.1363 292.888 52.3859C293.152 52.6355 293.359 52.9597 293.511 53.3585C293.663 53.7546 293.739 54.2362 293.739 54.8032V55.2346H288.77V54.323H292.547C292.547 54.0029 292.482 53.7193 292.351 53.4725C292.221 53.2229 292.038 53.0262 291.802 52.8824C291.569 52.7386 291.295 52.6667 290.98 52.6667C290.638 52.6667 290.34 52.7508 290.085 52.919C289.832 53.0845 289.637 53.3015 289.499 53.5701C289.363 53.836 289.295 54.1249 289.295 54.4369V55.1491C289.295 55.5669 289.368 55.9223 289.515 56.2153C289.664 56.5084 289.872 56.7322 290.137 56.8868C290.403 57.0388 290.714 57.1147 291.069 57.1147C291.3 57.1147 291.51 57.0822 291.7 57.017C291.89 56.9492 292.054 56.8488 292.193 56.7159C292.331 56.583 292.437 56.4188 292.51 56.2235L293.662 56.431C293.569 56.7702 293.404 57.0672 293.165 57.3223C292.929 57.5746 292.632 57.7713 292.274 57.9124C291.919 58.0507 291.513 58.1199 291.057 58.1199ZM295.904 51.7429L297.284 54.1765L298.675 51.7429H300.006L298.057 54.8683L300.022 57.9937H298.692L297.284 55.6578L295.88 57.9937H294.545L296.49 54.8683L294.569 51.7429H295.904ZM301.256 57.9937V51.7429H302.472V57.9937H301.256ZM301.87 50.7784C301.658 50.7784 301.477 50.7079 301.325 50.5668C301.175 50.423 301.101 50.2521 301.101 50.054C301.101 49.8532 301.175 49.6823 301.325 49.5412C301.477 49.3975 301.658 49.3256 301.87 49.3256C302.082 49.3256 302.262 49.3975 302.411 49.5412C302.563 49.6823 302.639 49.8532 302.639 50.054C302.639 50.2521 302.563 50.423 302.411 50.5668C302.262 50.7079 302.082 50.7784 301.87 50.7784ZM304.207 57.9937V49.6593H305.424V52.7562H305.497C305.568 52.626 305.669 52.4754 305.802 52.3045C305.935 52.1336 306.12 51.9843 306.356 51.8568C306.592 51.7266 306.904 51.6615 307.292 51.6615C307.796 51.6615 308.247 51.789 308.643 52.044C309.039 52.2991 309.35 52.6667 309.575 53.1469C309.803 53.6271 309.917 54.205 309.917 54.8805C309.917 55.5561 309.804 56.1353 309.579 56.6182C309.354 57.0984 309.044 57.4688 308.651 57.7292C308.258 57.987 307.809 58.1158 307.304 58.1158C306.924 58.1158 306.613 58.0521 306.372 57.9246C306.133 57.797 305.946 57.6478 305.81 57.4769C305.675 57.306 305.57 57.1541 305.497 57.0211H305.395V57.9937H304.207ZM305.399 54.8683C305.399 55.3078 305.463 55.6931 305.591 56.0241C305.718 56.3551 305.903 56.6142 306.144 56.8014C306.386 56.9858 306.681 57.0781 307.031 57.0781C307.395 57.0781 307.699 56.9818 307.943 56.7892C308.187 56.5938 308.372 56.3293 308.496 55.9956C308.624 55.6619 308.688 55.2861 308.688 54.8683C308.688 54.4559 308.625 54.0856 308.5 53.7573C308.378 53.429 308.194 53.1699 307.947 52.98C307.703 52.7901 307.398 52.6952 307.031 52.6952C306.679 52.6952 306.38 52.7861 306.136 52.9678C305.894 53.1496 305.711 53.4033 305.587 53.7288C305.462 54.0544 305.399 54.4342 305.399 54.8683ZM311.283 57.9937V51.7429H312.5V57.9937H311.283ZM311.897 50.7784C311.686 50.7784 311.504 50.7079 311.352 50.5668C311.203 50.423 311.128 50.2521 311.128 50.054C311.128 49.8532 311.203 49.6823 311.352 49.5412C311.504 49.3975 311.686 49.3256 311.897 49.3256C312.109 49.3256 312.289 49.3975 312.439 49.5412C312.591 49.6823 312.667 49.8532 312.667 50.054C312.667 50.2521 312.591 50.423 312.439 50.5668C312.289 50.7079 312.109 50.7784 311.897 50.7784ZM315.354 49.6593V57.9937H314.137V49.6593H315.354ZM316.99 57.9937V51.7429H318.207V57.9937H316.99ZM317.605 50.7784C317.393 50.7784 317.212 50.7079 317.06 50.5668C316.91 50.423 316.836 50.2521 316.836 50.054C316.836 49.8532 316.91 49.6823 317.06 49.5412C317.212 49.3975 317.393 49.3256 317.605 49.3256C317.817 49.3256 317.997 49.3975 318.146 49.5412C318.298 49.6823 318.374 49.8532 318.374 50.054C318.374 50.2521 318.298 50.423 318.146 50.5668C317.997 50.7079 317.817 50.7784 317.605 50.7784ZM322.762 51.7429V52.7196H319.348V51.7429H322.762ZM320.263 50.2453H321.48V56.1584C321.48 56.3944 321.516 56.5721 321.586 56.6915C321.657 56.8081 321.747 56.8882 321.859 56.9316C321.973 56.9723 322.096 56.9926 322.229 56.9926C322.327 56.9926 322.412 56.9858 322.485 56.9723C322.559 56.9587 322.616 56.9479 322.656 56.9397L322.876 57.9449C322.806 57.972 322.705 57.9992 322.575 58.0263C322.445 58.0561 322.282 58.0724 322.087 58.0751C321.766 58.0806 321.468 58.0236 321.191 57.9042C320.915 57.7848 320.691 57.6004 320.52 57.3508C320.349 57.1012 320.263 56.7878 320.263 56.4107V50.2453ZM324.877 60.3378C324.696 60.3378 324.53 60.3229 324.381 60.2931C324.232 60.2659 324.12 60.2361 324.047 60.2035L324.34 59.2065C324.563 59.2662 324.761 59.2919 324.934 59.2838C325.108 59.2757 325.261 59.2105 325.394 59.0885C325.53 58.9664 325.649 58.767 325.752 58.4902L325.903 58.0751L323.616 51.7429H324.918L326.501 56.5938H326.566L328.149 51.7429H329.456L326.88 58.828C326.76 59.1536 326.608 59.4289 326.424 59.6541C326.239 59.882 326.02 60.0529 325.764 60.1669C325.509 60.2808 325.214 60.3378 324.877 60.3378ZM331.009 58.0711C330.787 58.0711 330.595 57.9924 330.435 57.835C330.275 57.675 330.195 57.4823 330.195 57.2572C330.195 57.0347 330.275 56.8448 330.435 56.6874C330.595 56.5273 330.787 56.4473 331.009 56.4473C331.232 56.4473 331.423 56.5273 331.583 56.6874C331.743 56.8448 331.823 57.0347 331.823 57.2572C331.823 57.4064 331.785 57.5434 331.709 57.6682C331.636 57.7903 331.538 57.8879 331.416 57.9612C331.294 58.0344 331.158 58.0711 331.009 58.0711Z" fill="#0D1B2A"/>
</svg>
