<svg width="382" height="81" viewBox="0 0 382 81" fill="none" xmlns="http://www.w3.org/2000/svg">
<rect x="0.398438" y="0.218903" width="381.16" height="80.55" rx="12.831" fill="#415A77" fill-opacity="0.3"/>
<path d="M12.9045 20.113C12.9045 16.1269 16.1359 12.8956 20.122 12.8956H59.0522C63.0383 12.8956 66.2696 16.127 66.2696 20.113V59.0904C66.2696 63.0764 63.0383 66.3078 59.0522 66.3078H20.122C16.1359 66.3078 12.9045 63.0764 12.9045 59.0904V20.113Z" fill="#E9D1E3"/>
<path d="M45.6182 44.2185L49.9009 48.5012L48.4867 49.9154L44.204 45.6327C42.6641 46.8647 40.7112 47.6017 38.5872 47.6017C33.6192 47.6017 29.5872 43.5697 29.5872 38.6017C29.5872 33.6337 33.6192 29.6017 38.5872 29.6017C43.5552 29.6017 47.5872 33.6337 47.5872 38.6017C47.5872 40.7257 46.8502 42.6786 45.6182 44.2185Z" fill="#0D1B2A"/>
<path d="M88.4592 23.9072H94.0405C94.0405 24.472 94.0405 25.0369 94.0405 25.6017C94.0405 26.1666 94.0405 26.7315 94.0405 27.2963C94.0405 27.8612 94.0405 28.4305 94.0405 29.0043C94.0405 29.8292 94.0405 30.6586 94.0405 31.4924C94.0405 32.3262 94.0405 33.1601 94.0405 33.9939H88.4592C88.4592 33.447 88.4592 32.9 88.4592 32.3531C88.4592 31.8062 88.4592 31.2593 88.4592 30.7124C88.4592 30.7034 88.4547 30.6989 88.4458 30.6989C88.4458 30.6899 88.4413 30.6855 88.4323 30.6855H86.5898C86.5809 30.6855 86.5764 30.6899 86.5764 30.6989C86.5764 30.6989 86.5764 30.7034 86.5764 30.7124C86.5764 31.2593 86.5764 31.8062 86.5764 32.3531C86.5764 32.9 86.5764 33.447 86.5764 33.9939H80.9951C80.9951 33.4559 80.9951 32.918 80.9951 32.38C80.9951 31.8421 80.9951 31.3041 80.9951 30.7661C80.9951 30.2282 80.9951 29.6902 80.9951 29.1523C80.9951 28.6143 80.9951 28.0764 80.9951 27.5384C80.9951 27.0004 80.9951 26.4625 80.9951 25.9245C80.9951 25.5838 80.9951 25.2476 80.9951 24.9159C80.9951 24.5751 80.9951 24.2389 80.9951 23.9072H86.5764C86.5764 24.3375 86.5764 24.7724 86.5764 25.2117C86.5764 25.6511 86.5764 26.0904 86.5764 26.5297C86.5764 26.9601 86.5764 27.3949 86.5764 27.8343C86.5764 27.8432 86.5764 27.8522 86.5764 27.8612C86.5764 27.8612 86.5809 27.8612 86.5898 27.8612H88.4323C88.4413 27.8612 88.4458 27.8612 88.4458 27.8612C88.4547 27.8522 88.4592 27.8432 88.4592 27.8343C88.4592 27.1798 88.4592 26.5252 88.4592 25.8707C88.4592 25.2162 88.4592 24.5617 88.4592 23.9072ZM100.493 34.3974C99.937 34.3974 99.399 34.357 98.879 34.2763C98.359 34.1956 97.8748 34.0746 97.4265 33.9132C96.9782 33.7428 96.5703 33.5321 96.2027 33.2811C95.8351 33.0301 95.5213 32.7387 95.2612 32.4069C95.0012 32.0662 94.7995 31.6852 94.656 31.2638C94.5126 30.8334 94.4409 30.3582 94.4409 29.8382C94.4409 29.2285 94.5395 28.6816 94.7367 28.1974C94.943 27.7043 95.2299 27.2739 95.5975 26.9063C95.974 26.5387 96.4134 26.2338 96.9155 25.9918C97.4176 25.7407 97.969 25.5569 98.5697 25.4404C99.1794 25.3148 99.8204 25.2521 100.493 25.2521C101.336 25.2521 102.12 25.3507 102.846 25.548C103.582 25.7362 104.223 26.0231 104.77 26.4087C105.326 26.7853 105.76 27.2605 106.074 27.8343C106.388 28.4081 106.545 29.0761 106.545 29.8382C106.545 30.6003 106.388 31.2682 106.074 31.8421C105.76 32.4069 105.326 32.8821 104.77 33.2677C104.223 33.6442 103.582 33.9267 102.846 34.1149C102.12 34.3032 101.336 34.3974 100.493 34.3974ZM100.506 30.8334C101.062 30.8334 101.457 30.7258 101.69 30.5106C101.923 30.2954 102.04 30.0623 102.04 29.8113C102.04 29.6947 102.013 29.5782 101.959 29.4616C101.905 29.345 101.82 29.2374 101.703 29.1388C101.587 29.0402 101.43 28.964 101.233 28.9102C101.035 28.8474 100.793 28.816 100.506 28.816C100.219 28.816 99.9729 28.8474 99.7666 28.9102C99.5694 28.964 99.408 29.0402 99.2825 29.1388C99.1659 29.2374 99.0807 29.345 99.027 29.4616C98.9732 29.5782 98.9463 29.6992 98.9463 29.8247C98.9463 29.9502 98.9732 30.0758 99.027 30.2013C99.0807 30.3178 99.1704 30.4254 99.2959 30.5241C99.4215 30.6137 99.5828 30.6899 99.7801 30.7527C99.9773 30.8065 100.219 30.8334 100.506 30.8334ZM111.587 29.3137C111.695 28.9012 111.798 28.4933 111.897 28.0898C112.004 27.6863 112.107 27.2829 112.206 26.8794C112.313 26.467 112.417 26.059 112.515 25.6555H115.138V29.3137H111.587ZM106.974 30.4837C106.974 29.7126 106.974 28.9012 106.974 28.0495C106.974 27.1977 106.974 26.3908 106.974 25.6286L111.574 24.5258C111.574 24.9652 111.574 25.4135 111.574 25.8707C111.574 26.328 111.574 26.7853 111.574 27.2425C111.574 27.5743 111.574 27.906 111.574 28.2377C111.574 28.5695 111.574 28.8967 111.574 29.2195C111.574 29.2285 111.574 29.233 111.574 29.233C111.574 29.233 111.574 29.2374 111.574 29.2464C111.574 29.4168 111.61 29.5647 111.681 29.6902C111.762 29.8158 111.87 29.9233 112.004 30.013C112.148 30.0937 112.313 30.1565 112.502 30.2013C112.69 30.2461 112.901 30.2685 113.134 30.2685C113.394 30.2685 113.658 30.2282 113.927 30.1475C114.196 30.0668 114.438 29.9547 114.654 29.8113C114.878 29.6678 115.039 29.5019 115.138 29.3137V33.4021C114.752 33.707 114.255 33.9311 113.645 34.0746C113.035 34.227 112.426 34.3032 111.816 34.3032C110.892 34.3032 110.063 34.1553 109.328 33.8594C108.602 33.5546 108.028 33.1197 107.606 32.5549C107.185 31.981 106.974 31.2907 106.974 30.4837ZM121.626 30.9544C122.101 30.9544 122.469 30.8693 122.729 30.6989C122.989 30.5285 123.123 30.2954 123.132 29.9996L127.288 31.3579C127.126 31.9228 126.781 32.4383 126.252 32.9045C125.732 33.3618 125.073 33.7249 124.275 33.9939C123.477 34.2629 122.585 34.3974 121.599 34.3974C120.756 34.3974 119.967 34.3032 119.232 34.1149C118.506 33.9267 117.864 33.6442 117.309 33.2677C116.762 32.8821 116.331 32.4024 116.018 31.8286C115.704 31.2548 115.547 30.5868 115.547 29.8247C115.547 29.0626 115.704 28.3946 116.018 27.8208C116.331 27.247 116.762 26.7718 117.309 26.3952C117.864 26.0097 118.51 25.7228 119.245 25.5345C119.98 25.3462 120.765 25.2521 121.599 25.2521C122.451 25.2521 123.231 25.3462 123.939 25.5345C124.656 25.7228 125.27 26.0142 125.781 26.4087C126.301 26.7942 126.7 27.2873 126.978 27.8881C127.265 28.4798 127.409 29.1837 127.409 29.9996H120.079C120.079 29.9996 120.075 29.9996 120.066 29.9996C120.066 29.9996 120.066 30.004 120.066 30.013C120.066 30.1475 120.102 30.273 120.173 30.3896C120.245 30.5061 120.344 30.6092 120.469 30.6989C120.604 30.7796 120.765 30.8424 120.953 30.8872C121.151 30.932 121.375 30.9544 121.626 30.9544ZM121.599 28.6547C121.159 28.6547 120.796 28.7354 120.509 28.8967C120.223 29.0492 120.079 29.2688 120.079 29.5557C120.079 29.5647 120.079 29.5737 120.079 29.5826C120.088 29.5826 120.093 29.5826 120.093 29.5826H123.092C123.101 29.5826 123.105 29.5826 123.105 29.5826C123.105 29.5737 123.105 29.5647 123.105 29.5557C123.105 29.4123 123.065 29.2868 122.984 29.1792C122.912 29.0626 122.809 28.9685 122.675 28.8967C122.54 28.816 122.379 28.7578 122.191 28.7219C122.011 28.6771 121.814 28.6547 121.599 28.6547ZM127.791 33.9939C127.791 33.2766 127.791 32.5638 127.791 31.8555C127.791 31.1382 127.791 30.4254 127.791 29.7171C127.791 28.9999 127.791 28.2871 127.791 27.5787C127.791 26.9691 127.791 26.3594 127.791 25.7497C127.791 25.131 127.791 24.5169 127.791 23.9072H132.444C132.444 24.2837 132.444 24.6603 132.444 25.0369C132.444 25.4045 132.444 25.7766 132.444 26.1532C132.444 27.4532 132.444 28.7578 132.444 30.0668C132.444 31.3758 132.444 32.6849 132.444 33.9939H127.791ZM146.981 27.8612H141.266C141.266 27.8612 141.266 27.8657 141.266 27.8746V28.6547C141.266 28.6636 141.266 28.6681 141.266 28.6681H146.78V31.869H141.266C141.266 31.869 141.266 31.8734 141.266 31.8824C141.266 32.1873 141.266 32.4428 141.266 32.649C141.266 32.8463 141.266 33.0435 141.266 33.2408C141.266 33.438 141.266 33.6891 141.266 33.9939H135.671C135.671 33.3573 135.671 32.7207 135.671 32.0841C135.671 31.4476 135.671 30.8155 135.671 30.1878C135.671 29.5513 135.671 28.9147 135.671 28.2781C135.671 27.6415 135.671 27.0049 135.671 26.3683C135.671 25.9559 135.671 25.548 135.671 25.1445C135.671 24.732 135.671 24.3196 135.671 23.9072H146.981V27.8612ZM147.465 33.9939C147.465 33.5815 147.465 33.1735 147.465 32.77C147.465 32.3576 147.465 31.9497 147.465 31.5462C147.465 31.1338 147.465 30.7258 147.465 30.3223C147.465 30.152 147.465 29.9816 147.465 29.8113C147.465 29.6409 147.465 29.4706 147.465 29.3002C147.985 29.3002 148.501 29.3002 149.012 29.3002C149.532 29.3002 150.052 29.3002 150.572 29.3002C151.092 29.3002 151.607 29.3002 152.118 29.3002C152.118 29.8202 152.118 30.3403 152.118 30.8603C152.118 31.3803 152.118 31.9048 152.118 32.4338C152.118 32.9538 152.118 33.4739 152.118 33.9939H147.465ZM147.465 29.3002C147.465 28.6905 147.465 28.0808 147.465 27.4712C147.465 26.8615 147.465 26.2563 147.465 25.6555H152.118C152.118 25.9514 152.118 26.2473 152.118 26.5432C152.118 26.8391 152.118 27.1349 152.118 27.4308C152.118 27.7267 152.118 28.0226 152.118 28.3184C152.118 28.3184 152.114 28.3229 152.105 28.3319C151.334 28.4933 150.558 28.6547 149.778 28.816C149.007 28.9774 148.236 29.1388 147.465 29.3002ZM158.732 33.9939C158.732 33.2946 158.732 32.5862 158.732 31.869C158.732 31.1517 158.732 30.4434 158.732 29.744C158.732 29.484 158.664 29.3002 158.53 29.1926C158.404 29.085 158.252 29.0267 158.073 29.0178C157.893 29.0088 157.728 29.0312 157.575 29.085C157.432 29.1388 157.342 29.1926 157.306 29.2464L158.382 25.79C158.705 25.6466 159.05 25.539 159.418 25.4673C159.785 25.3955 160.148 25.3597 160.507 25.3597C161.009 25.3597 161.475 25.4404 161.906 25.6017C162.345 25.7631 162.699 26.0187 162.968 26.3683C163.246 26.718 163.385 27.1842 163.385 27.767V33.9939H158.732ZM152.653 33.9939C152.653 33.4201 152.653 32.8463 152.653 32.2724C152.653 31.6896 152.653 31.1113 152.653 30.5375C152.653 29.9547 152.653 29.3764 152.653 28.8026C152.653 28.2736 152.653 27.7491 152.653 27.2291C152.653 26.7001 152.653 26.1756 152.653 25.6555C153.173 25.6555 153.688 25.6555 154.199 25.6555C154.719 25.6555 155.239 25.6555 155.759 25.6555C156.28 25.6555 156.795 25.6555 157.306 25.6555C157.306 25.9783 157.306 26.2876 157.306 26.5835C157.306 26.8704 157.306 27.1618 157.306 27.4577C157.306 27.7446 157.306 28.036 157.306 28.3319C157.306 28.6188 157.306 28.9236 157.306 29.2464C157.306 29.363 157.306 29.4795 157.306 29.5961C157.306 29.7037 157.306 29.8202 157.306 29.9458C157.306 30.6092 157.306 31.2907 157.306 31.99C157.306 32.6893 157.306 33.3573 157.306 33.9939H152.653ZM171.628 33.9939C171.628 33.5097 171.628 33.0301 171.628 32.5549C171.628 32.0707 171.628 31.591 171.628 31.1158C171.628 30.6317 171.628 30.152 171.628 29.6768C171.628 29.5064 171.583 29.3585 171.494 29.233C171.404 29.1074 171.283 29.0043 171.13 28.9236C170.978 28.8429 170.808 28.7847 170.619 28.7488C170.431 28.704 170.234 28.6816 170.028 28.6816C169.508 28.6816 169.118 28.7847 168.858 28.9909C168.607 29.1971 168.481 29.4257 168.481 29.6768C168.481 29.8651 168.535 30.0354 168.642 30.1878C168.759 30.3403 168.929 30.4658 169.153 30.5644C169.387 30.6541 169.678 30.6989 170.028 30.6989C170.404 30.6989 170.74 30.6317 171.036 30.4972C171.332 30.3627 171.525 30.143 171.615 29.8382L170.539 33.9939C170.252 34.0656 169.978 34.1149 169.718 34.1418C169.458 34.1777 169.158 34.1956 168.817 34.1956C168.127 34.1956 167.477 34.1015 166.867 33.9132C166.257 33.716 165.72 33.429 165.253 33.0525C164.796 32.6759 164.433 32.2186 164.164 31.6807C163.904 31.1427 163.774 30.5285 163.774 29.8382C163.774 29.2464 163.868 28.7174 164.056 28.2512C164.245 27.776 164.5 27.3636 164.823 27.0139C165.155 26.6642 165.536 26.3728 165.966 26.1397C166.396 25.9066 166.854 25.7362 167.338 25.6286C167.831 25.5121 168.329 25.4538 168.831 25.4538C169.037 25.4538 169.248 25.4628 169.463 25.4807C169.678 25.4986 169.889 25.5255 170.095 25.5614C170.301 25.5973 170.494 25.6466 170.673 25.7093C170.862 25.7721 171.032 25.8483 171.184 25.938C171.346 26.0276 171.485 26.1307 171.601 26.2473C171.61 26.2563 171.615 26.2607 171.615 26.2607C171.624 26.2518 171.628 26.2428 171.628 26.2338C171.628 25.8752 171.628 25.4897 171.628 25.0772C171.628 24.6558 171.628 24.2658 171.628 23.9072H176.281C176.281 24.7679 176.281 25.6331 176.281 26.5028C176.281 27.3636 176.281 28.2243 176.281 29.085C176.281 29.9009 176.281 30.7168 176.281 31.5327C176.281 32.3486 176.281 33.169 176.281 33.9939H171.628ZM182.763 30.9544C183.239 30.9544 183.606 30.8693 183.866 30.6989C184.126 30.5285 184.261 30.2954 184.27 29.9996L188.425 31.3579C188.264 31.9228 187.919 32.4383 187.39 32.9045C186.87 33.3618 186.211 33.7249 185.413 33.9939C184.615 34.2629 183.723 34.3974 182.736 34.3974C181.894 34.3974 181.105 34.3032 180.369 34.1149C179.643 33.9267 179.002 33.6442 178.446 33.2677C177.899 32.8821 177.469 32.4024 177.155 31.8286C176.841 31.2548 176.684 30.5868 176.684 29.8247C176.684 29.0626 176.841 28.3946 177.155 27.8208C177.469 27.247 177.899 26.7718 178.446 26.3952C179.002 26.0097 179.648 25.7228 180.383 25.5345C181.118 25.3462 181.903 25.2521 182.736 25.2521C183.588 25.2521 184.368 25.3462 185.077 25.5345C185.794 25.7228 186.408 26.0142 186.919 26.4087C187.439 26.7942 187.838 27.2873 188.116 27.8881C188.403 28.4798 188.546 29.1837 188.546 29.9996H181.217C181.217 29.9996 181.212 29.9996 181.203 29.9996C181.203 29.9996 181.203 30.004 181.203 30.013C181.203 30.1475 181.239 30.273 181.311 30.3896C181.383 30.5061 181.481 30.6092 181.607 30.6989C181.741 30.7796 181.903 30.8424 182.091 30.8872C182.288 30.932 182.512 30.9544 182.763 30.9544ZM182.736 28.6547C182.297 28.6547 181.934 28.7354 181.647 28.8967C181.36 29.0492 181.217 29.2688 181.217 29.5557C181.217 29.5647 181.217 29.5737 181.217 29.5826C181.226 29.5826 181.23 29.5826 181.23 29.5826H184.229C184.238 29.5826 184.243 29.5826 184.243 29.5826C184.243 29.5737 184.243 29.5647 184.243 29.5557C184.243 29.4123 184.202 29.2868 184.122 29.1792C184.05 29.0626 183.947 28.9685 183.812 28.8967C183.678 28.816 183.516 28.7578 183.328 28.7219C183.149 28.6771 182.952 28.6547 182.736 28.6547ZM193.582 25.6555C193.582 26.1935 193.582 26.7359 193.582 27.2829C193.582 27.8208 193.582 28.3633 193.582 28.9102C193.582 29.4481 193.582 29.9906 193.582 30.5375C193.582 31.1113 193.582 31.6852 193.582 32.259C193.582 32.8328 193.582 33.4111 193.582 33.9939H188.928C188.928 33.1063 188.928 32.2186 188.928 31.331C188.928 30.4434 188.928 29.5557 188.928 28.6681C188.928 28.166 188.928 27.6639 188.928 27.1618C188.928 26.6597 188.928 26.1576 188.928 25.6555H193.582ZM193.568 30.793L194.294 27.1753C194.375 26.7897 194.532 26.4714 194.765 26.2204C195.007 25.9604 195.29 25.7631 195.612 25.6286C195.935 25.4942 196.267 25.4135 196.608 25.3866C196.948 25.3507 197.262 25.3641 197.549 25.4269C197.836 25.4807 198.065 25.5748 198.235 25.7093L197.213 30.7124C196.953 30.4972 196.634 30.3492 196.258 30.2685C195.89 30.1878 195.518 30.1609 195.142 30.1878C194.765 30.2058 194.433 30.2685 194.146 30.3761C193.859 30.4837 193.667 30.6227 193.568 30.793Z" fill="#0D1B2A"/>
<path d="M81.6417 57.9939V49.6594H86.8101V50.7419H82.8992V53.2813H86.4397V54.3598H82.8992V57.9939H81.6417ZM88.2588 57.9939V51.743H89.4756V57.9939H88.2588ZM88.8734 50.7785C88.6617 50.7785 88.48 50.708 88.328 50.5669C88.1788 50.4231 88.1042 50.2522 88.1042 50.0542C88.1042 49.8534 88.1788 49.6825 88.328 49.5414C88.48 49.3976 88.6617 49.3257 88.8734 49.3257C89.085 49.3257 89.2654 49.3976 89.4146 49.5414C89.5665 49.6825 89.6425 49.8534 89.6425 50.0542C89.6425 50.2522 89.5665 50.4231 89.4146 50.5669C89.2654 50.708 89.085 50.7785 88.8734 50.7785ZM92.3294 54.2824V57.9939H91.1126V51.743H92.2806V52.7604H92.3579C92.5017 52.4294 92.7269 52.1636 93.0335 51.9628C93.3428 51.762 93.7321 51.6616 94.2014 51.6616C94.6274 51.6616 95.0004 51.7512 95.3206 51.9302C95.6407 52.1066 95.889 52.3698 96.0653 52.7197C96.2416 53.0697 96.3298 53.5024 96.3298 54.0179V57.9939H95.113V54.1644C95.113 53.7114 94.995 53.3573 94.759 53.1023C94.5229 52.8445 94.1987 52.7157 93.7863 52.7157C93.5042 52.7157 93.2532 52.7767 93.0335 52.8988C92.8164 53.0209 92.6441 53.1999 92.5166 53.436C92.3918 53.6693 92.3294 53.9515 92.3294 54.2824ZM100.302 58.116C99.7971 58.116 99.3467 57.9871 98.9506 57.7294C98.5572 57.4689 98.2479 57.0986 98.0228 56.6184C97.8003 56.1355 97.6891 55.5562 97.6891 54.8807C97.6891 54.2051 97.8016 53.6272 98.0268 53.147C98.2547 52.6668 98.5667 52.2992 98.9628 52.0442C99.3589 51.7892 99.8079 51.6616 100.31 51.6616C100.698 51.6616 101.01 51.7268 101.246 51.857C101.485 51.9845 101.669 52.1337 101.799 52.3046C101.932 52.4756 102.035 52.6261 102.109 52.7564H102.182V49.6594H103.399V57.9939H102.21V57.0213H102.109C102.035 57.1542 101.93 57.3061 101.791 57.4771C101.656 57.648 101.468 57.7972 101.23 57.9247C100.991 58.0522 100.682 58.116 100.302 58.116ZM100.57 57.0782C100.92 57.0782 101.216 56.986 101.457 56.8015C101.702 56.6143 101.886 56.3552 102.011 56.0242C102.138 55.6932 102.202 55.308 102.202 54.8685C102.202 54.4344 102.14 54.0546 102.015 53.729C101.89 53.4034 101.707 53.1498 101.466 52.968C101.224 52.7862 100.926 52.6953 100.57 52.6953C100.204 52.6953 99.8988 52.7903 99.6547 52.9802C99.4105 53.1701 99.226 53.4292 99.1012 53.7575C98.9791 54.0858 98.9181 54.4561 98.9181 54.8685C98.9181 55.2863 98.9805 55.662 99.1053 55.9957C99.2301 56.3294 99.4146 56.594 99.6587 56.7893C99.9056 56.9819 100.209 57.0782 100.57 57.0782ZM109.987 58.1323C109.591 58.1323 109.233 58.059 108.913 57.9125C108.593 57.7633 108.339 57.5476 108.152 57.2654C107.967 56.9833 107.875 56.6374 107.875 56.2277C107.875 55.875 107.943 55.5847 108.079 55.3568C108.214 55.1289 108.397 54.9485 108.628 54.8156C108.859 54.6826 109.116 54.5822 109.401 54.5144C109.686 54.4466 109.976 54.395 110.272 54.3598C110.647 54.3164 110.95 54.2811 111.184 54.254C111.417 54.2241 111.587 54.1766 111.692 54.1115C111.798 54.0464 111.851 53.9406 111.851 53.7941V53.7656C111.851 53.4102 111.751 53.1348 111.55 52.9395C111.352 52.7442 111.056 52.6465 110.663 52.6465C110.253 52.6465 109.93 52.7374 109.694 52.9191C109.461 53.0982 109.3 53.2976 109.21 53.5174L108.066 53.2569C108.202 52.8771 108.4 52.5705 108.661 52.3372C108.924 52.1012 109.226 51.9302 109.568 51.8244C109.91 51.7159 110.269 51.6616 110.647 51.6616C110.896 51.6616 111.161 51.6915 111.44 51.7512C111.722 51.8082 111.985 51.914 112.23 52.0686C112.477 52.2232 112.679 52.4444 112.836 52.7319C112.993 53.0168 113.072 53.3871 113.072 53.8429V57.9939H111.884V57.1393H111.835C111.756 57.2966 111.638 57.4513 111.481 57.6032C111.323 57.7551 111.121 57.8813 110.874 57.9817C110.628 58.0821 110.332 58.1323 109.987 58.1323ZM110.252 57.1556C110.588 57.1556 110.876 57.0891 111.115 56.9562C111.356 56.8232 111.539 56.6496 111.664 56.4353C111.791 56.2182 111.855 55.9862 111.855 55.7394V54.9336C111.812 54.977 111.728 55.0177 111.603 55.0557C111.481 55.0909 111.341 55.1221 111.184 55.1493C111.026 55.1737 110.873 55.1967 110.724 55.2185C110.575 55.2374 110.45 55.2537 110.349 55.2673C110.113 55.2971 109.898 55.3473 109.702 55.4179C109.51 55.4884 109.355 55.5901 109.238 55.7231C109.125 55.8533 109.068 56.0269 109.068 56.244C109.068 56.5451 109.179 56.773 109.401 56.9277C109.624 57.0796 109.907 57.1556 110.252 57.1556ZM115.91 54.2824V57.9939H114.693V51.743H115.861V52.7604H115.938C116.082 52.4294 116.307 52.1636 116.614 51.9628C116.923 51.762 117.312 51.6616 117.782 51.6616C118.207 51.6616 118.581 51.7512 118.901 51.9302C119.221 52.1066 119.469 52.3698 119.645 52.7197C119.822 53.0697 119.91 53.5024 119.91 54.0179V57.9939H118.693V54.1644C118.693 53.7114 118.575 53.3573 118.339 53.1023C118.103 52.8445 117.779 52.7157 117.366 52.7157C117.084 52.7157 116.833 52.7767 116.614 52.8988C116.397 53.0209 116.224 53.1999 116.097 53.436C115.972 53.6693 115.91 53.9515 115.91 54.2824ZM123.882 58.116C123.377 58.116 122.927 57.9871 122.531 57.7294C122.137 57.4689 121.828 57.0986 121.603 56.6184C121.38 56.1355 121.269 55.5562 121.269 54.8807C121.269 54.2051 121.382 53.6272 121.607 53.147C121.835 52.6668 122.147 52.2992 122.543 52.0442C122.939 51.7892 123.388 51.6616 123.89 51.6616C124.278 51.6616 124.59 51.7268 124.826 51.857C125.065 51.9845 125.249 52.1337 125.379 52.3046C125.512 52.4756 125.615 52.6261 125.689 52.7564H125.762V49.6594H126.979V57.9939H125.79V57.0213H125.689C125.615 57.1542 125.51 57.3061 125.371 57.4771C125.236 57.648 125.048 57.7972 124.81 57.9247C124.571 58.0522 124.262 58.116 123.882 58.116ZM124.15 57.0782C124.5 57.0782 124.796 56.986 125.038 56.8015C125.282 56.6143 125.466 56.3552 125.591 56.0242C125.719 55.6932 125.782 55.308 125.782 54.8685C125.782 54.4344 125.72 54.0546 125.595 53.729C125.47 53.4034 125.287 53.1498 125.046 52.968C124.804 52.7862 124.506 52.6953 124.15 52.6953C123.784 52.6953 123.479 52.7903 123.235 52.9802C122.991 53.1701 122.806 53.4292 122.681 53.7575C122.559 54.0858 122.498 54.4561 122.498 54.8685C122.498 55.2863 122.561 55.662 122.685 55.9957C122.81 56.3294 122.995 56.594 123.239 56.7893C123.486 56.9819 123.79 57.0782 124.15 57.0782ZM134.381 58.1201C133.776 58.1201 133.255 57.983 132.819 57.709C132.385 57.4323 132.051 57.0511 131.817 56.5655C131.584 56.0798 131.468 55.5237 131.468 54.897C131.468 54.2621 131.587 53.7019 131.826 53.2162C132.064 52.7279 132.401 52.3467 132.835 52.0727C133.269 51.7987 133.78 51.6616 134.369 51.6616C134.844 51.6616 135.267 51.7498 135.639 51.9262C136.01 52.0998 136.31 52.344 136.538 52.6587C136.769 52.9734 136.906 53.341 136.949 53.7615H135.765C135.7 53.4685 135.551 53.2162 135.317 53.0046C135.087 52.793 134.777 52.6872 134.389 52.6872C134.05 52.6872 133.753 52.7767 133.498 52.9558C133.246 53.1321 133.049 53.3844 132.908 53.7127C132.767 54.0383 132.697 54.4235 132.697 54.8685C132.697 55.3243 132.766 55.7177 132.904 56.0486C133.042 56.3796 133.238 56.636 133.49 56.8178C133.745 56.9996 134.045 57.0905 134.389 57.0905C134.62 57.0905 134.829 57.0484 135.016 56.9643C135.206 56.8775 135.365 56.754 135.492 56.594C135.623 56.4339 135.713 56.2413 135.765 56.0161H136.949C136.906 56.4203 136.774 56.7812 136.554 57.0986C136.335 57.416 136.04 57.6656 135.671 57.8474C135.305 58.0292 134.875 58.1201 134.381 58.1201ZM140.883 58.1201C140.297 58.1201 139.786 57.9858 139.349 57.7172C138.912 57.4486 138.573 57.0728 138.332 56.5899C138.09 56.107 137.97 55.5427 137.97 54.897C137.97 54.2485 138.09 53.6815 138.332 53.1959C138.573 52.7102 138.912 52.3331 139.349 52.0645C139.786 51.7959 140.297 51.6616 140.883 51.6616C141.469 51.6616 141.981 51.7959 142.418 52.0645C142.854 52.3331 143.194 52.7102 143.435 53.1959C143.677 53.6815 143.797 54.2485 143.797 54.897C143.797 55.5427 143.677 56.107 143.435 56.5899C143.194 57.0728 142.854 57.4486 142.418 57.7172C141.981 57.9858 141.469 58.1201 140.883 58.1201ZM140.888 57.0986C141.267 57.0986 141.582 56.9982 141.832 56.7974C142.081 56.5967 142.266 56.3294 142.385 55.9957C142.507 55.662 142.568 55.2944 142.568 54.8929C142.568 54.4941 142.507 54.1278 142.385 53.7941C142.266 53.4577 142.081 53.1877 141.832 52.9843C141.582 52.7808 141.267 52.679 140.888 52.679C140.505 52.679 140.188 52.7808 139.935 52.9843C139.686 53.1877 139.5 53.4577 139.378 53.7941C139.258 54.1278 139.199 54.4941 139.199 54.8929C139.199 55.2944 139.258 55.662 139.378 55.9957C139.5 56.3294 139.686 56.5967 139.935 56.7974C140.188 56.9982 140.505 57.0986 140.888 57.0986ZM145.155 57.9939V51.743H146.323V52.7604H146.401C146.531 52.4159 146.744 52.1473 147.04 51.9547C147.335 51.7593 147.689 51.6616 148.102 51.6616C148.52 51.6616 148.87 51.7593 149.152 51.9547C149.437 52.15 149.647 52.4186 149.783 52.7604H149.848C149.997 52.4267 150.234 52.1608 150.56 51.9628C150.885 51.762 151.273 51.6616 151.724 51.6616C152.291 51.6616 152.753 51.8394 153.112 52.1948C153.472 52.5502 153.653 53.086 153.653 53.8022V57.9939H152.436V53.9162C152.436 53.493 152.321 53.1864 152.09 52.9965C151.859 52.8066 151.584 52.7116 151.264 52.7116C150.868 52.7116 150.56 52.8337 150.34 53.0779C150.12 53.3193 150.01 53.63 150.01 54.0098V57.9939H148.798V53.8389C148.798 53.4997 148.692 53.2271 148.48 53.0209C148.269 52.8147 147.993 52.7116 147.654 52.7116C147.424 52.7116 147.211 52.7726 147.015 52.8947C146.823 53.0141 146.667 53.181 146.547 53.3953C146.431 53.6096 146.372 53.8579 146.372 54.14V57.9939H145.155ZM155.284 60.338V51.743H156.472V52.7564H156.574C156.644 52.6261 156.746 52.4756 156.879 52.3046C157.012 52.1337 157.196 51.9845 157.432 51.857C157.668 51.7268 157.98 51.6616 158.368 51.6616C158.873 51.6616 159.323 51.7892 159.719 52.0442C160.116 52.2992 160.426 52.6668 160.651 53.147C160.879 53.6272 160.993 54.2051 160.993 54.8807C160.993 55.5562 160.881 56.1355 160.655 56.6184C160.43 57.0986 160.121 57.4689 159.728 57.7294C159.334 57.9871 158.885 58.116 158.381 58.116C158.001 58.116 157.69 58.0522 157.449 57.9247C157.21 57.7972 157.023 57.648 156.887 57.4771C156.751 57.3061 156.647 57.1542 156.574 57.0213H156.5V60.338H155.284ZM156.476 54.8685C156.476 55.308 156.54 55.6932 156.667 56.0242C156.795 56.3552 156.979 56.6143 157.221 56.8015C157.462 56.986 157.758 57.0782 158.108 57.0782C158.471 57.0782 158.775 56.9819 159.02 56.7893C159.264 56.594 159.448 56.3294 159.573 55.9957C159.7 55.662 159.764 55.2863 159.764 54.8685C159.764 54.4561 159.702 54.0858 159.577 53.7575C159.455 53.4292 159.27 53.1701 159.024 52.9802C158.779 52.7903 158.474 52.6953 158.108 52.6953C157.755 52.6953 157.457 52.7862 157.213 52.968C156.971 53.1498 156.788 53.4034 156.663 53.729C156.538 54.0546 156.476 54.4344 156.476 54.8685ZM164.176 58.1323C163.78 58.1323 163.421 58.059 163.101 57.9125C162.781 57.7633 162.527 57.5476 162.34 57.2654C162.156 56.9833 162.064 56.6374 162.064 56.2277C162.064 55.875 162.131 55.5847 162.267 55.3568C162.403 55.1289 162.586 54.9485 162.816 54.8156C163.047 54.6826 163.305 54.5822 163.59 54.5144C163.874 54.4466 164.165 54.395 164.461 54.3598C164.835 54.3164 165.139 54.2811 165.372 54.254C165.605 54.2241 165.775 54.1766 165.881 54.1115C165.987 54.0464 166.04 53.9406 166.04 53.7941V53.7656C166.04 53.4102 165.939 53.1348 165.738 52.9395C165.54 52.7442 165.245 52.6465 164.851 52.6465C164.442 52.6465 164.119 52.7374 163.883 52.9191C163.649 53.0982 163.488 53.2976 163.398 53.5174L162.255 53.2569C162.39 52.8771 162.589 52.5705 162.849 52.3372C163.112 52.1012 163.415 51.9302 163.756 51.8244C164.098 51.7159 164.458 51.6616 164.835 51.6616C165.085 51.6616 165.349 51.6915 165.628 51.7512C165.911 51.8082 166.174 51.914 166.418 52.0686C166.665 52.2232 166.867 52.4444 167.024 52.7319C167.182 53.0168 167.26 53.3871 167.26 53.8429V57.9939H166.072V57.1393H166.023C165.945 57.2966 165.827 57.4513 165.669 57.6032C165.512 57.7551 165.31 57.8813 165.063 57.9817C164.816 58.0821 164.52 58.1323 164.176 58.1323ZM164.44 57.1556C164.777 57.1556 165.064 57.0891 165.303 56.9562C165.544 56.8232 165.728 56.6496 165.852 56.4353C165.98 56.2182 166.044 55.9862 166.044 55.7394V54.9336C166 54.977 165.916 55.0177 165.791 55.0557C165.669 55.0909 165.529 55.1221 165.372 55.1493C165.215 55.1737 165.061 55.1967 164.912 55.2185C164.763 55.2374 164.638 55.2537 164.538 55.2673C164.302 55.2971 164.086 55.3473 163.891 55.4179C163.698 55.4884 163.544 55.5901 163.427 55.7231C163.313 55.8533 163.256 56.0269 163.256 56.244C163.256 56.5451 163.367 56.773 163.59 56.9277C163.812 57.0796 164.096 57.1556 164.44 57.1556ZM168.881 57.9939V51.743H170.057V52.736H170.122C170.236 52.3996 170.437 52.1351 170.725 51.9424C171.015 51.7471 171.343 51.6494 171.709 51.6494C171.785 51.6494 171.875 51.6522 171.978 51.6576C172.084 51.663 172.167 51.6698 172.226 51.6779V52.8418C172.177 52.8283 172.091 52.8133 171.966 52.7971C171.841 52.7781 171.716 52.7686 171.591 52.7686C171.304 52.7686 171.047 52.8296 170.822 52.9517C170.6 53.0711 170.423 53.2379 170.293 53.4523C170.163 53.6639 170.098 53.9053 170.098 54.1766V57.9939H168.881ZM175.75 58.1201C175.134 58.1201 174.603 57.9885 174.158 57.7253C173.716 57.4594 173.374 57.0864 173.133 56.6062C172.894 56.1233 172.775 55.5576 172.775 54.9092C172.775 54.2689 172.894 53.7046 173.133 53.2162C173.374 52.7279 173.711 52.3467 174.142 52.0727C174.576 51.7987 175.083 51.6616 175.664 51.6616C176.017 51.6616 176.359 51.72 176.69 51.8366C177.021 51.9533 177.318 52.1364 177.581 52.386C177.844 52.6356 178.052 52.9598 178.203 53.3587C178.355 53.7548 178.431 54.2363 178.431 54.8034V55.2347H173.462V54.3231H177.239C177.239 54.003 177.174 53.7195 177.044 53.4726C176.913 53.223 176.73 53.0263 176.494 52.8825C176.261 52.7387 175.987 52.6668 175.672 52.6668C175.33 52.6668 175.032 52.7509 174.777 52.9191C174.525 53.0846 174.329 53.3017 174.191 53.5703C174.055 53.8362 173.987 54.1251 173.987 54.4371V55.1493C173.987 55.5671 174.061 55.9225 174.207 56.2155C174.356 56.5085 174.564 56.7323 174.83 56.887C175.096 57.0389 175.406 57.1149 175.762 57.1149C175.992 57.1149 176.203 57.0823 176.392 57.0172C176.582 56.9494 176.747 56.849 176.885 56.7161C177.023 56.5831 177.129 56.419 177.202 56.2236L178.354 56.4312C178.262 56.7703 178.096 57.0674 177.858 57.3224C177.622 57.5747 177.324 57.7714 176.966 57.9125C176.611 58.0509 176.205 58.1201 175.75 58.1201ZM185.732 51.743V52.7197H182.318V51.743H185.732ZM183.233 50.2454H184.45V56.1585C184.45 56.3946 184.486 56.5723 184.556 56.6916C184.627 56.8083 184.717 56.8883 184.829 56.9317C184.943 56.9724 185.066 56.9928 185.199 56.9928C185.297 56.9928 185.382 56.986 185.455 56.9724C185.529 56.9589 185.586 56.948 185.626 56.9399L185.846 57.9451C185.776 57.9722 185.675 57.9993 185.545 58.0265C185.415 58.0563 185.252 58.0726 185.057 58.0753C184.736 58.0807 184.438 58.0237 184.161 57.9044C183.885 57.785 183.661 57.6005 183.49 57.3509C183.319 57.1013 183.233 56.7879 183.233 56.4108V50.2454ZM188.429 54.2824V57.9939H187.212V49.6594H188.413V52.7604H188.49C188.637 52.424 188.861 52.1568 189.162 51.9587C189.463 51.7607 189.856 51.6616 190.342 51.6616C190.771 51.6616 191.145 51.7498 191.465 51.9262C191.788 52.1025 192.038 52.3657 192.214 52.7157C192.393 53.0629 192.483 53.497 192.483 54.0179V57.9939H191.266V54.1644C191.266 53.7059 191.148 53.3505 190.912 53.0982C190.676 52.8432 190.347 52.7157 189.927 52.7157C189.639 52.7157 189.382 52.7767 189.154 52.8988C188.928 53.0209 188.751 53.1999 188.621 53.436C188.493 53.6693 188.429 53.9515 188.429 54.2824ZM196.8 58.1201C196.185 58.1201 195.654 57.9885 195.209 57.7253C194.767 57.4594 194.425 57.0864 194.184 56.6062C193.945 56.1233 193.826 55.5576 193.826 54.9092C193.826 54.2689 193.945 53.7046 194.184 53.2162C194.425 52.7279 194.762 52.3467 195.193 52.0727C195.627 51.7987 196.134 51.6616 196.715 51.6616C197.068 51.6616 197.409 51.72 197.74 51.8366C198.071 51.9533 198.369 52.1364 198.632 52.386C198.895 52.6356 199.102 52.9598 199.254 53.3587C199.406 53.7548 199.482 54.2363 199.482 54.8034V55.2347H194.513V54.3231H198.29C198.29 54.003 198.225 53.7195 198.094 53.4726C197.964 53.223 197.781 53.0263 197.545 52.8825C197.312 52.7387 197.038 52.6668 196.723 52.6668C196.381 52.6668 196.083 52.7509 195.828 52.9191C195.575 53.0846 195.38 53.3017 195.242 53.5703C195.106 53.8362 195.038 54.1251 195.038 54.4371V55.1493C195.038 55.5671 195.111 55.9225 195.258 56.2155C195.407 56.5085 195.615 56.7323 195.881 56.887C196.147 57.0389 196.457 57.1149 196.813 57.1149C197.043 57.1149 197.253 57.0823 197.443 57.0172C197.633 56.9494 197.797 56.849 197.936 56.7161C198.074 56.5831 198.18 56.419 198.253 56.2236L199.405 56.4312C199.313 56.7703 199.147 57.0674 198.908 57.3224C198.672 57.5747 198.375 57.7714 198.017 57.9125C197.662 58.0509 197.256 58.1201 196.8 58.1201ZM203.963 57.9939V49.6594H205.18V52.7564H205.253C205.323 52.6261 205.425 52.4756 205.558 52.3046C205.691 52.1337 205.876 51.9845 206.112 51.857C206.348 51.7268 206.66 51.6616 207.048 51.6616C207.552 51.6616 208.003 51.7892 208.399 52.0442C208.795 52.2992 209.105 52.6668 209.331 53.147C209.558 53.6272 209.672 54.2051 209.672 54.8807C209.672 55.5562 209.56 56.1355 209.335 56.6184C209.109 57.0986 208.8 57.4689 208.407 57.7294C208.013 57.9871 207.564 58.116 207.06 58.116C206.68 58.116 206.369 58.0522 206.128 57.9247C205.889 57.7972 205.702 57.648 205.566 57.4771C205.431 57.3061 205.326 57.1542 205.253 57.0213H205.151V57.9939H203.963ZM205.155 54.8685C205.155 55.308 205.219 55.6932 205.346 56.0242C205.474 56.3552 205.658 56.6143 205.9 56.8015C206.141 56.986 206.437 57.0782 206.787 57.0782C207.151 57.0782 207.455 56.9819 207.699 56.7893C207.943 56.594 208.127 56.3294 208.252 55.9957C208.38 55.662 208.443 55.2863 208.443 54.8685C208.443 54.4561 208.381 54.0858 208.256 53.7575C208.134 53.4292 207.95 53.1701 207.703 52.9802C207.459 52.7903 207.153 52.6953 206.787 52.6953C206.434 52.6953 206.136 52.7862 205.892 52.968C205.65 53.1498 205.467 53.4034 205.342 53.729C205.218 54.0546 205.155 54.4344 205.155 54.8685ZM213.733 58.1201C213.117 58.1201 212.587 57.9885 212.142 57.7253C211.699 57.4594 211.358 57.0864 211.116 56.6062C210.877 56.1233 210.758 55.5576 210.758 54.9092C210.758 54.2689 210.877 53.7046 211.116 53.2162C211.358 52.7279 211.694 52.3467 212.125 52.0727C212.559 51.7987 213.067 51.6616 213.647 51.6616C214 51.6616 214.342 51.72 214.673 51.8366C215.004 51.9533 215.301 52.1364 215.564 52.386C215.827 52.6356 216.035 52.9598 216.187 53.3587C216.339 53.7548 216.415 54.2363 216.415 54.8034V55.2347H211.446V54.3231H215.222C215.222 54.003 215.157 53.7195 215.027 53.4726C214.897 53.223 214.714 53.0263 214.478 52.8825C214.244 52.7387 213.97 52.6668 213.656 52.6668C213.314 52.6668 213.015 52.7509 212.76 52.9191C212.508 53.0846 212.313 53.3017 212.174 53.5703C212.039 53.8362 211.971 54.1251 211.971 54.4371V55.1493C211.971 55.5671 212.044 55.9225 212.19 56.2155C212.34 56.5085 212.547 56.7323 212.813 56.887C213.079 57.0389 213.39 57.1149 213.745 57.1149C213.976 57.1149 214.186 57.0823 214.376 57.0172C214.566 56.9494 214.73 56.849 214.868 56.7161C215.007 56.5831 215.112 56.419 215.186 56.2236L216.337 56.4312C216.245 56.7703 216.08 57.0674 215.841 57.3224C215.605 57.5747 215.308 57.7714 214.95 57.9125C214.594 58.0509 214.189 58.1201 213.733 58.1201ZM222.449 53.2691L221.346 53.4645C221.3 53.3234 221.227 53.1891 221.126 53.0616C221.029 52.9341 220.896 52.8296 220.727 52.7482C220.559 52.6668 220.349 52.6261 220.097 52.6261C219.752 52.6261 219.464 52.7035 219.234 52.8581C219.003 53.01 218.888 53.2067 218.888 53.4482C218.888 53.6571 218.965 53.8253 219.12 53.9528C219.275 54.0803 219.524 54.1848 219.869 54.2662L220.862 54.4941C221.437 54.627 221.866 54.8318 222.148 55.1086C222.43 55.3853 222.571 55.7448 222.571 56.187C222.571 56.5614 222.462 56.8951 222.245 57.1881C222.031 57.4784 221.731 57.7063 221.346 57.8718C220.963 58.0373 220.52 58.1201 220.015 58.1201C219.315 58.1201 218.744 57.9708 218.302 57.6724C217.86 57.3713 217.588 56.9439 217.488 56.3905L218.664 56.2114C218.737 56.518 218.888 56.75 219.116 56.9073C219.344 57.062 219.641 57.1393 220.007 57.1393C220.406 57.1393 220.725 57.0565 220.963 56.891C221.202 56.7228 221.322 56.518 221.322 56.2765C221.322 56.0812 221.248 55.9171 221.102 55.7841C220.958 55.6512 220.737 55.5508 220.438 55.483L219.38 55.251C218.797 55.1181 218.366 54.9064 218.086 54.6162C217.81 54.3259 217.671 53.9582 217.671 53.5133C217.671 53.1443 217.774 52.8215 217.98 52.5447C218.187 52.268 218.472 52.0523 218.835 51.8977C219.199 51.7403 219.615 51.6616 220.084 51.6616C220.76 51.6616 221.292 51.8082 221.68 52.1012C222.068 52.3915 222.324 52.7808 222.449 53.2691ZM226.827 51.743V52.7197H223.412V51.743H226.827ZM224.328 50.2454H225.545V56.1585C225.545 56.3946 225.58 56.5723 225.651 56.6916C225.721 56.8083 225.812 56.8883 225.923 56.9317C226.037 56.9724 226.161 56.9928 226.294 56.9928C226.391 56.9928 226.477 56.986 226.55 56.9724C226.623 56.9589 226.68 56.948 226.721 56.9399L226.941 57.9451C226.87 57.9722 226.77 57.9993 226.639 58.0265C226.509 58.0563 226.346 58.0726 226.151 58.0753C225.831 58.0807 225.533 58.0237 225.256 57.9044C224.979 57.785 224.755 57.6005 224.584 57.3509C224.413 57.1013 224.328 56.7879 224.328 56.4108V50.2454ZM232.422 54.2824V57.9939H231.206V49.6594H232.406V52.7604H232.483C232.63 52.424 232.854 52.1568 233.155 51.9587C233.456 51.7607 233.849 51.6616 234.335 51.6616C234.764 51.6616 235.138 51.7498 235.458 51.9262C235.781 52.1025 236.031 52.3657 236.207 52.7157C236.386 53.0629 236.476 53.497 236.476 54.0179V57.9939H235.259V54.1644C235.259 53.7059 235.141 53.3505 234.905 53.0982C234.669 52.8432 234.34 52.7157 233.92 52.7157C233.632 52.7157 233.375 52.7767 233.147 52.8988C232.922 53.0209 232.744 53.1999 232.614 53.436C232.486 53.6693 232.422 53.9515 232.422 54.2824ZM240.732 58.1201C240.146 58.1201 239.635 57.9858 239.198 57.7172C238.761 57.4486 238.422 57.0728 238.181 56.5899C237.939 56.107 237.819 55.5427 237.819 54.897C237.819 54.2485 237.939 53.6815 238.181 53.1959C238.422 52.7102 238.761 52.3331 239.198 52.0645C239.635 51.7959 240.146 51.6616 240.732 51.6616C241.318 51.6616 241.83 51.7959 242.267 52.0645C242.703 52.3331 243.043 52.7102 243.284 53.1959C243.525 53.6815 243.646 54.2485 243.646 54.897C243.646 55.5427 243.525 56.107 243.284 56.5899C243.043 57.0728 242.703 57.4486 242.267 57.7172C241.83 57.9858 241.318 58.1201 240.732 58.1201ZM240.736 57.0986C241.116 57.0986 241.431 56.9982 241.681 56.7974C241.93 56.5967 242.115 56.3294 242.234 55.9957C242.356 55.662 242.417 55.2944 242.417 54.8929C242.417 54.4941 242.356 54.1278 242.234 53.7941C242.115 53.4577 241.93 53.1877 241.681 52.9843C241.431 52.7808 241.116 52.679 240.736 52.679C240.354 52.679 240.036 52.7808 239.784 52.9843C239.535 53.1877 239.349 53.4577 239.227 53.7941C239.107 54.1278 239.048 54.4941 239.048 54.8929C239.048 55.2944 239.107 55.662 239.227 55.9957C239.349 56.3294 239.535 56.5967 239.784 56.7974C240.036 56.9982 240.354 57.0986 240.736 57.0986ZM247.922 51.743V52.7197H244.508V51.743H247.922ZM245.424 50.2454H246.64V56.1585C246.64 56.3946 246.676 56.5723 246.746 56.6916C246.817 56.8083 246.908 56.8883 247.019 56.9317C247.133 56.9724 247.256 56.9928 247.389 56.9928C247.487 56.9928 247.572 56.986 247.646 56.9724C247.719 56.9589 247.776 56.948 247.816 56.9399L248.036 57.9451C247.966 57.9722 247.865 57.9993 247.735 58.0265C247.605 58.0563 247.442 58.0726 247.247 58.0753C246.927 58.0807 246.628 58.0237 246.351 57.9044C246.075 57.785 245.851 57.6005 245.68 57.3509C245.509 57.1013 245.424 56.7879 245.424 56.4108V50.2454ZM251.895 58.1201C251.279 58.1201 250.749 57.9885 250.304 57.7253C249.862 57.4594 249.52 57.0864 249.278 56.6062C249.04 56.1233 248.92 55.5576 248.92 54.9092C248.92 54.2689 249.04 53.7046 249.278 53.2162C249.52 52.7279 249.856 52.3467 250.288 52.0727C250.722 51.7987 251.229 51.6616 251.81 51.6616C252.162 51.6616 252.504 51.72 252.835 51.8366C253.166 51.9533 253.463 52.1364 253.727 52.386C253.99 52.6356 254.197 52.9598 254.349 53.3587C254.501 53.7548 254.577 54.2363 254.577 54.8034V55.2347H249.608V54.3231H253.385C253.385 54.003 253.32 53.7195 253.189 53.4726C253.059 53.223 252.876 53.0263 252.64 52.8825C252.407 52.7387 252.133 52.6668 251.818 52.6668C251.476 52.6668 251.178 52.7509 250.923 52.9191C250.67 53.0846 250.475 53.3017 250.337 53.5703C250.201 53.8362 250.133 54.1251 250.133 54.4371V55.1493C250.133 55.5671 250.206 55.9225 250.353 56.2155C250.502 56.5085 250.71 56.7323 250.975 56.887C251.241 57.0389 251.552 57.1149 251.907 57.1149C252.138 57.1149 252.348 57.0823 252.538 57.0172C252.728 56.9494 252.892 56.849 253.031 56.7161C253.169 56.5831 253.275 56.419 253.348 56.2236L254.5 56.4312C254.407 56.7703 254.242 57.0674 254.003 57.3224C253.767 57.5747 253.47 57.7714 253.112 57.9125C252.757 58.0509 252.351 58.1201 251.895 58.1201ZM257.144 49.6594V57.9939H255.927V49.6594H257.144ZM264.154 58.116C263.649 58.116 263.199 57.9871 262.803 57.7294C262.409 57.4689 262.1 57.0986 261.875 56.6184C261.652 56.1355 261.541 55.5562 261.541 54.8807C261.541 54.2051 261.654 53.6272 261.879 53.147C262.107 52.6668 262.419 52.2992 262.815 52.0442C263.211 51.7892 263.66 51.6616 264.162 51.6616C264.55 51.6616 264.862 51.7268 265.098 51.857C265.337 51.9845 265.521 52.1337 265.651 52.3046C265.784 52.4756 265.887 52.6261 265.961 52.7564H266.034V49.6594H267.251V57.9939H266.062V57.0213H265.961C265.887 57.1542 265.782 57.3061 265.643 57.4771C265.508 57.648 265.32 57.7972 265.082 57.9247C264.843 58.0522 264.534 58.116 264.154 58.116ZM264.422 57.0782C264.772 57.0782 265.068 56.986 265.31 56.8015C265.554 56.6143 265.738 56.3552 265.863 56.0242C265.991 55.6932 266.054 55.308 266.054 54.8685C266.054 54.4344 265.992 54.0546 265.867 53.729C265.742 53.4034 265.559 53.1498 265.318 52.968C265.076 52.7862 264.778 52.6953 264.422 52.6953C264.056 52.6953 263.751 52.7903 263.507 52.9802C263.263 53.1701 263.078 53.4292 262.953 53.7575C262.831 54.0858 262.77 54.4561 262.77 54.8685C262.77 55.2863 262.833 55.662 262.957 55.9957C263.082 56.3294 263.267 56.594 263.511 56.7893C263.758 56.9819 264.062 57.0782 264.422 57.0782ZM271.681 58.1201C271.066 58.1201 270.535 57.9885 270.09 57.7253C269.648 57.4594 269.306 57.0864 269.065 56.6062C268.826 56.1233 268.707 55.5576 268.707 54.9092C268.707 54.2689 268.826 53.7046 269.065 53.2162C269.306 52.7279 269.643 52.3467 270.074 52.0727C270.508 51.7987 271.015 51.6616 271.596 51.6616C271.949 51.6616 272.291 51.72 272.622 51.8366C272.953 51.9533 273.25 52.1364 273.513 52.386C273.776 52.6356 273.983 52.9598 274.135 53.3587C274.287 53.7548 274.363 54.2363 274.363 54.8034V55.2347H269.394V54.3231H273.171C273.171 54.003 273.106 53.7195 272.976 53.4726C272.845 53.223 272.662 53.0263 272.426 52.8825C272.193 52.7387 271.919 52.6668 271.604 52.6668C271.262 52.6668 270.964 52.7509 270.709 52.9191C270.457 53.0846 270.261 53.3017 270.123 53.5703C269.987 53.8362 269.919 54.1251 269.919 54.4371V55.1493C269.919 55.5671 269.993 55.9225 270.139 56.2155C270.288 56.5085 270.496 56.7323 270.762 56.887C271.028 57.0389 271.338 57.1149 271.694 57.1149C271.924 57.1149 272.135 57.0823 272.324 57.0172C272.514 56.9494 272.679 56.849 272.817 56.7161C272.955 56.5831 273.061 56.419 273.134 56.2236L274.286 56.4312C274.194 56.7703 274.028 57.0674 273.789 57.3224C273.553 57.5747 273.256 57.7714 272.898 57.9125C272.543 58.0509 272.137 58.1201 271.681 58.1201ZM277.532 58.1323C277.136 58.1323 276.778 58.059 276.458 57.9125C276.138 57.7633 275.884 57.5476 275.697 57.2654C275.513 56.9833 275.42 56.6374 275.42 56.2277C275.42 55.875 275.488 55.5847 275.624 55.3568C275.76 55.1289 275.943 54.9485 276.173 54.8156C276.404 54.6826 276.662 54.5822 276.946 54.5144C277.231 54.4466 277.522 54.395 277.817 54.3598C278.192 54.3164 278.496 54.2811 278.729 54.254C278.962 54.2241 279.132 54.1766 279.238 54.1115C279.343 54.0464 279.396 53.9406 279.396 53.7941V53.7656C279.396 53.4102 279.296 53.1348 279.095 52.9395C278.897 52.7442 278.601 52.6465 278.208 52.6465C277.798 52.6465 277.476 52.7374 277.239 52.9191C277.006 53.0982 276.845 53.2976 276.755 53.5174L275.612 53.2569C275.747 52.8771 275.945 52.5705 276.206 52.3372C276.469 52.1012 276.771 51.9302 277.113 51.8244C277.455 51.7159 277.815 51.6616 278.192 51.6616C278.441 51.6616 278.706 51.6915 278.985 51.7512C279.267 51.8082 279.531 51.914 279.775 52.0686C280.022 52.2232 280.224 52.4444 280.381 52.7319C280.539 53.0168 280.617 53.3871 280.617 53.8429V57.9939H279.429V57.1393H279.38C279.301 57.2966 279.183 57.4513 279.026 57.6032C278.869 57.7551 278.667 57.8813 278.42 57.9817C278.173 58.0821 277.877 58.1323 277.532 58.1323ZM277.797 57.1556C278.133 57.1556 278.421 57.0891 278.66 56.9562C278.901 56.8232 279.084 56.6496 279.209 56.4353C279.337 56.2182 279.4 55.9862 279.4 55.7394V54.9336C279.357 54.977 279.273 55.0177 279.148 55.0557C279.026 55.0909 278.886 55.1221 278.729 55.1493C278.572 55.1737 278.418 55.1967 278.269 55.2185C278.12 55.2374 277.995 55.2537 277.895 55.2673C277.659 55.2971 277.443 55.3473 277.248 55.4179C277.055 55.4884 276.9 55.5901 276.784 55.7231C276.67 55.8533 276.613 56.0269 276.613 56.244C276.613 56.5451 276.724 56.773 276.946 56.9277C277.169 57.0796 277.452 57.1556 277.797 57.1556ZM283.455 49.6594V57.9939H282.238V49.6594H283.455ZM289.776 53.2691L288.673 53.4645C288.627 53.3234 288.554 53.1891 288.453 53.0616C288.356 52.9341 288.223 52.8296 288.054 52.7482C287.886 52.6668 287.676 52.6261 287.424 52.6261C287.079 52.6261 286.791 52.7035 286.561 52.8581C286.33 53.01 286.215 53.2067 286.215 53.4482C286.215 53.6571 286.292 53.8253 286.447 53.9528C286.602 54.0803 286.851 54.1848 287.196 54.2662L288.189 54.4941C288.764 54.627 289.192 54.8318 289.475 55.1086C289.757 55.3853 289.898 55.7448 289.898 56.187C289.898 56.5614 289.789 56.8951 289.572 57.1881C289.358 57.4784 289.058 57.7063 288.673 57.8718C288.29 58.0373 287.847 58.1201 287.342 58.1201C286.642 58.1201 286.071 57.9708 285.629 57.6724C285.187 57.3713 284.915 56.9439 284.815 56.3905L285.991 56.2114C286.064 56.518 286.215 56.75 286.443 56.9073C286.671 57.062 286.968 57.1393 287.334 57.1393C287.733 57.1393 288.052 57.0565 288.29 56.891C288.529 56.7228 288.649 56.518 288.649 56.2765C288.649 56.0812 288.575 55.9171 288.429 55.7841C288.285 55.6512 288.064 55.5508 287.765 55.483L286.707 55.251C286.124 55.1181 285.693 54.9064 285.413 54.6162C285.136 54.3259 284.998 53.9582 284.998 53.5133C284.998 53.1443 285.101 52.8215 285.307 52.5447C285.514 52.268 285.798 52.0523 286.162 51.8977C286.526 51.7403 286.942 51.6616 287.411 51.6616C288.087 51.6616 288.619 51.8082 289.007 52.1012C289.395 52.3915 289.651 52.7808 289.776 53.2691ZM295.485 54.2824V57.9939H294.269V51.743H295.437V52.7604H295.514C295.658 52.4294 295.883 52.1636 296.189 51.9628C296.499 51.762 296.888 51.6616 297.357 51.6616C297.783 51.6616 298.156 51.7512 298.477 51.9302C298.797 52.1066 299.045 52.3698 299.221 52.7197C299.398 53.0697 299.486 53.5024 299.486 54.0179V57.9939H298.269V54.1644C298.269 53.7114 298.151 53.3573 297.915 53.1023C297.679 52.8445 297.355 52.7157 296.942 52.7157C296.66 52.7157 296.409 52.7767 296.189 52.8988C295.972 53.0209 295.8 53.1999 295.673 53.436C295.548 53.6693 295.485 53.9515 295.485 54.2824ZM303.812 58.1201C303.196 58.1201 302.665 57.9885 302.221 57.7253C301.778 57.4594 301.436 57.0864 301.195 56.6062C300.956 56.1233 300.837 55.5576 300.837 54.9092C300.837 54.2689 300.956 53.7046 301.195 53.2162C301.436 52.7279 301.773 52.3467 302.204 52.0727C302.638 51.7987 303.146 51.6616 303.726 51.6616C304.079 51.6616 304.421 51.72 304.752 51.8366C305.083 51.9533 305.38 52.1364 305.643 52.386C305.906 52.6356 306.114 52.9598 306.266 53.3587C306.418 53.7548 306.494 54.2363 306.494 54.8034V55.2347H301.525V54.3231H305.301C305.301 54.003 305.236 53.7195 305.106 53.4726C304.976 53.223 304.793 53.0263 304.556 52.8825C304.323 52.7387 304.049 52.6668 303.734 52.6668C303.393 52.6668 303.094 52.7509 302.839 52.9191C302.587 53.0846 302.391 53.3017 302.253 53.5703C302.117 53.8362 302.05 54.1251 302.05 54.4371V55.1493C302.05 55.5671 302.123 55.9225 302.269 56.2155C302.419 56.5085 302.626 56.7323 302.892 56.887C303.158 57.0389 303.469 57.1149 303.824 57.1149C304.055 57.1149 304.265 57.0823 304.455 57.0172C304.645 56.9494 304.809 56.849 304.947 56.7161C305.086 56.5831 305.191 56.419 305.265 56.2236L306.416 56.4312C306.324 56.7703 306.159 57.0674 305.92 57.3224C305.684 57.5747 305.387 57.7714 305.029 57.9125C304.673 58.0509 304.268 58.1201 303.812 58.1201ZM309.663 58.1323C309.267 58.1323 308.909 58.059 308.588 57.9125C308.268 57.7633 308.015 57.5476 307.827 57.2654C307.643 56.9833 307.551 56.6374 307.551 56.2277C307.551 55.875 307.618 55.5847 307.754 55.3568C307.89 55.1289 308.073 54.9485 308.304 54.8156C308.534 54.6826 308.792 54.5822 309.077 54.5144C309.362 54.4466 309.652 54.395 309.948 54.3598C310.322 54.3164 310.626 54.2811 310.859 54.254C311.093 54.2241 311.262 54.1766 311.368 54.1115C311.474 54.0464 311.527 53.9406 311.527 53.7941V53.7656C311.527 53.4102 311.426 53.1348 311.225 52.9395C311.027 52.7442 310.732 52.6465 310.338 52.6465C309.929 52.6465 309.606 52.7374 309.37 52.9191C309.136 53.0982 308.975 53.2976 308.885 53.5174L307.742 53.2569C307.878 52.8771 308.076 52.5705 308.336 52.3372C308.599 52.1012 308.902 51.9302 309.244 51.8244C309.585 51.7159 309.945 51.6616 310.322 51.6616C310.572 51.6616 310.836 51.6915 311.116 51.7512C311.398 51.8082 311.661 51.914 311.905 52.0686C312.152 52.2232 312.354 52.4444 312.511 52.7319C312.669 53.0168 312.747 53.3871 312.747 53.8429V57.9939H311.559V57.1393H311.51C311.432 57.2966 311.314 57.4513 311.156 57.6032C310.999 57.7551 310.797 57.8813 310.55 57.9817C310.303 58.0821 310.007 58.1323 309.663 58.1323ZM309.927 57.1556C310.264 57.1556 310.551 57.0891 310.79 56.9562C311.031 56.8232 311.215 56.6496 311.339 56.4353C311.467 56.2182 311.531 55.9862 311.531 55.7394V54.9336C311.487 54.977 311.403 55.0177 311.278 55.0557C311.156 55.0909 311.017 55.1221 310.859 55.1493C310.702 55.1737 310.549 55.1967 310.399 55.2185C310.25 55.2374 310.125 55.2537 310.025 55.2673C309.789 55.2971 309.573 55.3473 309.378 55.4179C309.185 55.4884 309.031 55.5901 308.914 55.7231C308.8 55.8533 308.743 56.0269 308.743 56.244C308.743 56.5451 308.854 56.773 309.077 56.9277C309.299 57.0796 309.583 57.1556 309.927 57.1556ZM314.368 57.9939V51.743H315.544V52.736H315.609C315.723 52.3996 315.924 52.1351 316.212 51.9424C316.502 51.7471 316.83 51.6494 317.197 51.6494C317.273 51.6494 317.362 51.6522 317.465 51.6576C317.571 51.663 317.654 51.6698 317.713 51.6779V52.8418C317.665 52.8283 317.578 52.8133 317.453 52.7971C317.328 52.7781 317.203 52.7686 317.079 52.7686C316.791 52.7686 316.535 52.8296 316.309 52.9517C316.087 53.0711 315.911 53.2379 315.78 53.4523C315.65 53.6639 315.585 53.9053 315.585 54.1766V57.9939H314.368ZM318.864 57.9939V49.6594H320.081V52.7564H320.154C320.225 52.6261 320.326 52.4756 320.459 52.3046C320.592 52.1337 320.777 51.9845 321.013 51.857C321.249 51.7268 321.561 51.6616 321.949 51.6616C322.453 51.6616 322.904 51.7892 323.3 52.0442C323.696 52.2992 324.007 52.6668 324.232 53.147C324.46 53.6272 324.574 54.2051 324.574 54.8807C324.574 55.5562 324.461 56.1355 324.236 56.6184C324.011 57.0986 323.701 57.4689 323.308 57.7294C322.915 57.9871 322.466 58.116 321.961 58.116C321.581 58.116 321.271 58.0522 321.029 57.9247C320.79 57.7972 320.603 57.648 320.467 57.4771C320.332 57.3061 320.227 57.1542 320.154 57.0213H320.052V57.9939H318.864ZM320.056 54.8685C320.056 55.308 320.12 55.6932 320.248 56.0242C320.375 56.3552 320.56 56.6143 320.801 56.8015C321.043 56.986 321.338 57.0782 321.688 57.0782C322.052 57.0782 322.356 56.9819 322.6 56.7893C322.844 56.594 323.029 56.3294 323.153 55.9957C323.281 55.662 323.345 55.2863 323.345 54.8685C323.345 54.4561 323.282 54.0858 323.157 53.7575C323.035 53.4292 322.851 53.1701 322.604 52.9802C322.36 52.7903 322.055 52.6953 321.688 52.6953C321.336 52.6953 321.037 52.7862 320.793 52.968C320.552 53.1498 320.368 53.4034 320.244 53.729C320.119 54.0546 320.056 54.4344 320.056 54.8685ZM326.497 60.338C326.315 60.338 326.149 60.323 326 60.2932C325.851 60.2661 325.74 60.2362 325.666 60.2037L325.959 59.2066C326.182 59.2663 326.38 59.2921 326.553 59.284C326.727 59.2758 326.88 59.2107 327.013 59.0886C327.149 58.9665 327.268 58.7671 327.371 58.4904L327.522 58.0753L325.235 51.743H326.537L328.12 56.594H328.185L329.768 51.743H331.075L328.499 58.8282C328.379 59.1537 328.227 59.4291 328.043 59.6543C327.858 59.8822 327.639 60.0531 327.384 60.167C327.129 60.281 326.833 60.338 326.497 60.338ZM332.628 58.0712C332.406 58.0712 332.215 57.9925 332.055 57.8352C331.894 57.6751 331.814 57.4825 331.814 57.2573C331.814 57.0348 331.894 56.8449 332.055 56.6876C332.215 56.5275 332.406 56.4475 332.628 56.4475C332.851 56.4475 333.042 56.5275 333.202 56.6876C333.362 56.8449 333.442 57.0348 333.442 57.2573C333.442 57.4065 333.404 57.5435 333.328 57.6683C333.255 57.7904 333.157 57.8881 333.035 57.9613C332.913 58.0346 332.778 58.0712 332.628 58.0712Z" fill="#0D1B2A"/>
</svg>
