<svg width="382" height="82" viewBox="0 0 382 82" fill="none" xmlns="http://www.w3.org/2000/svg">
<rect x="0.398438" y="0.767578" width="381.16" height="80.5459" rx="12.831" fill="#778DA9" fill-opacity="0.51"/>
<path d="M12.9045 20.6617C12.9045 16.6756 16.1359 13.4443 20.122 13.4443H59.0522C63.0383 13.4443 66.2696 16.6756 66.2696 20.6617V59.639C66.2696 63.6251 63.0383 66.8565 59.0522 66.8565H20.122C16.1359 66.8565 12.9045 63.6251 12.9045 59.639V20.6617Z" fill="#E4D4EB"/>
<path d="M86.5764 30.5596C86.5764 30.5686 86.5764 30.5776 86.5764 30.5865C86.5853 30.5865 86.5943 30.5865 86.6033 30.5865H91.8484V34.5405H80.9951C80.9951 33.9846 80.9951 33.4287 80.9951 32.8729C80.9951 32.317 80.9951 31.7611 80.9951 31.2052C80.9951 30.6403 80.9951 30.08 80.9951 29.5241C80.9951 28.9682 80.9951 28.4123 80.9951 27.8564C80.9951 27.2915 80.9951 26.7267 80.9951 26.1618C80.9951 25.588 80.9951 25.0187 80.9951 24.4538H86.5764C86.5764 24.9649 86.5764 25.4759 86.5764 25.987C86.5764 26.4891 86.5764 26.9957 86.5764 27.5067C86.5764 28.0178 86.5764 28.5288 86.5764 29.0399C86.5764 29.542 86.5764 30.0486 86.5764 30.5596ZM98.2076 34.944C97.6517 34.944 97.1138 34.9036 96.5937 34.823C96.0737 34.7423 95.5896 34.6212 95.1413 34.4598C94.693 34.2895 94.285 34.0788 93.9174 33.8277C93.5498 33.5767 93.236 33.2853 92.976 32.9536C92.716 32.6128 92.5142 32.2318 92.3708 31.8104C92.2273 31.38 92.1556 30.9048 92.1556 30.3848C92.1556 29.7751 92.2542 29.2282 92.4515 28.744C92.6577 28.2509 92.9446 27.8205 93.3122 27.4529C93.6888 27.0853 94.1281 26.7805 94.6302 26.5384C95.1323 26.2874 95.6837 26.1035 96.2844 25.987C96.8941 25.8615 97.5352 25.7987 98.2076 25.7987C99.0504 25.7987 99.8349 25.8973 100.561 26.0946C101.296 26.2829 101.937 26.5698 102.484 26.9553C103.04 27.3319 103.475 27.8071 103.789 28.3809C104.103 28.9547 104.26 29.6227 104.26 30.3848C104.26 31.1469 104.103 31.8149 103.789 32.3887C103.475 32.9536 103.04 33.4287 102.484 33.8143C101.937 34.1909 101.296 34.4733 100.561 34.6616C99.8349 34.8499 99.0504 34.944 98.2076 34.944ZM98.2211 31.38C98.777 31.38 99.1715 31.2724 99.4046 31.0572C99.6377 30.8421 99.7542 30.6089 99.7542 30.3579C99.7542 30.2413 99.7273 30.1248 99.6736 30.0082C99.6198 29.8917 99.5346 29.7841 99.418 29.6855C99.3015 29.5868 99.1446 29.5106 98.9473 29.4568C98.7501 29.3941 98.508 29.3627 98.2211 29.3627C97.9342 29.3627 97.6876 29.3941 97.4814 29.4568C97.2841 29.5106 97.1227 29.5868 96.9972 29.6855C96.8807 29.7841 96.7955 29.8917 96.7417 30.0082C96.6879 30.1248 96.661 30.2458 96.661 30.3714C96.661 30.4969 96.6879 30.6224 96.7417 30.7479C96.7955 30.8645 96.8851 30.9721 97.0107 31.0707C97.1362 31.1604 97.2976 31.2366 97.4948 31.2993C97.6921 31.3531 97.9342 31.38 98.2211 31.38ZM110.58 34.944C109.737 34.944 108.948 34.8499 108.213 34.6616C107.486 34.4733 106.845 34.1909 106.289 33.8143C105.742 33.4287 105.312 32.9491 104.998 32.3752C104.684 31.8014 104.528 31.1335 104.528 30.3714C104.528 29.9768 104.568 29.6092 104.649 29.2685C104.738 28.9278 104.864 28.614 105.025 28.3271C105.187 28.0312 105.379 27.7623 105.603 27.5202C105.837 27.2781 106.097 27.0629 106.384 26.8746C106.751 26.6325 107.155 26.4353 107.594 26.2829C108.033 26.1215 108.504 26.0004 109.006 25.9197C109.517 25.8391 110.042 25.7987 110.58 25.7987C111.611 25.7987 112.539 25.9422 113.364 26.2291C114.197 26.507 114.883 26.9284 115.421 27.4933C115.968 28.0581 116.309 28.7664 116.443 29.6182L112.126 30.3848C112.126 30.1427 112.05 29.9455 111.898 29.793C111.745 29.6406 111.552 29.533 111.319 29.4703C111.086 29.3985 110.84 29.3627 110.58 29.3627C110.293 29.3627 110.028 29.403 109.786 29.4837C109.553 29.5554 109.369 29.6675 109.235 29.8199C109.1 29.9634 109.033 30.1472 109.033 30.3714C109.033 30.5417 109.069 30.6896 109.141 30.8152C109.221 30.9407 109.333 31.0483 109.477 31.1379C109.62 31.2186 109.786 31.2814 109.974 31.3262C110.163 31.3621 110.364 31.38 110.58 31.38C110.831 31.38 111.073 31.3486 111.306 31.2859C111.548 31.2231 111.745 31.12 111.898 30.9766C112.05 30.8241 112.126 30.6269 112.126 30.3848C112.879 30.4745 113.601 30.5686 114.292 30.6672C114.982 30.7569 115.704 30.851 116.457 30.9497C116.349 31.8194 116.026 32.5546 115.488 33.1553C114.959 33.747 114.269 34.1953 113.417 34.5002C112.575 34.7961 111.629 34.944 110.58 34.944ZM117.444 26.6863C118.098 26.3905 118.806 26.1708 119.568 26.0273C120.34 25.8749 121.111 25.7987 121.882 25.7987C122.635 25.7987 123.361 25.8704 124.06 26.0139C124.76 26.1573 125.383 26.377 125.93 26.6729C126.486 26.9688 126.925 27.3364 127.248 27.7757C127.571 28.215 127.732 28.7306 127.732 29.3223C127.732 30.192 127.732 31.0617 127.732 31.9314C127.732 32.8011 127.732 33.6708 127.732 34.5405C127.418 34.5405 127.104 34.5405 126.791 34.5405C126.477 34.5405 126.163 34.5405 125.849 34.5405C125.535 34.5405 125.221 34.5405 124.908 34.5405C124.594 34.5405 124.28 34.5405 123.966 34.5405C123.652 34.5405 123.339 34.5405 123.025 34.5405C123.025 34.0653 123.025 33.5946 123.025 33.1284C123.025 32.6532 123.025 32.1825 123.025 31.7162C123.025 31.5549 122.971 31.4249 122.863 31.3262C122.756 31.2276 122.626 31.1604 122.473 31.1245C122.321 31.0797 122.169 31.0572 122.016 31.0572C121.675 31.0572 121.415 31.1245 121.236 31.259C121.066 31.3935 120.981 31.5459 120.981 31.7162C120.981 31.8866 121.07 32.0435 121.25 32.187C121.429 32.3214 121.684 32.3887 122.016 32.3887C122.178 32.3887 122.361 32.3573 122.568 32.2946C122.774 32.2318 122.931 32.0704 123.038 31.8104C122.85 32.2497 122.657 32.6891 122.46 33.1284C122.272 33.5677 122.083 34.0071 121.895 34.4464C121.572 34.6078 121.232 34.7198 120.873 34.7826C120.523 34.8543 120.174 34.8902 119.824 34.8902C119.403 34.8902 118.995 34.8319 118.6 34.7154C118.215 34.6078 117.865 34.4464 117.551 34.2312C117.246 34.016 117.004 33.747 116.825 33.4243C116.646 33.1015 116.556 32.7249 116.556 32.2946C116.556 32.0345 116.601 31.779 116.69 31.528C116.78 31.2769 116.915 31.0393 117.094 30.8152C117.273 30.591 117.497 30.3938 117.766 30.2234C118.044 30.0531 118.371 29.9231 118.748 29.8334C119.125 29.7348 119.555 29.6855 120.039 29.6855C120.353 29.6855 120.658 29.7124 120.954 29.7661C121.25 29.811 121.528 29.8827 121.788 29.9813C122.057 30.08 122.294 30.201 122.5 30.3445C122.716 30.4879 122.89 30.6493 123.025 30.8286C123.025 30.8107 123.025 30.7972 123.025 30.7883C123.025 30.7703 123.025 30.7569 123.025 30.7479C123.025 30.73 123.025 30.7165 123.025 30.7076C123.025 30.4296 122.953 30.192 122.81 29.9948C122.675 29.7886 122.487 29.6227 122.245 29.4972C122.012 29.3627 121.738 29.2641 121.424 29.2013C121.12 29.1385 120.797 29.1071 120.456 29.1071C119.927 29.1071 119.394 29.1744 118.856 29.3089C118.318 29.4434 117.847 29.6406 117.444 29.9006V26.6863ZM132.89 29.8603C132.998 29.4479 133.101 29.0399 133.199 28.6364C133.307 28.233 133.41 27.8295 133.509 27.426C133.616 27.0136 133.72 26.6056 133.818 26.2022H136.441V29.8603H132.89ZM128.277 31.0303C128.277 30.2593 128.277 29.4479 128.277 28.5961C128.277 27.7443 128.277 26.9374 128.277 26.1753L132.877 25.0725C132.877 25.5118 132.877 25.9601 132.877 26.4174C132.877 26.8746 132.877 27.3319 132.877 27.7892C132.877 28.1209 132.877 28.4526 132.877 28.7844C132.877 29.1161 132.877 29.4434 132.877 29.7661C132.877 29.7751 132.877 29.7796 132.877 29.7796C132.877 29.7796 132.877 29.7841 132.877 29.793C132.877 29.9634 132.913 30.1113 132.984 30.2369C133.065 30.3624 133.173 30.47 133.307 30.5596C133.451 30.6403 133.616 30.7031 133.805 30.7479C133.993 30.7928 134.204 30.8152 134.437 30.8152C134.697 30.8152 134.961 30.7748 135.23 30.6941C135.499 30.6134 135.741 30.5014 135.957 30.3579C136.181 30.2144 136.342 30.0486 136.441 29.8603V33.9488C136.055 34.2536 135.558 34.4778 134.948 34.6212C134.338 34.7736 133.728 34.8499 133.119 34.8499C132.195 34.8499 131.366 34.7019 130.631 34.406C129.904 34.1012 129.331 33.6663 128.909 33.1015C128.488 32.5277 128.277 31.8373 128.277 31.0303ZM136.984 34.5405C136.984 34.1281 136.984 33.7201 136.984 33.3167C136.984 32.9042 136.984 32.4963 136.984 32.0928C136.984 31.6804 136.984 31.2724 136.984 30.869C136.984 30.6986 136.984 30.5283 136.984 30.3579C136.984 30.1875 136.984 30.0172 136.984 29.8468C137.504 29.8468 138.02 29.8468 138.531 29.8468C139.051 29.8468 139.571 29.8468 140.091 29.8468C140.611 29.8468 141.126 29.8468 141.638 29.8468C141.638 30.3669 141.638 30.8869 141.638 31.4069C141.638 31.9269 141.638 32.4515 141.638 32.9804C141.638 33.5005 141.638 34.0205 141.638 34.5405H136.984ZM136.984 29.8468C136.984 29.2372 136.984 28.6275 136.984 28.0178C136.984 27.4081 136.984 26.8029 136.984 26.2022H141.638C141.638 26.4981 141.638 26.7939 141.638 27.0898C141.638 27.3857 141.638 27.6816 141.638 27.9774C141.638 28.2733 141.638 28.5692 141.638 28.8651C141.638 28.8651 141.633 28.8696 141.624 28.8785C140.853 29.0399 140.077 29.2013 139.297 29.3627C138.526 29.5241 137.755 29.6855 136.984 29.8468ZM148.09 34.944C147.534 34.944 146.996 34.9036 146.476 34.823C145.956 34.7423 145.472 34.6212 145.023 34.4598C144.575 34.2895 144.167 34.0788 143.799 33.8277C143.432 33.5767 143.118 33.2853 142.858 32.9536C142.598 32.6128 142.396 32.2318 142.253 31.8104C142.109 31.38 142.038 30.9048 142.038 30.3848C142.038 29.7751 142.136 29.2282 142.333 28.744C142.54 28.2509 142.827 27.8205 143.194 27.4529C143.571 27.0853 144.01 26.7805 144.512 26.5384C145.014 26.2874 145.566 26.1035 146.166 25.987C146.776 25.8615 147.417 25.7987 148.09 25.7987C148.932 25.7987 149.717 25.8973 150.443 26.0946C151.178 26.2829 151.819 26.5698 152.366 26.9553C152.922 27.3319 153.357 27.8071 153.671 28.3809C153.985 28.9547 154.142 29.6227 154.142 30.3848C154.142 31.1469 153.985 31.8149 153.671 32.3887C153.357 32.9536 152.922 33.4287 152.366 33.8143C151.819 34.1909 151.178 34.4733 150.443 34.6616C149.717 34.8499 148.932 34.944 148.09 34.944ZM148.103 31.38C148.659 31.38 149.053 31.2724 149.287 31.0572C149.52 30.8421 149.636 30.6089 149.636 30.3579C149.636 30.2413 149.609 30.1248 149.556 30.0082C149.502 29.8917 149.417 29.7841 149.3 29.6855C149.183 29.5868 149.027 29.5106 148.829 29.4568C148.632 29.3941 148.39 29.3627 148.103 29.3627C147.816 29.3627 147.57 29.3941 147.363 29.4568C147.166 29.5106 147.005 29.5868 146.879 29.6855C146.763 29.7841 146.677 29.8917 146.624 30.0082C146.57 30.1248 146.543 30.2458 146.543 30.3714C146.543 30.4969 146.57 30.6224 146.624 30.7479C146.677 30.8645 146.767 30.9721 146.893 31.0707C147.018 31.1604 147.18 31.2366 147.377 31.2993C147.574 31.3531 147.816 31.38 148.103 31.38ZM160.623 34.5405C160.623 33.8412 160.623 33.1329 160.623 32.4156C160.623 31.6983 160.623 30.99 160.623 30.2907C160.623 30.0306 160.556 29.8468 160.421 29.7392C160.296 29.6317 160.143 29.5734 159.964 29.5644C159.785 29.5554 159.619 29.5779 159.466 29.6317C159.323 29.6855 159.233 29.7392 159.197 29.793L160.273 26.3367C160.596 26.1932 160.941 26.0856 161.309 26.0139C161.676 25.9422 162.04 25.9063 162.398 25.9063C162.9 25.9063 163.367 25.987 163.797 26.1484C164.236 26.3098 164.59 26.5653 164.859 26.915C165.137 27.2646 165.276 27.7309 165.276 28.3137V34.5405H160.623ZM154.544 34.5405C154.544 33.9667 154.544 33.3929 154.544 32.8191C154.544 32.2363 154.544 31.658 154.544 31.0841C154.544 30.5014 154.544 29.9231 154.544 29.3492C154.544 28.8202 154.544 28.2957 154.544 27.7757C154.544 27.2467 154.544 26.7222 154.544 26.2022C155.064 26.2022 155.58 26.2022 156.091 26.2022C156.611 26.2022 157.131 26.2022 157.651 26.2022C158.171 26.2022 158.686 26.2022 159.197 26.2022C159.197 26.5249 159.197 26.8343 159.197 27.1302C159.197 27.4171 159.197 27.7085 159.197 28.0043C159.197 28.2912 159.197 28.5826 159.197 28.8785C159.197 29.1654 159.197 29.4703 159.197 29.793C159.197 29.9096 159.197 30.0262 159.197 30.1427C159.197 30.2503 159.197 30.3669 159.197 30.4924C159.197 31.1559 159.197 31.8373 159.197 32.5366C159.197 33.236 159.197 33.9039 159.197 34.5405H154.544ZM176.508 24.4538C177.35 24.4538 178.095 24.548 178.74 24.7362C179.395 24.9156 179.955 25.1666 180.421 25.4894C180.888 25.8122 181.269 26.1887 181.564 26.6191C181.86 27.0405 182.08 27.4933 182.223 27.9774C182.367 28.4616 182.439 28.9547 182.439 29.4568C182.439 30.0934 182.322 30.7165 182.089 31.3262C181.865 31.9269 181.511 32.4694 181.026 32.9536C180.551 33.4377 179.937 33.8232 179.184 34.1102C178.44 34.3971 177.548 34.5405 176.508 34.5405H168.492C168.492 33.9667 168.492 33.3974 168.492 32.8325C168.492 32.2587 168.492 31.6893 168.492 31.1245C168.492 30.5507 168.492 29.9813 168.492 29.4165C168.492 28.8427 168.492 28.2688 168.492 27.695C168.492 27.1571 168.492 26.6191 168.492 26.0811C168.492 25.5342 168.492 24.9918 168.492 24.4538H176.508ZM175.432 28.3271H173.831C173.831 28.3271 173.827 28.3271 173.818 28.3271C173.818 28.3271 173.818 28.3316 173.818 28.3406C173.818 28.3406 173.818 28.345 173.818 28.354V30.6403C173.818 30.6493 173.818 30.6583 173.818 30.6672C173.827 30.6672 173.831 30.6672 173.831 30.6672H175.459C175.656 30.6672 175.831 30.6358 175.983 30.5731C176.145 30.5103 176.279 30.4251 176.387 30.3176C176.494 30.21 176.575 30.0844 176.629 29.941C176.691 29.7975 176.723 29.6496 176.723 29.4972C176.723 29.282 176.669 29.0847 176.561 28.9054C176.463 28.7261 176.319 28.5871 176.131 28.4885C175.943 28.3809 175.71 28.3271 175.432 28.3271ZM188.792 31.5011C189.267 31.5011 189.634 31.4159 189.895 31.2455C190.155 31.0752 190.289 30.8421 190.298 30.5462L194.454 31.9045C194.292 32.4694 193.947 32.9849 193.418 33.4512C192.898 33.9084 192.239 34.2715 191.441 34.5405C190.643 34.8095 189.751 34.944 188.765 34.944C187.922 34.944 187.133 34.8499 186.398 34.6616C185.672 34.4733 185.03 34.1909 184.475 33.8143C183.928 33.4287 183.497 32.9491 183.183 32.3752C182.87 31.8014 182.713 31.1335 182.713 30.3714C182.713 29.6092 182.87 28.9413 183.183 28.3675C183.497 27.7936 183.928 27.3184 184.475 26.9419C185.03 26.5563 185.676 26.2694 186.411 26.0811C187.146 25.8928 187.931 25.7987 188.765 25.7987C189.617 25.7987 190.397 25.8928 191.105 26.0811C191.822 26.2694 192.436 26.5608 192.947 26.9553C193.467 27.3409 193.866 27.834 194.144 28.4347C194.431 29.0265 194.575 29.7303 194.575 30.5462H187.245C187.245 30.5462 187.241 30.5462 187.232 30.5462C187.232 30.5462 187.232 30.5507 187.232 30.5596C187.232 30.6941 187.267 30.8196 187.339 30.9362C187.411 31.0528 187.51 31.1559 187.635 31.2455C187.77 31.3262 187.931 31.389 188.119 31.4338C188.316 31.4786 188.541 31.5011 188.792 31.5011ZM188.765 29.2013C188.325 29.2013 187.962 29.282 187.675 29.4434C187.389 29.5958 187.245 29.8155 187.245 30.1024C187.245 30.1113 187.245 30.1203 187.245 30.1293C187.254 30.1293 187.259 30.1293 187.259 30.1293H190.258C190.267 30.1293 190.271 30.1293 190.271 30.1293C190.271 30.1203 190.271 30.1113 190.271 30.1024C190.271 29.9589 190.231 29.8334 190.15 29.7258C190.078 29.6092 189.975 29.5151 189.841 29.4434C189.706 29.3627 189.545 29.3044 189.357 29.2685C189.177 29.2237 188.98 29.2013 188.765 29.2013ZM199.583 29.8603C199.691 29.4479 199.794 29.0399 199.893 28.6364C200 28.233 200.103 27.8295 200.202 27.426C200.31 27.0136 200.413 26.6056 200.511 26.2022H203.134V29.8603H199.583ZM194.97 31.0303C194.97 30.2593 194.97 29.4479 194.97 28.5961C194.97 27.7443 194.97 26.9374 194.97 26.1753L199.57 25.0725C199.57 25.5118 199.57 25.9601 199.57 26.4174C199.57 26.8746 199.57 27.3319 199.57 27.7892C199.57 28.1209 199.57 28.4526 199.57 28.7844C199.57 29.1161 199.57 29.4434 199.57 29.7661C199.57 29.7751 199.57 29.7796 199.57 29.7796C199.57 29.7796 199.57 29.7841 199.57 29.793C199.57 29.9634 199.606 30.1113 199.677 30.2369C199.758 30.3624 199.866 30.47 200 30.5596C200.144 30.6403 200.31 30.7031 200.498 30.7479C200.686 30.7928 200.897 30.8152 201.13 30.8152C201.39 30.8152 201.654 30.7748 201.923 30.6941C202.192 30.6134 202.435 30.5014 202.65 30.3579C202.874 30.2144 203.035 30.0486 203.134 29.8603V33.9488C202.748 34.2536 202.251 34.4778 201.641 34.6212C201.031 34.7736 200.422 34.8499 199.812 34.8499C198.888 34.8499 198.059 34.7019 197.324 34.406C196.598 34.1012 196.024 33.6663 195.602 33.1015C195.181 32.5277 194.97 31.8373 194.97 31.0303ZM209.622 31.5011C210.097 31.5011 210.465 31.4159 210.725 31.2455C210.985 31.0752 211.119 30.8421 211.128 30.5462L215.284 31.9045C215.122 32.4694 214.777 32.9849 214.248 33.4512C213.728 33.9084 213.069 34.2715 212.271 34.5405C211.473 34.8095 210.581 34.944 209.595 34.944C208.752 34.944 207.963 34.8499 207.228 34.6616C206.502 34.4733 205.861 34.1909 205.305 33.8143C204.758 33.4287 204.327 32.9491 204.014 32.3752C203.7 31.8014 203.543 31.1335 203.543 30.3714C203.543 29.6092 203.7 28.9413 204.014 28.3675C204.327 27.7936 204.758 27.3184 205.305 26.9419C205.861 26.5563 206.506 26.2694 207.241 26.0811C207.977 25.8928 208.761 25.7987 209.595 25.7987C210.447 25.7987 211.227 25.8928 211.935 26.0811C212.652 26.2694 213.266 26.5608 213.778 26.9553C214.298 27.3409 214.697 27.834 214.975 28.4347C215.261 29.0265 215.405 29.7303 215.405 30.5462H208.075C208.075 30.5462 208.071 30.5462 208.062 30.5462C208.062 30.5462 208.062 30.5507 208.062 30.5596C208.062 30.6941 208.098 30.8196 208.169 30.9362C208.241 31.0528 208.34 31.1559 208.465 31.2455C208.6 31.3262 208.761 31.389 208.949 31.4338C209.147 31.4786 209.371 31.5011 209.622 31.5011ZM209.595 29.2013C209.156 29.2013 208.792 29.282 208.506 29.4434C208.219 29.5958 208.075 29.8155 208.075 30.1024C208.075 30.1113 208.075 30.1203 208.075 30.1293C208.084 30.1293 208.089 30.1293 208.089 30.1293H211.088C211.097 30.1293 211.101 30.1293 211.101 30.1293C211.101 30.1203 211.101 30.1113 211.101 30.1024C211.101 29.9589 211.061 29.8334 210.98 29.7258C210.908 29.6092 210.805 29.5151 210.671 29.4434C210.536 29.3627 210.375 29.3044 210.187 29.2685C210.007 29.2237 209.81 29.2013 209.595 29.2013ZM221.704 34.944C220.861 34.944 220.072 34.8499 219.337 34.6616C218.611 34.4733 217.97 34.1909 217.414 33.8143C216.867 33.4287 216.437 32.9491 216.123 32.3752C215.809 31.8014 215.652 31.1335 215.652 30.3714C215.652 29.9768 215.693 29.6092 215.773 29.2685C215.863 28.9278 215.988 28.614 216.15 28.3271C216.311 28.0312 216.504 27.7623 216.728 27.5202C216.961 27.2781 217.221 27.0629 217.508 26.8746C217.876 26.6325 218.279 26.4353 218.719 26.2829C219.158 26.1215 219.629 26.0004 220.131 25.9197C220.642 25.8391 221.166 25.7987 221.704 25.7987C222.735 25.7987 223.663 25.9422 224.488 26.2291C225.322 26.507 226.008 26.9284 226.546 27.4933C227.093 28.0581 227.433 28.7664 227.568 29.6182L223.251 30.3848C223.251 30.1427 223.175 29.9455 223.022 29.793C222.87 29.6406 222.677 29.533 222.444 29.4703C222.211 29.3985 221.964 29.3627 221.704 29.3627C221.417 29.3627 221.153 29.403 220.911 29.4837C220.678 29.5554 220.494 29.6675 220.359 29.8199C220.225 29.9634 220.158 30.1472 220.158 30.3714C220.158 30.5417 220.193 30.6896 220.265 30.8152C220.346 30.9407 220.458 31.0483 220.601 31.1379C220.745 31.2186 220.911 31.2814 221.099 31.3262C221.287 31.3621 221.489 31.38 221.704 31.38C221.955 31.38 222.197 31.3486 222.43 31.2859C222.673 31.2231 222.87 31.12 223.022 30.9766C223.175 30.8241 223.251 30.6269 223.251 30.3848C224.004 30.4745 224.726 30.5686 225.416 30.6672C226.107 30.7569 226.828 30.851 227.581 30.9497C227.474 31.8194 227.151 32.5546 226.613 33.1553C226.084 33.747 225.394 34.1953 224.542 34.5002C223.699 34.7961 222.753 34.944 221.704 34.944ZM232.667 29.8603C232.775 29.4479 232.878 29.0399 232.977 28.6364C233.084 28.233 233.187 27.8295 233.286 27.426C233.393 27.0136 233.497 26.6056 233.595 26.2022H236.218V29.8603H232.667ZM228.054 31.0303C228.054 30.2593 228.054 29.4479 228.054 28.5961C228.054 27.7443 228.054 26.9374 228.054 26.1753L232.654 25.0725C232.654 25.5118 232.654 25.9601 232.654 26.4174C232.654 26.8746 232.654 27.3319 232.654 27.7892C232.654 28.1209 232.654 28.4526 232.654 28.7844C232.654 29.1161 232.654 29.4434 232.654 29.7661C232.654 29.7751 232.654 29.7796 232.654 29.7796C232.654 29.7796 232.654 29.7841 232.654 29.793C232.654 29.9634 232.69 30.1113 232.761 30.2369C232.842 30.3624 232.95 30.47 233.084 30.5596C233.228 30.6403 233.393 30.7031 233.582 30.7479C233.77 30.7928 233.981 30.8152 234.214 30.8152C234.474 30.8152 234.738 30.7748 235.007 30.6941C235.276 30.6134 235.518 30.5014 235.734 30.3579C235.958 30.2144 236.119 30.0486 236.218 29.8603V33.9488C235.832 34.2536 235.335 34.4778 234.725 34.6212C234.115 34.7736 233.506 34.8499 232.896 34.8499C231.972 34.8499 231.143 34.7019 230.408 34.406C229.682 34.1012 229.108 33.6663 228.686 33.1015C228.265 32.5277 228.054 31.8373 228.054 31.0303ZM236.761 34.5405C236.761 34.1281 236.761 33.7201 236.761 33.3167C236.761 32.9042 236.761 32.4963 236.761 32.0928C236.761 31.6804 236.761 31.2724 236.761 30.869C236.761 30.6986 236.761 30.5283 236.761 30.3579C236.761 30.1875 236.761 30.0172 236.761 29.8468C237.281 29.8468 237.797 29.8468 238.308 29.8468C238.828 29.8468 239.348 29.8468 239.868 29.8468C240.388 29.8468 240.904 29.8468 241.415 29.8468C241.415 30.3669 241.415 30.8869 241.415 31.4069C241.415 31.9269 241.415 32.4515 241.415 32.9804C241.415 33.5005 241.415 34.0205 241.415 34.5405H236.761ZM236.761 29.8468C236.761 29.2372 236.761 28.6275 236.761 28.0178C236.761 27.4081 236.761 26.8029 236.761 26.2022H241.415C241.415 26.4981 241.415 26.7939 241.415 27.0898C241.415 27.3857 241.415 27.6816 241.415 27.9774C241.415 28.2733 241.415 28.5692 241.415 28.8651C241.415 28.8651 241.41 28.8696 241.401 28.8785C240.63 29.0399 239.855 29.2013 239.075 29.3627C238.303 29.5241 237.532 29.6855 236.761 29.8468ZM247.867 34.944C247.311 34.944 246.773 34.9036 246.253 34.823C245.733 34.7423 245.249 34.6212 244.8 34.4598C244.352 34.2895 243.944 34.0788 243.576 33.8277C243.209 33.5767 242.895 33.2853 242.635 32.9536C242.375 32.6128 242.173 32.2318 242.03 31.8104C241.886 31.38 241.815 30.9048 241.815 30.3848C241.815 29.7751 241.913 29.2282 242.111 28.744C242.317 28.2509 242.604 27.8205 242.971 27.4529C243.348 27.0853 243.787 26.7805 244.289 26.5384C244.791 26.2874 245.343 26.1035 245.943 25.987C246.553 25.8615 247.194 25.7987 247.867 25.7987C248.709 25.7987 249.494 25.8973 250.22 26.0946C250.955 26.2829 251.597 26.5698 252.143 26.9553C252.699 27.3319 253.134 27.8071 253.448 28.3809C253.762 28.9547 253.919 29.6227 253.919 30.3848C253.919 31.1469 253.762 31.8149 253.448 32.3887C253.134 32.9536 252.699 33.4287 252.143 33.8143C251.597 34.1909 250.955 34.4733 250.22 34.6616C249.494 34.8499 248.709 34.944 247.867 34.944ZM247.88 31.38C248.436 31.38 248.831 31.2724 249.064 31.0572C249.297 30.8421 249.413 30.6089 249.413 30.3579C249.413 30.2413 249.386 30.1248 249.333 30.0082C249.279 29.8917 249.194 29.7841 249.077 29.6855C248.961 29.5868 248.804 29.5106 248.606 29.4568C248.409 29.3941 248.167 29.3627 247.88 29.3627C247.593 29.3627 247.347 29.3941 247.14 29.4568C246.943 29.5106 246.782 29.5868 246.656 29.6855C246.54 29.7841 246.455 29.8917 246.401 30.0082C246.347 30.1248 246.32 30.2458 246.32 30.3714C246.32 30.4969 246.347 30.6224 246.401 30.7479C246.455 30.8645 246.544 30.9721 246.67 31.0707C246.795 31.1604 246.957 31.2366 247.154 31.2993C247.351 31.3531 247.593 31.38 247.88 31.38ZM260.4 34.5405C260.4 33.8412 260.4 33.1329 260.4 32.4156C260.4 31.6983 260.4 30.99 260.4 30.2907C260.4 30.0306 260.333 29.8468 260.198 29.7392C260.073 29.6317 259.92 29.5734 259.741 29.5644C259.562 29.5554 259.396 29.5779 259.243 29.6317C259.1 29.6855 259.01 29.7392 258.974 29.793L260.05 26.3367C260.373 26.1932 260.718 26.0856 261.086 26.0139C261.454 25.9422 261.817 25.9063 262.175 25.9063C262.677 25.9063 263.144 25.987 263.574 26.1484C264.013 26.3098 264.367 26.5653 264.636 26.915C264.914 27.2646 265.053 27.7309 265.053 28.3137V34.5405H260.4ZM254.321 34.5405C254.321 33.9667 254.321 33.3929 254.321 32.8191C254.321 32.2363 254.321 31.658 254.321 31.0841C254.321 30.5014 254.321 29.9231 254.321 29.3492C254.321 28.8202 254.321 28.2957 254.321 27.7757C254.321 27.2467 254.321 26.7222 254.321 26.2022C254.841 26.2022 255.357 26.2022 255.868 26.2022C256.388 26.2022 256.908 26.2022 257.428 26.2022C257.948 26.2022 258.463 26.2022 258.974 26.2022C258.974 26.5249 258.974 26.8343 258.974 27.1302C258.974 27.4171 258.974 27.7085 258.974 28.0043C258.974 28.2912 258.974 28.5826 258.974 28.8785C258.974 29.1654 258.974 29.4703 258.974 29.793C258.974 29.9096 258.974 30.0262 258.974 30.1427C258.974 30.2503 258.974 30.3669 258.974 30.4924C258.974 31.1559 258.974 31.8373 258.974 32.5366C258.974 33.236 258.974 33.9039 258.974 34.5405H254.321Z" fill="#0D1B2A"/>
<path d="M81.6417 58.5405V50.206H84.6125C85.2582 50.206 85.794 50.3173 86.22 50.5398C86.6487 50.7622 86.9688 51.0702 87.1804 51.4635C87.392 51.8542 87.4978 52.3059 87.4978 52.8187C87.4978 53.3288 87.3907 53.7778 87.1763 54.1657C86.9647 54.551 86.6446 54.8508 86.2159 55.0651C85.79 55.2794 85.2541 55.3866 84.6084 55.3866H82.358V54.3041H84.4945C84.9015 54.3041 85.2324 54.2458 85.4875 54.1291C85.7452 54.0125 85.9338 53.8429 86.0531 53.6204C86.1725 53.3979 86.2322 53.1307 86.2322 52.8187C86.2322 52.504 86.1712 52.2313 86.0491 52.0007C85.9297 51.7701 85.7411 51.5938 85.4834 51.4717C85.2284 51.3469 84.8933 51.2845 84.4782 51.2845H82.8992V58.5405H81.6417ZM85.7561 54.7802L87.8153 58.5405H86.3828L84.3643 54.7802H85.7561ZM91.546 58.6667C90.9302 58.6667 90.3998 58.5351 89.9548 58.2719C89.5126 58.0061 89.1708 57.633 88.9293 57.1528C88.6906 56.6699 88.5712 56.1042 88.5712 55.4558C88.5712 54.8155 88.6906 54.2512 88.9293 53.7629C89.1708 53.2745 89.5072 52.8933 89.9386 52.6193C90.3726 52.3453 90.88 52.2083 91.4606 52.2083C91.8133 52.2083 92.1551 52.2666 92.4861 52.3833C92.8171 52.4999 93.1142 52.6831 93.3773 52.9327C93.6405 53.1823 93.8481 53.5065 94 53.9053C94.1519 54.3014 94.2279 54.783 94.2279 55.35V55.7814H89.2589V54.8698H93.0355C93.0355 54.5496 92.9704 54.2661 92.8402 54.0192C92.7099 53.7696 92.5268 53.5729 92.2908 53.4291C92.0575 53.2854 91.7834 53.2135 91.4687 53.2135C91.1269 53.2135 90.8284 53.2976 90.5734 53.4658C90.3211 53.6313 90.1258 53.8483 89.9874 54.1169C89.8517 54.3828 89.7839 54.6717 89.7839 54.9837V55.6959C89.7839 56.1137 89.8572 56.4691 90.0037 56.7621C90.1529 57.0551 90.3604 57.279 90.6263 57.4336C90.8922 57.5855 91.2028 57.6615 91.5583 57.6615C91.7889 57.6615 91.9991 57.6289 92.189 57.5638C92.3789 57.496 92.5431 57.3956 92.6815 57.2627C92.8198 57.1297 92.9256 56.9656 92.9989 56.7703L94.1506 56.9778C94.0583 57.3169 93.8928 57.614 93.6541 57.869C93.418 58.1214 93.121 58.3181 92.7628 58.4591C92.4074 58.5975 92.0018 58.6667 91.546 58.6667ZM97.3971 58.6789C97.001 58.6789 96.6428 58.6056 96.3227 58.4591C96.0026 58.3099 95.7489 58.0942 95.5617 57.8121C95.3772 57.5299 95.285 57.184 95.285 56.7743C95.285 56.4216 95.3528 56.1313 95.4884 55.9034C95.6241 55.6756 95.8072 55.4951 96.0378 55.3622C96.2684 55.2293 96.5262 55.1289 96.811 55.061C97.0959 54.9932 97.3862 54.9417 97.6819 54.9064C98.0563 54.863 98.3602 54.8277 98.5935 54.8006C98.8268 54.7707 98.9964 54.7233 99.1022 54.6582C99.208 54.593 99.2609 54.4872 99.2609 54.3407V54.3122C99.2609 53.9568 99.1605 53.6815 98.9598 53.4861C98.7617 53.2908 98.466 53.1931 98.0726 53.1931C97.6629 53.1931 97.3401 53.284 97.1041 53.4658C96.8707 53.6448 96.7093 53.8442 96.6198 54.064L95.4762 53.8035C95.6119 53.4237 95.8099 53.1171 96.0704 52.8838C96.3336 52.6478 96.6361 52.4769 96.9779 52.3711C97.3197 52.2625 97.6792 52.2083 98.0563 52.2083C98.3059 52.2083 98.5705 52.2381 98.8499 52.2978C99.1321 52.3548 99.3952 52.4606 99.6394 52.6152C99.8863 52.7699 100.088 52.991 100.246 53.2786C100.403 53.5634 100.482 53.9338 100.482 54.3896V58.5405H99.2935V57.6859H99.2447C99.166 57.8433 99.048 57.9979 98.8906 58.1498C98.7332 58.3018 98.5311 58.4279 98.2842 58.5283C98.0373 58.6287 97.7416 58.6789 97.3971 58.6789ZM97.6616 57.7022C97.998 57.7022 98.2856 57.6357 98.5243 57.5028C98.7658 57.3698 98.9489 57.1962 99.0737 56.9819C99.2012 56.7648 99.265 56.5329 99.265 56.286V55.4802C99.2216 55.5236 99.1375 55.5643 99.0127 55.6023C98.8906 55.6376 98.7509 55.6688 98.5935 55.6959C98.4362 55.7203 98.2829 55.7434 98.1337 55.7651C97.9844 55.7841 97.8596 55.8004 97.7593 55.8139C97.5232 55.8438 97.3075 55.894 97.1122 55.9645C96.9196 56.035 96.7649 56.1368 96.6483 56.2697C96.5343 56.3999 96.4773 56.5736 96.4773 56.7906C96.4773 57.0918 96.5886 57.3197 96.811 57.4743C97.0335 57.6262 97.317 57.7022 97.6616 57.7022ZM103.319 50.206V58.5405H102.103V50.206H103.319ZM108.639 54.4913V55.5453H104.944V54.4913H108.639ZM113.179 52.2897V53.2664H109.764V52.2897H113.179ZM110.68 50.7921H111.897V56.7052C111.897 56.9412 111.932 57.1189 112.003 57.2383C112.073 57.3549 112.164 57.435 112.275 57.4784C112.389 57.5191 112.513 57.5394 112.646 57.5394C112.743 57.5394 112.829 57.5326 112.902 57.5191C112.975 57.5055 113.032 57.4946 113.073 57.4865L113.293 58.4917C113.222 58.5188 113.122 58.546 112.992 58.5731C112.861 58.6029 112.699 58.6192 112.503 58.6219C112.183 58.6273 111.885 58.5704 111.608 58.451C111.331 58.3316 111.107 58.1471 110.937 57.8975C110.766 57.6479 110.68 57.3346 110.68 56.9575V50.7921ZM114.525 58.5405V52.2897H115.742V58.5405H114.525ZM115.139 51.3252C114.928 51.3252 114.746 51.2546 114.594 51.1136C114.445 50.9698 114.37 50.7988 114.37 50.6008C114.37 50.4 114.445 50.2291 114.594 50.088C114.746 49.9442 114.928 49.8723 115.139 49.8723C115.351 49.8723 115.531 49.9442 115.681 50.088C115.833 50.2291 115.909 50.4 115.909 50.6008C115.909 50.7988 115.833 50.9698 115.681 51.1136C115.531 51.2546 115.351 51.3252 115.139 51.3252ZM117.379 58.5405V52.2897H118.547V53.3071H118.624C118.754 52.9625 118.967 52.6939 119.263 52.5013C119.559 52.3059 119.913 52.2083 120.325 52.2083C120.743 52.2083 121.093 52.3059 121.375 52.5013C121.66 52.6966 121.87 52.9652 122.006 53.3071H122.071C122.22 52.9734 122.457 52.7075 122.783 52.5094C123.109 52.3087 123.497 52.2083 123.947 52.2083C124.514 52.2083 124.977 52.386 125.335 52.7414C125.695 53.0968 125.876 53.6326 125.876 54.3489V58.5405H124.659V54.4628C124.659 54.0396 124.544 53.733 124.313 53.5431C124.083 53.3532 123.807 53.2582 123.487 53.2582C123.091 53.2582 122.783 53.3803 122.563 53.6245C122.344 53.8659 122.234 54.1766 122.234 54.5564V58.5405H121.021V54.3855C121.021 54.0464 120.915 53.7737 120.703 53.5675C120.492 53.3613 120.216 53.2582 119.877 53.2582C119.647 53.2582 119.434 53.3193 119.238 53.4414C119.046 53.5607 118.89 53.7276 118.77 53.9419C118.654 54.1562 118.595 54.4045 118.595 54.6866V58.5405H117.379ZM130.201 58.6667C129.585 58.6667 129.055 58.5351 128.61 58.2719C128.167 58.0061 127.826 57.633 127.584 57.1528C127.345 56.6699 127.226 56.1042 127.226 55.4558C127.226 54.8155 127.345 54.2512 127.584 53.7629C127.826 53.2745 128.162 52.8933 128.593 52.6193C129.027 52.3453 129.535 52.2083 130.115 52.2083C130.468 52.2083 130.81 52.2666 131.141 52.3833C131.472 52.4999 131.769 52.6831 132.032 52.9327C132.295 53.1823 132.503 53.5065 132.655 53.9053C132.807 54.3014 132.883 54.783 132.883 55.35V55.7814H127.914V54.8698H131.69C131.69 54.5496 131.625 54.2661 131.495 54.0192C131.365 53.7696 131.182 53.5729 130.946 53.4291C130.712 53.2854 130.438 53.2135 130.124 53.2135C129.782 53.2135 129.483 53.2976 129.228 53.4658C128.976 53.6313 128.781 53.8483 128.642 54.1169C128.507 54.3828 128.439 54.6717 128.439 54.9837V55.6959C128.439 56.1137 128.512 56.4691 128.658 56.7621C128.808 57.0551 129.015 57.279 129.281 57.4336C129.547 57.5855 129.858 57.6615 130.213 57.6615C130.444 57.6615 130.654 57.6289 130.844 57.5638C131.034 57.496 131.198 57.3956 131.336 57.2627C131.475 57.1297 131.58 56.9656 131.654 56.7703L132.805 56.9778C132.713 57.3169 132.548 57.614 132.309 57.869C132.073 58.1214 131.776 58.3181 131.418 58.4591C131.062 58.5975 130.657 58.6667 130.201 58.6667ZM143.004 52.8391C142.925 52.5922 142.819 52.3711 142.686 52.1757C142.556 51.9777 142.4 51.8095 142.218 51.6711C142.037 51.53 141.829 51.4229 141.596 51.3496C141.365 51.2763 141.111 51.2397 140.835 51.2397C140.365 51.2397 139.942 51.3605 139.565 51.6019C139.188 51.8434 138.889 52.1974 138.67 52.6641C138.453 53.128 138.344 53.6964 138.344 54.3692C138.344 55.0448 138.454 55.6159 138.674 56.0825C138.893 56.5492 139.195 56.9032 139.577 57.1447C139.96 57.3861 140.395 57.5069 140.883 57.5069C141.337 57.5069 141.731 57.4146 142.068 57.2301C142.407 57.0456 142.669 56.7852 142.853 56.4488C143.04 56.1096 143.134 55.7108 143.134 55.2523L143.46 55.3134H141.075V54.2756H144.351V55.2238C144.351 55.9238 144.202 56.5315 143.903 57.047C143.607 57.5598 143.198 57.9559 142.674 58.2353C142.153 58.5148 141.556 58.6545 140.883 58.6545C140.129 58.6545 139.467 58.4808 138.898 58.1336C138.33 57.7863 137.888 57.2939 137.571 56.6563C137.253 56.016 137.095 55.2564 137.095 54.3774C137.095 53.7127 137.187 53.1158 137.371 52.5867C137.556 52.0577 137.815 51.6087 138.149 51.2397C138.485 50.868 138.88 50.5845 139.333 50.3892C139.789 50.1911 140.287 50.0921 140.826 50.0921C141.277 50.0921 141.696 50.1586 142.084 50.2915C142.475 50.4244 142.822 50.613 143.126 50.8572C143.432 51.1014 143.686 51.3917 143.887 51.7281C144.088 52.0618 144.223 52.4321 144.294 52.8391H143.004ZM145.947 58.5405V50.206H148.918C149.566 50.206 150.103 50.3241 150.529 50.5601C150.955 50.7961 151.274 51.119 151.486 51.5287C151.697 51.9356 151.803 52.3941 151.803 52.9042C151.803 53.4169 151.696 53.8782 151.482 54.2878C151.27 54.6948 150.95 55.0176 150.521 55.2564C150.095 55.4924 149.559 55.6104 148.914 55.6104H146.871V54.5442H148.8C149.209 54.5442 149.542 54.4737 149.797 54.3326C150.052 54.1888 150.239 53.9935 150.358 53.7466C150.478 53.4997 150.537 53.2189 150.537 52.9042C150.537 52.5895 150.478 52.31 150.358 52.0658C150.239 51.8217 150.051 51.6304 149.793 51.492C149.538 51.3537 149.201 51.2845 148.784 51.2845H147.205V58.5405H145.947ZM157.823 52.3955C157.78 52.0102 157.601 51.7118 157.286 51.5002C156.971 51.2858 156.575 51.1787 156.098 51.1787C155.756 51.1787 155.46 51.2329 155.21 51.3415C154.961 51.4473 154.767 51.5938 154.628 51.781C154.493 51.9655 154.425 52.1757 154.425 52.4118C154.425 52.6098 154.471 52.7807 154.563 52.9245C154.658 53.0683 154.782 53.189 154.934 53.2867C155.088 53.3817 155.254 53.4617 155.43 53.5268C155.606 53.5892 155.776 53.6408 155.939 53.6815L156.753 53.8931C157.019 53.9582 157.291 54.0464 157.571 54.1576C157.85 54.2688 158.109 54.4153 158.348 54.5971C158.587 54.7789 158.779 55.0041 158.926 55.2727C159.075 55.5413 159.15 55.8628 159.15 56.2372C159.15 56.7092 159.028 57.1284 158.783 57.4946C158.542 57.8609 158.191 58.1498 157.729 58.3615C157.271 58.5731 156.716 58.6789 156.065 58.6789C155.441 58.6789 154.901 58.5799 154.445 58.3818C153.99 58.1838 153.633 57.903 153.375 57.5394C153.117 57.1732 152.975 56.7391 152.948 56.2372H154.209C154.234 56.5383 154.331 56.7893 154.502 56.99C154.676 57.1881 154.897 57.3359 155.166 57.4336C155.437 57.5286 155.734 57.576 156.057 57.576C156.412 57.576 156.728 57.5204 157.005 57.4092C157.285 57.2952 157.504 57.1379 157.664 56.9371C157.824 56.7336 157.904 56.4962 157.904 56.2249C157.904 55.9781 157.834 55.7759 157.693 55.6186C157.554 55.4612 157.366 55.331 157.127 55.2279C156.891 55.1248 156.624 55.0339 156.325 54.9552L155.341 54.6866C154.673 54.5049 154.144 54.2376 153.753 53.8849C153.366 53.5322 153.172 53.0656 153.172 52.485C153.172 52.0048 153.302 51.5856 153.562 51.2275C153.823 50.8694 154.175 50.5913 154.62 50.3932C155.065 50.1925 155.567 50.0921 156.126 50.0921C156.69 50.0921 157.188 50.1911 157.62 50.3892C158.054 50.5872 158.396 50.8599 158.645 51.2072C158.895 51.5517 159.025 51.9478 159.036 52.3955H157.823ZM166.505 52.2897V53.2664H163.091V52.2897H166.505ZM164.007 50.7921H165.224V56.7052C165.224 56.9412 165.259 57.1189 165.329 57.2383C165.4 57.3549 165.491 57.435 165.602 57.4784C165.716 57.5191 165.839 57.5394 165.972 57.5394C166.07 57.5394 166.155 57.5326 166.229 57.5191C166.302 57.5055 166.359 57.4946 166.4 57.4865L166.619 58.4917C166.549 58.5188 166.448 58.546 166.318 58.5731C166.188 58.6029 166.025 58.6192 165.83 58.6219C165.51 58.6273 165.211 58.5704 164.935 58.451C164.658 58.3316 164.434 58.1471 164.263 57.8975C164.092 57.6479 164.007 57.3346 164.007 56.9575V50.7921ZM170.417 58.6667C169.831 58.6667 169.32 58.5324 168.883 58.2638C168.446 57.9952 168.107 57.6194 167.866 57.1365C167.624 56.6536 167.504 56.0893 167.504 55.4436C167.504 54.7952 167.624 54.2281 167.866 53.7425C168.107 53.2569 168.446 52.8798 168.883 52.6112C169.32 52.3426 169.831 52.2083 170.417 52.2083C171.003 52.2083 171.515 52.3426 171.952 52.6112C172.388 52.8798 172.728 53.2569 172.969 53.7425C173.21 54.2281 173.331 54.7952 173.331 55.4436C173.331 56.0893 173.21 56.6536 172.969 57.1365C172.728 57.6194 172.388 57.9952 171.952 58.2638C171.515 58.5324 171.003 58.6667 170.417 58.6667ZM170.421 57.6452C170.801 57.6452 171.116 57.5448 171.366 57.3441C171.615 57.1433 171.8 56.8761 171.919 56.5424C172.041 56.2087 172.102 55.841 172.102 55.4395C172.102 55.0407 172.041 54.6744 171.919 54.3407C171.8 54.0043 171.615 53.7344 171.366 53.5309C171.116 53.3274 170.801 53.2257 170.421 53.2257C170.039 53.2257 169.721 53.3274 169.469 53.5309C169.22 53.7344 169.034 54.0043 168.912 54.3407C168.792 54.6744 168.733 55.0407 168.733 55.4395C168.733 55.841 168.792 56.2087 168.912 56.5424C169.034 56.8761 169.22 57.1433 169.469 57.3441C169.721 57.5448 170.039 57.6452 170.421 57.6452ZM177.722 60.8846V52.2897H178.911V53.303H179.012C179.083 53.1728 179.185 53.0222 179.317 52.8513C179.45 52.6803 179.635 52.5311 179.871 52.4036C180.107 52.2734 180.419 52.2083 180.807 52.2083C181.312 52.2083 181.762 52.3358 182.158 52.5908C182.554 52.8458 182.865 53.2135 183.09 53.6937C183.318 54.1739 183.432 54.7518 183.432 55.4273C183.432 56.1029 183.319 56.6821 183.094 57.165C182.869 57.6452 182.56 58.0156 182.166 58.276C181.773 58.5337 181.324 58.6626 180.819 58.6626C180.439 58.6626 180.129 58.5989 179.887 58.4713C179.648 58.3438 179.461 58.1946 179.326 58.0237C179.19 57.8528 179.086 57.7008 179.012 57.5679H178.939V60.8846H177.722ZM178.915 55.4151C178.915 55.8546 178.978 56.2399 179.106 56.5709C179.233 56.9018 179.418 57.1609 179.659 57.3481C179.901 57.5326 180.197 57.6249 180.547 57.6249C180.91 57.6249 181.214 57.5286 181.458 57.3359C181.702 57.1406 181.887 56.8761 182.012 56.5424C182.139 56.2087 182.203 55.8329 182.203 55.4151C182.203 55.0027 182.14 54.6324 182.016 54.3041C181.894 53.9758 181.709 53.7167 181.462 53.5268C181.218 53.3369 180.913 53.2419 180.547 53.2419C180.194 53.2419 179.895 53.3328 179.651 53.5146C179.41 53.6964 179.227 53.9501 179.102 54.2756C178.977 54.6012 178.915 54.981 178.915 55.4151ZM184.795 58.5405V52.2897H186.012V58.5405H184.795ZM185.41 51.3252C185.198 51.3252 185.016 51.2546 184.864 51.1136C184.715 50.9698 184.64 50.7988 184.64 50.6008C184.64 50.4 184.715 50.2291 184.864 50.088C185.016 49.9442 185.198 49.8723 185.41 49.8723C185.621 49.8723 185.802 49.9442 185.951 50.088C186.103 50.2291 186.179 50.4 186.179 50.6008C186.179 50.7988 186.103 50.9698 185.951 51.1136C185.802 51.2546 185.621 51.3252 185.41 51.3252ZM188.866 54.8291V58.5405H187.649V52.2897H188.817V53.3071H188.894C189.038 52.9761 189.263 52.7102 189.57 52.5094C189.879 52.3087 190.268 52.2083 190.738 52.2083C191.164 52.2083 191.537 52.2978 191.857 52.4769C192.177 52.6532 192.425 52.9164 192.602 53.2664C192.778 53.6163 192.866 54.0491 192.866 54.5646V58.5405H191.649V54.7111C191.649 54.258 191.531 53.9039 191.295 53.6489C191.059 53.3912 190.735 53.2623 190.323 53.2623C190.04 53.2623 189.79 53.3233 189.57 53.4454C189.353 53.5675 189.18 53.7466 189.053 53.9826C188.928 54.2159 188.866 54.4981 188.866 54.8291ZM194.498 60.8846V52.2897H195.686V53.303H195.788C195.859 53.1728 195.96 53.0222 196.093 52.8513C196.226 52.6803 196.411 52.5311 196.647 52.4036C196.883 52.2734 197.195 52.2083 197.583 52.2083C198.087 52.2083 198.538 52.3358 198.934 52.5908C199.33 52.8458 199.641 53.2135 199.866 53.6937C200.094 54.1739 200.208 54.7518 200.208 55.4273C200.208 56.1029 200.095 56.6821 199.87 57.165C199.645 57.6452 199.335 58.0156 198.942 58.276C198.549 58.5337 198.1 58.6626 197.595 58.6626C197.215 58.6626 196.904 58.5989 196.663 58.4713C196.424 58.3438 196.237 58.1946 196.101 58.0237C195.966 57.8528 195.861 57.7008 195.788 57.5679H195.715V60.8846H194.498ZM195.69 55.4151C195.69 55.8546 195.754 56.2399 195.882 56.5709C196.009 56.9018 196.194 57.1609 196.435 57.3481C196.677 57.5326 196.972 57.6249 197.322 57.6249C197.686 57.6249 197.99 57.5286 198.234 57.3359C198.478 57.1406 198.663 56.8761 198.787 56.5424C198.915 56.2087 198.979 55.8329 198.979 55.4151C198.979 55.0027 198.916 54.6324 198.791 54.3041C198.669 53.9758 198.485 53.7167 198.238 53.5268C197.994 53.3369 197.689 53.2419 197.322 53.2419C196.97 53.2419 196.671 53.3328 196.427 53.5146C196.186 53.6964 196.002 53.9501 195.878 54.2756C195.753 54.6012 195.69 54.981 195.69 55.4151ZM204.204 58.6667C203.618 58.6667 203.107 58.5324 202.67 58.2638C202.233 57.9952 201.894 57.6194 201.652 57.1365C201.411 56.6536 201.29 56.0893 201.29 55.4436C201.29 54.7952 201.411 54.2281 201.652 53.7425C201.894 53.2569 202.233 52.8798 202.67 52.6112C203.107 52.3426 203.618 52.2083 204.204 52.2083C204.79 52.2083 205.301 52.3426 205.738 52.6112C206.175 52.8798 206.514 53.2569 206.756 53.7425C206.997 54.2281 207.118 54.7952 207.118 55.4436C207.118 56.0893 206.997 56.6536 206.756 57.1365C206.514 57.6194 206.175 57.9952 205.738 58.2638C205.301 58.5324 204.79 58.6667 204.204 58.6667ZM204.208 57.6452C204.588 57.6452 204.903 57.5448 205.152 57.3441C205.402 57.1433 205.586 56.8761 205.706 56.5424C205.828 56.2087 205.889 55.841 205.889 55.4395C205.889 55.0407 205.828 54.6744 205.706 54.3407C205.586 54.0043 205.402 53.7344 205.152 53.5309C204.903 53.3274 204.588 53.2257 204.208 53.2257C203.825 53.2257 203.508 53.3274 203.256 53.5309C203.006 53.7344 202.82 54.0043 202.698 54.3407C202.579 54.6744 202.519 55.0407 202.519 55.4395C202.519 55.841 202.579 56.2087 202.698 56.5424C202.82 56.8761 203.006 57.1433 203.256 57.3441C203.508 57.5448 203.825 57.6452 204.208 57.6452ZM208.476 58.5405V52.2897H209.693V58.5405H208.476ZM209.09 51.3252C208.879 51.3252 208.697 51.2546 208.545 51.1136C208.396 50.9698 208.321 50.7988 208.321 50.6008C208.321 50.4 208.396 50.2291 208.545 50.088C208.697 49.9442 208.879 49.8723 209.09 49.8723C209.302 49.8723 209.483 49.9442 209.632 50.088C209.784 50.2291 209.86 50.4 209.86 50.6008C209.86 50.7988 209.784 50.9698 209.632 51.1136C209.483 51.2546 209.302 51.3252 209.09 51.3252ZM212.547 54.8291V58.5405H211.33V52.2897H212.498V53.3071H212.575C212.719 52.9761 212.944 52.7102 213.251 52.5094C213.56 52.3087 213.949 52.2083 214.419 52.2083C214.844 52.2083 215.218 52.2978 215.538 52.4769C215.858 52.6532 216.106 52.9164 216.282 53.2664C216.459 53.6163 216.547 54.0491 216.547 54.5646V58.5405H215.33V54.7111C215.33 54.258 215.212 53.9039 214.976 53.6489C214.74 53.3912 214.416 53.2623 214.003 53.2623C213.721 53.2623 213.47 53.3233 213.251 53.4454C213.034 53.5675 212.861 53.7466 212.734 53.9826C212.609 54.2159 212.547 54.4981 212.547 54.8291ZM221.097 52.2897V53.2664H217.682V52.2897H221.097ZM218.598 50.7921H219.815V56.7052C219.815 56.9412 219.85 57.1189 219.921 57.2383C219.991 57.3549 220.082 57.435 220.193 57.4784C220.307 57.5191 220.431 57.5394 220.564 57.5394C220.661 57.5394 220.747 57.5326 220.82 57.5191C220.893 57.5055 220.95 57.4946 220.991 57.4865L221.211 58.4917C221.14 58.5188 221.04 58.546 220.91 58.5731C220.779 58.6029 220.617 58.6192 220.421 58.6219C220.101 58.6273 219.803 58.5704 219.526 58.451C219.249 58.3316 219.025 58.1471 218.854 57.8975C218.683 57.6479 218.598 57.3346 218.598 56.9575V50.7921ZM226.245 60.8846C226.063 60.8846 225.897 60.8697 225.748 60.8398C225.599 60.8127 225.488 60.7829 225.415 60.7503L225.708 59.7533C225.93 59.8129 226.128 59.8387 226.302 59.8306C226.475 59.8224 226.629 59.7573 226.762 59.6352C226.897 59.5132 227.017 59.3137 227.12 59.037L227.27 58.6219L224.983 52.2897H226.285L227.868 57.1406H227.934L229.517 52.2897H230.823L228.247 59.3748C228.128 59.7004 227.976 59.9757 227.791 60.2009C227.607 60.4288 227.387 60.5997 227.132 60.7137C226.877 60.8276 226.581 60.8846 226.245 60.8846ZM234.387 58.6667C233.801 58.6667 233.289 58.5324 232.853 58.2638C232.416 57.9952 232.077 57.6194 231.835 57.1365C231.594 56.6536 231.473 56.0893 231.473 55.4436C231.473 54.7952 231.594 54.2281 231.835 53.7425C232.077 53.2569 232.416 52.8798 232.853 52.6112C233.289 52.3426 233.801 52.2083 234.387 52.2083C234.973 52.2083 235.484 52.3426 235.921 52.6112C236.358 52.8798 236.697 53.2569 236.939 53.7425C237.18 54.2281 237.301 54.7952 237.301 55.4436C237.301 56.0893 237.18 56.6536 236.939 57.1365C236.697 57.6194 236.358 57.9952 235.921 58.2638C235.484 58.5324 234.973 58.6667 234.387 58.6667ZM234.391 57.6452C234.771 57.6452 235.086 57.5448 235.335 57.3441C235.585 57.1433 235.769 56.8761 235.889 56.5424C236.011 56.2087 236.072 55.841 236.072 55.4395C236.072 55.0407 236.011 54.6744 235.889 54.3407C235.769 54.0043 235.585 53.7344 235.335 53.5309C235.086 53.3274 234.771 53.2257 234.391 53.2257C234.008 53.2257 233.691 53.3274 233.439 53.5309C233.189 53.7344 233.003 54.0043 232.881 54.3407C232.762 54.6744 232.702 55.0407 232.702 55.4395C232.702 55.841 232.762 56.2087 232.881 56.5424C233.003 56.8761 233.189 57.1433 233.439 57.3441C233.691 57.5448 234.008 57.6452 234.391 57.6452ZM242.619 55.9482V52.2897H243.84V58.5405H242.643V57.458H242.578C242.434 57.7917 242.204 58.0698 241.886 58.2923C241.571 58.512 241.179 58.6219 240.71 58.6219C240.308 58.6219 239.953 58.5337 239.644 58.3574C239.337 58.1783 239.096 57.9138 238.919 57.5638C238.746 57.2138 238.659 56.7811 238.659 56.2656V52.2897H239.876V56.1191C239.876 56.5451 239.994 56.8842 240.23 57.1365C240.466 57.3888 240.772 57.515 241.15 57.515C241.377 57.515 241.604 57.458 241.829 57.3441C242.057 57.2301 242.246 57.0578 242.395 56.8272C242.547 56.5966 242.621 56.3036 242.619 55.9482ZM245.474 58.5405V52.2897H246.651V53.2826H246.716C246.83 52.9462 247.03 52.6817 247.318 52.4891C247.608 52.2937 247.937 52.1961 248.303 52.1961C248.379 52.1961 248.468 52.1988 248.571 52.2042C248.677 52.2096 248.76 52.2164 248.82 52.2246V53.3885C248.771 53.3749 248.684 53.36 248.559 53.3437C248.434 53.3247 248.31 53.3152 248.185 53.3152C247.897 53.3152 247.641 53.3762 247.416 53.4983C247.193 53.6177 247.017 53.7846 246.887 53.9989C246.756 54.2105 246.691 54.452 246.691 54.7233V58.5405H245.474ZM255.6 58.6667C254.984 58.6667 254.453 58.5351 254.008 58.2719C253.566 58.0061 253.224 57.633 252.983 57.1528C252.744 56.6699 252.625 56.1042 252.625 55.4558C252.625 54.8155 252.744 54.2512 252.983 53.7629C253.224 53.2745 253.561 52.8933 253.992 52.6193C254.426 52.3453 254.933 52.2083 255.514 52.2083C255.867 52.2083 256.209 52.2666 256.54 52.3833C256.871 52.4999 257.168 52.6831 257.431 52.9327C257.694 53.1823 257.902 53.5065 258.053 53.9053C258.205 54.3014 258.281 54.783 258.281 55.35V55.7814H253.312V54.8698H257.089C257.089 54.5496 257.024 54.2661 256.894 54.0192C256.763 53.7696 256.58 53.5729 256.344 53.4291C256.111 53.2854 255.837 53.2135 255.522 53.2135C255.18 53.2135 254.882 53.2976 254.627 53.4658C254.375 53.6313 254.179 53.8483 254.041 54.1169C253.905 54.3828 253.837 54.6717 253.837 54.9837V55.6959C253.837 56.1137 253.911 56.4691 254.057 56.7621C254.206 57.0551 254.414 57.279 254.68 57.4336C254.946 57.5855 255.256 57.6615 255.612 57.6615C255.842 57.6615 256.053 57.6289 256.243 57.5638C256.432 57.496 256.597 57.3956 256.735 57.2627C256.873 57.1297 256.979 56.9656 257.052 56.7703L258.204 56.9778C258.112 57.3169 257.946 57.614 257.708 57.869C257.472 58.1214 257.174 58.3181 256.816 58.4591C256.461 58.5975 256.055 58.6667 255.6 58.6667ZM260.446 52.2897L261.826 54.7233L263.218 52.2897H264.549L262.599 55.4151L264.565 58.5405H263.234L261.826 56.2046L260.422 58.5405H259.087L261.032 55.4151L259.112 52.2897H260.446ZM267.606 58.6789C267.21 58.6789 266.852 58.6056 266.531 58.4591C266.211 58.3099 265.958 58.0942 265.77 57.8121C265.586 57.5299 265.494 57.184 265.494 56.7743C265.494 56.4216 265.562 56.1313 265.697 55.9034C265.833 55.6756 266.016 55.4951 266.247 55.3622C266.477 55.2293 266.735 55.1289 267.02 55.061C267.305 54.9932 267.595 54.9417 267.891 54.9064C268.265 54.863 268.569 54.8277 268.802 54.8006C269.036 54.7707 269.205 54.7233 269.311 54.6582C269.417 54.593 269.47 54.4872 269.47 54.3407V54.3122C269.47 53.9568 269.369 53.6815 269.168 53.4861C268.97 53.2908 268.675 53.1931 268.281 53.1931C267.872 53.1931 267.549 53.284 267.313 53.4658C267.079 53.6448 266.918 53.8442 266.828 54.064L265.685 53.8035C265.821 53.4237 266.019 53.1171 266.279 52.8838C266.542 52.6478 266.845 52.4769 267.187 52.3711C267.528 52.2625 267.888 52.2083 268.265 52.2083C268.515 52.2083 268.779 52.2381 269.059 52.2978C269.341 52.3548 269.604 52.4606 269.848 52.6152C270.095 52.7699 270.297 52.991 270.454 53.2786C270.612 53.5634 270.691 53.9338 270.691 54.3896V58.5405H269.502V57.6859H269.453C269.375 57.8433 269.257 57.9979 269.099 58.1498C268.942 58.3018 268.74 58.4279 268.493 58.5283C268.246 58.6287 267.95 58.6789 267.606 58.6789ZM267.87 57.7022C268.207 57.7022 268.494 57.6357 268.733 57.5028C268.975 57.3698 269.158 57.1962 269.282 56.9819C269.41 56.7648 269.474 56.5329 269.474 56.286V55.4802C269.43 55.5236 269.346 55.5643 269.221 55.6023C269.099 55.6376 268.96 55.6688 268.802 55.6959C268.645 55.7203 268.492 55.7434 268.342 55.7651C268.193 55.7841 268.068 55.8004 267.968 55.8139C267.732 55.8438 267.516 55.894 267.321 55.9645C267.128 56.035 266.974 56.1368 266.857 56.2697C266.743 56.3999 266.686 56.5736 266.686 56.7906C266.686 57.0918 266.797 57.3197 267.02 57.4743C267.242 57.6262 267.526 57.7022 267.87 57.7022ZM274.944 58.6667C274.339 58.6667 273.818 58.5297 273.382 58.2557C272.947 57.9789 272.614 57.5977 272.38 57.1121C272.147 56.6265 272.03 56.0703 272.03 55.4436C272.03 54.8087 272.15 54.2485 272.389 53.7629C272.627 53.2745 272.964 52.8933 273.398 52.6193C273.832 52.3453 274.343 52.2083 274.932 52.2083C275.407 52.2083 275.83 52.2965 276.202 52.4728C276.573 52.6464 276.873 52.8906 277.101 53.2053C277.332 53.52 277.469 53.8877 277.512 54.3082H276.328C276.263 54.0152 276.114 53.7629 275.88 53.5512C275.65 53.3396 275.34 53.2338 274.952 53.2338C274.613 53.2338 274.316 53.3233 274.061 53.5024C273.809 53.6787 273.612 53.9311 273.471 54.2593C273.33 54.5849 273.259 54.9702 273.259 55.4151C273.259 55.8709 273.329 56.2643 273.467 56.5953C273.605 56.9263 273.801 57.1826 274.053 57.3644C274.308 57.5462 274.608 57.6371 274.952 57.6371C275.183 57.6371 275.392 57.595 275.579 57.5109C275.769 57.4241 275.928 57.3007 276.055 57.1406C276.185 56.9805 276.276 56.7879 276.328 56.5627H277.512C277.469 56.967 277.337 57.3278 277.117 57.6452C276.898 57.9626 276.603 58.2122 276.234 58.394C275.868 58.5758 275.438 58.6667 274.944 58.6667ZM281.731 52.2897V53.2664H278.317V52.2897H281.731ZM279.233 50.7921H280.449V56.7052C280.449 56.9412 280.485 57.1189 280.555 57.2383C280.626 57.3549 280.717 57.435 280.828 57.4784C280.942 57.5191 281.065 57.5394 281.198 57.5394C281.296 57.5394 281.381 57.5326 281.455 57.5191C281.528 57.5055 281.585 57.4946 281.625 57.4865L281.845 58.4917C281.775 58.5188 281.674 58.546 281.544 58.5731C281.414 58.6029 281.251 58.6192 281.056 58.6219C280.736 58.6273 280.437 58.5704 280.16 58.451C279.884 58.3316 279.66 58.1471 279.489 57.8975C279.318 57.6479 279.233 57.3346 279.233 56.9575V50.7921ZM287.327 50.206V58.5405H286.11V50.206H287.327ZM291.597 58.6667C291.011 58.6667 290.499 58.5324 290.063 58.2638C289.626 57.9952 289.287 57.6194 289.045 57.1365C288.804 56.6536 288.683 56.0893 288.683 55.4436C288.683 54.7952 288.804 54.2281 289.045 53.7425C289.287 53.2569 289.626 52.8798 290.063 52.6112C290.499 52.3426 291.011 52.2083 291.597 52.2083C292.183 52.2083 292.694 52.3426 293.131 52.6112C293.568 52.8798 293.907 53.2569 294.149 53.7425C294.39 54.2281 294.511 54.7952 294.511 55.4436C294.511 56.0893 294.39 56.6536 294.149 57.1365C293.907 57.6194 293.568 57.9952 293.131 58.2638C292.694 58.5324 292.183 58.6667 291.597 58.6667ZM291.601 57.6452C291.981 57.6452 292.296 57.5448 292.545 57.3441C292.795 57.1433 292.979 56.8761 293.099 56.5424C293.221 56.2087 293.282 55.841 293.282 55.4395C293.282 55.0407 293.221 54.6744 293.099 54.3407C292.979 54.0043 292.795 53.7344 292.545 53.5309C292.296 53.3274 291.981 53.2257 291.601 53.2257C291.218 53.2257 290.901 53.3274 290.649 53.5309C290.399 53.7344 290.213 54.0043 290.091 54.3407C289.972 54.6744 289.912 55.0407 289.912 55.4395C289.912 55.841 289.972 56.2087 290.091 56.5424C290.213 56.8761 290.399 57.1433 290.649 57.3441C290.901 57.5448 291.218 57.6452 291.601 57.6452ZM298.502 58.6667C297.897 58.6667 297.376 58.5297 296.939 58.2557C296.505 57.9789 296.171 57.5977 295.938 57.1121C295.705 56.6265 295.588 56.0703 295.588 55.4436C295.588 54.8087 295.708 54.2485 295.946 53.7629C296.185 53.2745 296.521 52.8933 296.956 52.6193C297.39 52.3453 297.901 52.2083 298.49 52.2083C298.965 52.2083 299.388 52.2965 299.759 52.4728C300.131 52.6464 300.431 52.8906 300.659 53.2053C300.889 53.52 301.026 53.8877 301.07 54.3082H299.886C299.82 54.0152 299.671 53.7629 299.438 53.5512C299.207 53.3396 298.898 53.2338 298.51 53.2338C298.171 53.2338 297.874 53.3233 297.619 53.5024C297.367 53.6787 297.17 53.9311 297.029 54.2593C296.888 54.5849 296.817 54.9702 296.817 55.4151C296.817 55.8709 296.886 56.2643 297.025 56.5953C297.163 56.9263 297.358 57.1826 297.611 57.3644C297.866 57.5462 298.166 57.6371 298.51 57.6371C298.741 57.6371 298.95 57.595 299.137 57.5109C299.327 57.4241 299.485 57.3007 299.613 57.1406C299.743 56.9805 299.834 56.7879 299.886 56.5627H301.07C301.026 56.967 300.895 57.3278 300.675 57.6452C300.455 57.9626 300.161 58.2122 299.792 58.394C299.426 58.5758 298.996 58.6667 298.502 58.6667ZM304.19 58.6789C303.794 58.6789 303.436 58.6056 303.116 58.4591C302.796 58.3099 302.542 58.0942 302.355 57.8121C302.17 57.5299 302.078 57.184 302.078 56.7743C302.078 56.4216 302.146 56.1313 302.282 55.9034C302.417 55.6756 302.6 55.4951 302.831 55.3622C303.062 55.2293 303.319 55.1289 303.604 55.061C303.889 54.9932 304.179 54.9417 304.475 54.9064C304.849 54.863 305.153 54.8277 305.387 54.8006C305.62 54.7707 305.79 54.7233 305.895 54.6582C306.001 54.593 306.054 54.4872 306.054 54.3407V54.3122C306.054 53.9568 305.954 53.6815 305.753 53.4861C305.555 53.2908 305.259 53.1931 304.866 53.1931C304.456 53.1931 304.133 53.284 303.897 53.4658C303.664 53.6448 303.502 53.8442 303.413 54.064L302.269 53.8035C302.405 53.4237 302.603 53.1171 302.864 52.8838C303.127 52.6478 303.429 52.4769 303.771 52.3711C304.113 52.2625 304.472 52.2083 304.849 52.2083C305.099 52.2083 305.364 52.2381 305.643 52.2978C305.925 52.3548 306.188 52.4606 306.433 52.6152C306.679 52.7699 306.882 52.991 307.039 53.2786C307.196 53.5634 307.275 53.9338 307.275 54.3896V58.5405H306.087V57.6859H306.038C305.959 57.8433 305.841 57.9979 305.684 58.1498C305.526 58.3018 305.324 58.4279 305.077 58.5283C304.83 58.6287 304.535 58.6789 304.19 58.6789ZM304.455 57.7022C304.791 57.7022 305.079 57.6357 305.317 57.5028C305.559 57.3698 305.742 57.1962 305.867 56.9819C305.994 56.7648 306.058 56.5329 306.058 56.286V55.4802C306.015 55.5236 305.931 55.5643 305.806 55.6023C305.684 55.6376 305.544 55.6688 305.387 55.6959C305.229 55.7203 305.076 55.7434 304.927 55.7651C304.778 55.7841 304.653 55.8004 304.552 55.8139C304.316 55.8438 304.101 55.894 303.905 55.9645C303.713 56.035 303.558 56.1368 303.441 56.2697C303.327 56.3999 303.27 56.5736 303.27 56.7906C303.27 57.0918 303.382 57.3197 303.604 57.4743C303.827 57.6262 304.11 57.7022 304.455 57.7022ZM311.814 52.2897V53.2664H308.399V52.2897H311.814ZM309.315 50.7921H310.532V56.7052C310.532 56.9412 310.567 57.1189 310.637 57.2383C310.708 57.3549 310.799 57.435 310.91 57.4784C311.024 57.5191 311.147 57.5394 311.28 57.5394C311.378 57.5394 311.464 57.5326 311.537 57.5191C311.61 57.5055 311.667 57.4946 311.708 57.4865L311.927 58.4917C311.857 58.5188 311.757 58.546 311.626 58.5731C311.496 58.6029 311.333 58.6192 311.138 58.6219C310.818 58.6273 310.519 58.5704 310.243 58.451C309.966 58.3316 309.742 58.1471 309.571 57.8975C309.4 57.6479 309.315 57.3346 309.315 56.9575V50.7921ZM313.16 58.5405V52.2897H314.376V58.5405H313.16ZM313.774 51.3252C313.562 51.3252 313.381 51.2546 313.229 51.1136C313.08 50.9698 313.005 50.7988 313.005 50.6008C313.005 50.4 313.08 50.2291 313.229 50.088C313.381 49.9442 313.562 49.8723 313.774 49.8723C313.986 49.8723 314.166 49.9442 314.315 50.088C314.467 50.2291 314.543 50.4 314.543 50.6008C314.543 50.7988 314.467 50.9698 314.315 51.1136C314.166 51.2546 313.986 51.3252 313.774 51.3252ZM318.646 58.6667C318.06 58.6667 317.549 58.5324 317.112 58.2638C316.675 57.9952 316.336 57.6194 316.095 57.1365C315.853 56.6536 315.733 56.0893 315.733 55.4436C315.733 54.7952 315.853 54.2281 316.095 53.7425C316.336 53.2569 316.675 52.8798 317.112 52.6112C317.549 52.3426 318.06 52.2083 318.646 52.2083C319.232 52.2083 319.744 52.3426 320.181 52.6112C320.617 52.8798 320.956 53.2569 321.198 53.7425C321.439 54.2281 321.56 54.7952 321.56 55.4436C321.56 56.0893 321.439 56.6536 321.198 57.1365C320.956 57.6194 320.617 57.9952 320.181 58.2638C319.744 58.5324 319.232 58.6667 318.646 58.6667ZM318.65 57.6452C319.03 57.6452 319.345 57.5448 319.595 57.3441C319.844 57.1433 320.029 56.8761 320.148 56.5424C320.27 56.2087 320.331 55.841 320.331 55.4395C320.331 55.0407 320.27 54.6744 320.148 54.3407C320.029 54.0043 319.844 53.7344 319.595 53.5309C319.345 53.3274 319.03 53.2257 318.65 53.2257C318.268 53.2257 317.95 53.3274 317.698 53.5309C317.449 53.7344 317.263 54.0043 317.141 54.3407C317.021 54.6744 316.962 55.0407 316.962 55.4395C316.962 55.841 317.021 56.2087 317.141 56.5424C317.263 56.8761 317.449 57.1433 317.698 57.3441C317.95 57.5448 318.268 57.6452 318.65 57.6452ZM324.135 54.8291V58.5405H322.918V52.2897H324.086V53.3071H324.164C324.307 52.9761 324.533 52.7102 324.839 52.5094C325.148 52.3087 325.538 52.2083 326.007 52.2083C326.433 52.2083 326.806 52.2978 327.126 52.4769C327.446 52.6532 327.695 52.9164 327.871 53.2664C328.047 53.6163 328.136 54.0491 328.136 54.5646V58.5405H326.919V54.7111C326.919 54.258 326.801 53.9039 326.565 53.6489C326.329 53.3912 326.004 53.2623 325.592 53.2623C325.31 53.2623 325.059 53.3233 324.839 53.4454C324.622 53.5675 324.45 53.7466 324.322 53.9826C324.198 54.2159 324.135 54.4981 324.135 54.8291ZM330.569 58.6178C330.347 58.6178 330.155 58.5392 329.995 58.3818C329.835 58.2217 329.755 58.0291 329.755 57.8039C329.755 57.5815 329.835 57.3916 329.995 57.2342C330.155 57.0741 330.347 56.9941 330.569 56.9941C330.792 56.9941 330.983 57.0741 331.143 57.2342C331.303 57.3916 331.383 57.5815 331.383 57.8039C331.383 57.9532 331.345 58.0902 331.269 58.215C331.196 58.337 331.098 58.4347 330.976 58.508C330.854 58.5812 330.718 58.6178 330.569 58.6178Z" fill="#0D1B2A"/>
<path d="M38.5872 44.4786C34.6408 43.9865 31.5872 40.6201 31.5872 36.5405C31.5872 32.1222 35.1689 28.5405 39.5872 28.5405C44.0055 28.5405 47.5872 32.1222 47.5872 36.5405C47.5872 40.6201 44.5335 43.9865 40.5872 44.4786V46.5521C44.5335 46.6444 47.5872 47.2756 47.5872 48.0405C47.5872 48.8689 44.0055 49.5405 39.5872 49.5405C35.1689 49.5405 31.5872 48.8689 31.5872 48.0405C31.5872 47.2756 34.6408 46.6444 38.5872 46.5521V44.4786ZM39.5872 38.5405C40.6918 38.5405 41.5872 37.6451 41.5872 36.5405C41.5872 35.436 40.6918 34.5405 39.5872 34.5405C38.4826 34.5405 37.5872 35.436 37.5872 36.5405C37.5872 37.6451 38.4826 38.5405 39.5872 38.5405Z" fill="#0D1B2A"/>
</svg>
