<svg width="382" height="82" viewBox="0 0 382 82" fill="none" xmlns="http://www.w3.org/2000/svg">
<rect x="0.558105" y="0.767578" width="381.16" height="80.5459" rx="12.831" fill="#A2D2FF"/>
<path d="M13.0642 20.6617C13.0642 16.6756 16.2956 13.4443 20.2816 13.4443H59.2119C63.1979 13.4443 66.4293 16.6756 66.4293 20.6617V59.639C66.4293 63.6251 63.1979 66.8565 59.2119 66.8565H20.2816C16.2956 66.8565 13.0642 63.6251 13.0642 59.639V20.6617Z" fill="#CBE6FF"/>
<path d="M44.7468 34.0405C41.3173 34.0405 38.3917 36.1986 37.2542 39.2308L39.1273 39.9332C39.9805 37.659 42.1746 36.0405 44.7468 36.0405C45.4451 36.0405 46.1155 36.1598 46.7388 36.3791C49.0733 37.2005 50.7468 39.4251 50.7468 42.0405C50.7468 45.3542 48.0605 48.0405 44.7468 48.0405H34.7468C31.4331 48.0405 28.7468 45.3542 28.7468 42.0405C28.7468 39.4251 30.4203 37.2005 32.7549 36.3791C32.7495 36.2669 32.7468 36.154 32.7468 36.0405C32.7468 32.1745 35.8808 29.0405 39.7468 29.0405C42.9888 29.0405 45.7161 31.2445 46.512 34.2359C45.9441 34.108 45.3533 34.0405 44.7468 34.0405Z" fill="#0D1B2A"/>
<path d="M102.113 24.4538H107.56C107.362 25.2966 107.165 26.1394 106.968 26.9822C106.78 27.816 106.587 28.6544 106.39 29.4972C106.192 30.34 105.995 31.1828 105.798 32.0256C105.609 32.8594 105.421 33.6977 105.233 34.5405H98.9791L98.1722 29.4837C98.1722 29.4748 98.1677 29.4703 98.1587 29.4703C98.1587 29.4613 98.1587 29.4568 98.1587 29.4568C98.1587 29.4568 98.1543 29.4568 98.1453 29.4568C98.1453 29.4568 98.1408 29.4613 98.1318 29.4703C98.1318 29.4703 98.1318 29.4748 98.1318 29.4837L97.3384 34.5405H91.5015C91.3401 33.8681 91.1787 33.1956 91.0173 32.5232C90.856 31.8507 90.6901 31.1783 90.5197 30.5058C90.3583 29.8334 90.197 29.1609 90.0356 28.4885C89.8742 27.816 89.7083 27.1436 89.538 26.4712C89.3766 25.7987 89.2152 25.1263 89.0538 24.4538H94.7831C94.8548 24.9111 94.922 25.3728 94.9848 25.8391C95.0565 26.2963 95.1238 26.7536 95.1865 27.2108C95.2582 27.6681 95.33 28.1299 95.4017 28.5961C95.4734 29.0534 95.5407 29.5106 95.6034 29.9679C95.6034 29.9679 95.6079 29.9679 95.6169 29.9679C95.6259 29.9679 95.6348 29.9679 95.6438 29.9679C95.6528 29.9679 95.6572 29.9679 95.6572 29.9679C95.6662 29.9679 95.6707 29.9679 95.6707 29.9679L96.4238 24.4538H100.472L101.265 29.9679C101.274 29.9679 101.279 29.9679 101.279 29.9679C101.288 29.9679 101.292 29.9679 101.292 29.9679C101.427 29.0444 101.561 28.1254 101.696 27.2108C101.839 26.2963 101.978 25.3773 102.113 24.4538ZM113.023 31.5011C113.498 31.5011 113.866 31.4159 114.126 31.2455C114.386 31.0752 114.52 30.8421 114.529 30.5462L118.685 31.9045C118.523 32.4694 118.178 32.9849 117.649 33.4512C117.129 33.9084 116.47 34.2715 115.672 34.5405C114.874 34.8095 113.982 34.944 112.996 34.944C112.153 34.944 111.364 34.8499 110.629 34.6616C109.903 34.4733 109.262 34.1909 108.706 33.8143C108.159 33.4287 107.728 32.9491 107.415 32.3752C107.101 31.8014 106.944 31.1335 106.944 30.3714C106.944 29.6092 107.101 28.9413 107.415 28.3675C107.728 27.7936 108.159 27.3184 108.706 26.9419C109.262 26.5563 109.907 26.2694 110.642 26.0811C111.378 25.8928 112.162 25.7987 112.996 25.7987C113.848 25.7987 114.628 25.8928 115.336 26.0811C116.053 26.2694 116.667 26.5608 117.179 26.9553C117.699 27.3409 118.098 27.834 118.375 28.4347C118.662 29.0265 118.806 29.7303 118.806 30.5462H111.476C111.476 30.5462 111.472 30.5462 111.463 30.5462C111.463 30.5462 111.463 30.5507 111.463 30.5596C111.463 30.6941 111.499 30.8196 111.57 30.9362C111.642 31.0528 111.741 31.1559 111.866 31.2455C112.001 31.3262 112.162 31.389 112.35 31.4338C112.548 31.4786 112.772 31.5011 113.023 31.5011ZM112.996 29.2013C112.557 29.2013 112.193 29.282 111.907 29.4434C111.62 29.5958 111.476 29.8155 111.476 30.1024C111.476 30.1113 111.476 30.1203 111.476 30.1293C111.485 30.1293 111.49 30.1293 111.49 30.1293H114.489C114.498 30.1293 114.502 30.1293 114.502 30.1293C114.502 30.1203 114.502 30.1113 114.502 30.1024C114.502 29.9589 114.462 29.8334 114.381 29.7258C114.309 29.6092 114.206 29.5151 114.072 29.4434C113.937 29.3627 113.776 29.3044 113.588 29.2685C113.408 29.2237 113.211 29.2013 112.996 29.2013ZM119.847 26.6863C120.501 26.3905 121.209 26.1708 121.972 26.0273C122.743 25.8749 123.514 25.7987 124.285 25.7987C125.038 25.7987 125.764 25.8704 126.464 26.0139C127.163 26.1573 127.786 26.377 128.333 26.6729C128.889 26.9688 129.328 27.3364 129.651 27.7757C129.974 28.215 130.135 28.7306 130.135 29.3223C130.135 30.192 130.135 31.0617 130.135 31.9314C130.135 32.8011 130.135 33.6708 130.135 34.5405C129.821 34.5405 129.507 34.5405 129.194 34.5405C128.88 34.5405 128.566 34.5405 128.252 34.5405C127.938 34.5405 127.625 34.5405 127.311 34.5405C126.997 34.5405 126.683 34.5405 126.369 34.5405C126.056 34.5405 125.742 34.5405 125.428 34.5405C125.428 34.0653 125.428 33.5946 125.428 33.1284C125.428 32.6532 125.428 32.1825 125.428 31.7162C125.428 31.5549 125.374 31.4249 125.267 31.3262C125.159 31.2276 125.029 31.1604 124.877 31.1245C124.724 31.0797 124.572 31.0572 124.419 31.0572C124.079 31.0572 123.819 31.1245 123.639 31.259C123.469 31.3935 123.384 31.5459 123.384 31.7162C123.384 31.8866 123.473 32.0435 123.653 32.187C123.832 32.3214 124.088 32.3887 124.419 32.3887C124.581 32.3887 124.764 32.3573 124.971 32.2946C125.177 32.2318 125.334 32.0704 125.441 31.8104C125.253 32.2497 125.06 32.6891 124.863 33.1284C124.675 33.5677 124.487 34.0071 124.298 34.4464C123.975 34.6078 123.635 34.7198 123.276 34.7826C122.926 34.8543 122.577 34.8902 122.227 34.8902C121.806 34.8902 121.398 34.8319 121.003 34.7154C120.618 34.6078 120.268 34.4464 119.954 34.2312C119.649 34.016 119.407 33.747 119.228 33.4243C119.049 33.1015 118.959 32.7249 118.959 32.2946C118.959 32.0345 119.004 31.779 119.094 31.528C119.183 31.2769 119.318 31.0393 119.497 30.8152C119.676 30.591 119.9 30.3938 120.169 30.2234C120.447 30.0531 120.775 29.9231 121.151 29.8334C121.528 29.7348 121.958 29.6855 122.442 29.6855C122.756 29.6855 123.061 29.7124 123.357 29.7661C123.653 29.811 123.931 29.8827 124.191 29.9813C124.46 30.08 124.697 30.201 124.903 30.3445C125.119 30.4879 125.293 30.6493 125.428 30.8286C125.428 30.8107 125.428 30.7972 125.428 30.7883C125.428 30.7703 125.428 30.7569 125.428 30.7479C125.428 30.73 125.428 30.7165 125.428 30.7076C125.428 30.4296 125.356 30.192 125.213 29.9948C125.078 29.7886 124.89 29.6227 124.648 29.4972C124.415 29.3627 124.141 29.2641 123.828 29.2013C123.523 29.1385 123.2 29.1071 122.859 29.1071C122.33 29.1071 121.797 29.1744 121.259 29.3089C120.721 29.4434 120.25 29.6406 119.847 29.9006V26.6863ZM135.293 29.8603C135.401 29.4479 135.504 29.0399 135.603 28.6364C135.71 28.233 135.813 27.8295 135.912 27.426C136.02 27.0136 136.123 26.6056 136.221 26.2022H138.844V29.8603H135.293ZM130.68 31.0303C130.68 30.2593 130.68 29.4479 130.68 28.5961C130.68 27.7443 130.68 26.9374 130.68 26.1753L135.28 25.0725C135.28 25.5118 135.28 25.9601 135.28 26.4174C135.28 26.8746 135.28 27.3319 135.28 27.7892C135.28 28.1209 135.28 28.4526 135.28 28.7844C135.28 29.1161 135.28 29.4434 135.28 29.7661C135.28 29.7751 135.28 29.7796 135.28 29.7796C135.28 29.7796 135.28 29.7841 135.28 29.793C135.28 29.9634 135.316 30.1113 135.387 30.2369C135.468 30.3624 135.576 30.47 135.71 30.5596C135.854 30.6403 136.02 30.7031 136.208 30.7479C136.396 30.7928 136.607 30.8152 136.84 30.8152C137.1 30.8152 137.364 30.7748 137.633 30.6941C137.902 30.6134 138.144 30.5014 138.36 30.3579C138.584 30.2144 138.745 30.0486 138.844 29.8603V33.9488C138.458 34.2536 137.961 34.4778 137.351 34.6212C136.741 34.7736 136.132 34.8499 135.522 34.8499C134.598 34.8499 133.769 34.7019 133.034 34.406C132.308 34.1012 131.734 33.6663 131.312 33.1015C130.891 32.5277 130.68 31.8373 130.68 31.0303ZM139.387 34.5405C139.387 33.7067 139.387 32.8773 139.387 32.0525C139.387 31.2276 139.387 30.4027 139.387 29.5779C139.387 28.744 139.387 27.9147 139.387 27.0898C139.387 26.6415 139.387 26.2022 139.387 25.7718C139.387 25.3325 139.387 24.8931 139.387 24.4538H144.041C144.041 24.7318 144.041 25.059 144.041 25.4356C144.041 25.8032 144.041 26.1887 144.041 26.5922C144.041 26.9957 144.041 27.3857 144.041 27.7623C144.041 28.2643 144.041 28.6947 144.041 29.0534C144.041 29.412 144.041 29.6137 144.041 29.6586C144.041 29.7034 144.041 29.8065 144.041 29.9679C144.041 30.1203 144.041 30.3086 144.041 30.5327C144.041 30.8286 144.041 31.1604 144.041 31.528C144.041 31.8956 144.041 32.2721 144.041 32.6577C144.041 33.0342 144.041 33.3884 144.041 33.7201C144.041 34.0519 144.041 34.3253 144.041 34.5405H139.387ZM145.466 34.5405C145.466 34.1909 145.466 33.8412 145.466 33.4915C145.466 33.1418 145.466 32.7966 145.466 32.4559C145.466 32.1063 145.466 31.7566 145.466 31.4069C145.466 31.0572 145.466 30.7076 145.466 30.3579C145.466 30.0979 145.399 29.9096 145.265 29.793C145.139 29.6765 144.987 29.6137 144.807 29.6048C144.628 29.5868 144.462 29.6003 144.31 29.6451C144.166 29.6899 144.077 29.7392 144.041 29.793L145.117 26.3367C145.439 26.1932 145.785 26.0856 146.152 26.0139C146.52 25.9422 146.883 25.9063 147.242 25.9063C147.744 25.9063 148.21 25.987 148.64 26.1484C149.08 26.3098 149.434 26.5653 149.703 26.915C149.981 27.2646 150.12 27.7309 150.12 28.3137C150.12 29.004 150.12 29.6989 150.12 30.3982C150.12 31.0886 150.12 31.779 150.12 32.4694C150.12 33.1598 150.12 33.8501 150.12 34.5405H145.466ZM156.587 31.5011C157.063 31.5011 157.43 31.4159 157.69 31.2455C157.95 31.0752 158.085 30.8421 158.094 30.5462L162.249 31.9045C162.088 32.4694 161.743 32.9849 161.214 33.4512C160.694 33.9084 160.035 34.2715 159.237 34.5405C158.439 34.8095 157.547 34.944 156.561 34.944C155.718 34.944 154.929 34.8499 154.194 34.6616C153.467 34.4733 152.826 34.1909 152.27 33.8143C151.723 33.4287 151.293 32.9491 150.979 32.3752C150.665 31.8014 150.508 31.1335 150.508 30.3714C150.508 29.6092 150.665 28.9413 150.979 28.3675C151.293 27.7936 151.723 27.3184 152.27 26.9419C152.826 26.5563 153.472 26.2694 154.207 26.0811C154.942 25.8928 155.727 25.7987 156.561 25.7987C157.412 25.7987 158.192 25.8928 158.901 26.0811C159.618 26.2694 160.232 26.5608 160.743 26.9553C161.263 27.3409 161.662 27.834 161.94 28.4347C162.227 29.0265 162.37 29.7303 162.37 30.5462H155.041C155.041 30.5462 155.036 30.5462 155.027 30.5462C155.027 30.5462 155.027 30.5507 155.027 30.5596C155.027 30.6941 155.063 30.8196 155.135 30.9362C155.207 31.0528 155.305 31.1559 155.431 31.2455C155.565 31.3262 155.727 31.389 155.915 31.4338C156.112 31.4786 156.336 31.5011 156.587 31.5011ZM156.561 29.2013C156.121 29.2013 155.758 29.282 155.471 29.4434C155.184 29.5958 155.041 29.8155 155.041 30.1024C155.041 30.1113 155.041 30.1203 155.041 30.1293C155.05 30.1293 155.054 30.1293 155.054 30.1293H158.053C158.062 30.1293 158.067 30.1293 158.067 30.1293C158.067 30.1203 158.067 30.1113 158.067 30.1024C158.067 29.9589 158.026 29.8334 157.946 29.7258C157.874 29.6092 157.771 29.5151 157.636 29.4434C157.502 29.3627 157.341 29.3044 157.152 29.2685C156.973 29.2237 156.776 29.2013 156.561 29.2013ZM167.406 26.2022C167.406 26.7401 167.406 27.2826 167.406 27.8295C167.406 28.3675 167.406 28.9099 167.406 29.4568C167.406 29.9948 167.406 30.5372 167.406 31.0841C167.406 31.658 167.406 32.2318 167.406 32.8056C167.406 33.3794 167.406 33.9577 167.406 34.5405H162.752C162.752 33.6529 162.752 32.7653 162.752 31.8776C162.752 30.99 162.752 30.1024 162.752 29.2147C162.752 28.7126 162.752 28.2106 162.752 27.7085C162.752 27.2064 162.752 26.7043 162.752 26.2022H167.406ZM167.392 31.3397L168.118 27.7219C168.199 27.3364 168.356 27.0181 168.589 26.767C168.831 26.507 169.114 26.3098 169.436 26.1753C169.759 26.0408 170.091 25.9601 170.432 25.9332C170.772 25.8973 171.086 25.9108 171.373 25.9735C171.66 26.0273 171.889 26.1215 172.059 26.256L171.037 31.259C170.777 31.0438 170.459 30.8959 170.082 30.8152C169.714 30.7345 169.342 30.7076 168.966 30.7345C168.589 30.7524 168.257 30.8152 167.97 30.9228C167.684 31.0303 167.491 31.1693 167.392 31.3397ZM175.137 24.4538H180.719C180.719 25.4311 180.719 26.3456 180.719 27.1974C180.719 28.0492 180.719 28.9009 180.719 29.7527C180.719 29.8872 180.746 30.0037 180.799 30.1024C180.862 30.201 180.938 30.2862 181.028 30.3579C181.127 30.4207 181.234 30.47 181.351 30.5058C181.476 30.5417 181.602 30.5596 181.727 30.5596C181.987 30.5596 182.221 30.4924 182.427 30.3579C182.633 30.2234 182.736 30.0262 182.736 29.7661C182.736 29.3358 182.736 28.9099 182.736 28.4885C182.736 28.0671 182.736 27.6412 182.736 27.2108C182.736 26.7805 182.736 26.3367 182.736 25.8794C182.736 25.4221 182.736 24.9469 182.736 24.4538H188.317C188.317 25.1352 188.317 25.8346 188.317 26.5518C188.317 27.2691 188.317 27.9909 188.317 28.7171C188.317 29.4344 188.317 30.1338 188.317 30.8152C188.317 31.5055 188.129 32.1107 187.753 32.6308C187.385 33.1418 186.887 33.5722 186.26 33.9219C185.632 34.2626 184.924 34.5181 184.135 34.6885C183.355 34.8588 182.552 34.944 181.727 34.944C181.073 34.944 180.423 34.8902 179.777 34.7826C179.141 34.675 178.54 34.5091 177.975 34.285C177.419 34.0608 176.926 33.7874 176.496 33.4646C176.074 33.1329 175.743 32.7473 175.501 32.308C175.258 31.8597 175.137 31.3621 175.137 30.8152C175.137 30.4745 175.137 30.1248 175.137 29.7661C175.137 29.3985 175.137 29.0354 175.137 28.6768C175.137 28.2016 175.137 27.7264 175.137 27.2512C175.137 26.776 175.137 26.3053 175.137 25.8391C175.137 25.3639 175.137 24.9021 175.137 24.4538ZM201.357 30.3579C201.357 31.0303 201.218 31.6356 200.94 32.1735C200.662 32.7115 200.285 33.1732 199.81 33.5588C199.344 33.9443 198.815 34.2402 198.223 34.4464C197.631 34.6436 197.017 34.7423 196.38 34.7423C196.058 34.7423 195.721 34.7109 195.372 34.6481C195.031 34.5943 194.699 34.5136 194.377 34.406C194.063 34.2895 193.78 34.1505 193.529 33.9891C193.529 33.9891 193.525 33.9891 193.516 33.9891C193.516 33.9891 193.511 33.9891 193.502 33.9891C193.502 33.9891 193.502 33.9936 193.502 34.0026V36.1544H188.849C188.849 35.5985 188.849 35.0471 188.849 34.5002C188.849 33.9443 188.849 33.3929 188.849 32.846C188.849 32.2901 188.849 31.7387 188.849 31.1917C188.849 30.6358 188.849 30.0844 188.849 29.5375C188.849 28.9816 188.849 28.4302 188.849 27.8833C188.849 27.3274 188.849 26.767 188.849 26.2022H193.502C193.502 26.6774 193.502 27.1436 193.502 27.6009C193.502 28.0581 193.502 28.5154 193.502 28.9727C193.502 29.4299 193.502 29.9006 193.502 30.3848C193.502 30.5552 193.547 30.7031 193.637 30.8286C193.727 30.9541 193.848 31.0572 194 31.1379C194.152 31.2186 194.323 31.2814 194.511 31.3262C194.708 31.3621 194.906 31.38 195.103 31.38C195.452 31.38 195.739 31.3307 195.964 31.2321C196.197 31.1335 196.367 31.0079 196.475 30.8555C196.591 30.7031 196.649 30.5462 196.649 30.3848C196.649 30.2413 196.618 30.1113 196.555 29.9948C196.493 29.8693 196.398 29.7617 196.273 29.672C196.147 29.5734 195.986 29.4972 195.789 29.4434C195.591 29.3896 195.363 29.3627 195.103 29.3627C194.726 29.3627 194.39 29.4299 194.094 29.5644C193.807 29.6989 193.614 29.9186 193.516 30.2234L194.592 26.2022C194.888 26.1304 195.179 26.0811 195.466 26.0542C195.753 26.0184 196.035 26.0004 196.313 26.0004C196.86 26.0004 197.385 26.0632 197.887 26.1887C198.398 26.3142 198.86 26.4981 199.272 26.7401C199.693 26.9822 200.061 27.2826 200.375 27.6412C200.689 27.9909 200.931 28.3944 201.101 28.8516C201.271 29.2999 201.357 29.802 201.357 30.3579ZM209.479 34.5405C209.479 34.0564 209.479 33.5767 209.479 33.1015C209.479 32.6173 209.479 32.1376 209.479 31.6625C209.479 31.1783 209.479 30.6986 209.479 30.2234C209.479 30.0531 209.434 29.9051 209.345 29.7796C209.255 29.6541 209.134 29.551 208.982 29.4703C208.829 29.3896 208.659 29.3313 208.471 29.2954C208.282 29.2506 208.085 29.2282 207.879 29.2282C207.359 29.2282 206.969 29.3313 206.709 29.5375C206.458 29.7437 206.332 29.9724 206.332 30.2234C206.332 30.4117 206.386 30.5821 206.494 30.7345C206.61 30.8869 206.78 31.0124 207.005 31.111C207.238 31.2007 207.529 31.2455 207.879 31.2455C208.255 31.2455 208.592 31.1783 208.887 31.0438C209.183 30.9093 209.376 30.6896 209.466 30.3848L208.39 34.5405C208.103 34.6123 207.829 34.6616 207.569 34.6885C207.309 34.7243 207.009 34.7423 206.668 34.7423C205.978 34.7423 205.328 34.6481 204.718 34.4598C204.109 34.2626 203.571 33.9757 203.104 33.5991C202.647 33.2225 202.284 32.7653 202.015 32.2273C201.755 31.6893 201.625 31.0752 201.625 30.3848C201.625 29.793 201.719 29.2641 201.907 28.7978C202.096 28.3226 202.351 27.9102 202.674 27.5605C203.006 27.2108 203.387 26.9195 203.817 26.6863C204.248 26.4532 204.705 26.2829 205.189 26.1753C205.682 26.0587 206.18 26.0004 206.682 26.0004C206.888 26.0004 207.099 26.0094 207.314 26.0273C207.529 26.0453 207.74 26.0722 207.946 26.108C208.152 26.1439 208.345 26.1932 208.524 26.256C208.713 26.3187 208.883 26.3949 209.035 26.4846C209.197 26.5743 209.336 26.6774 209.452 26.7939C209.461 26.8029 209.466 26.8074 209.466 26.8074C209.475 26.7984 209.479 26.7894 209.479 26.7805C209.479 26.4218 209.479 26.0363 209.479 25.6239C209.479 25.2025 209.479 24.8124 209.479 24.4538H214.133C214.133 25.3145 214.133 26.1798 214.133 27.0495C214.133 27.9102 214.133 28.7709 214.133 29.6317C214.133 30.4476 214.133 31.2635 214.133 32.0794C214.133 32.8953 214.133 33.7157 214.133 34.5405H209.479ZM215.329 26.6863C215.984 26.3905 216.692 26.1708 217.454 26.0273C218.225 25.8749 218.996 25.7987 219.767 25.7987C220.52 25.7987 221.247 25.8704 221.946 26.0139C222.645 26.1573 223.268 26.377 223.815 26.6729C224.371 26.9688 224.811 27.3364 225.133 27.7757C225.456 28.215 225.617 28.7306 225.617 29.3223C225.617 30.192 225.617 31.0617 225.617 31.9314C225.617 32.8011 225.617 33.6708 225.617 34.5405C225.304 34.5405 224.99 34.5405 224.676 34.5405C224.362 34.5405 224.048 34.5405 223.735 34.5405C223.421 34.5405 223.107 34.5405 222.793 34.5405C222.479 34.5405 222.166 34.5405 221.852 34.5405C221.538 34.5405 221.224 34.5405 220.91 34.5405C220.91 34.0653 220.91 33.5946 220.91 33.1284C220.91 32.6532 220.91 32.1825 220.91 31.7162C220.91 31.5549 220.857 31.4249 220.749 31.3262C220.641 31.2276 220.511 31.1604 220.359 31.1245C220.206 31.0797 220.054 31.0572 219.902 31.0572C219.561 31.0572 219.301 31.1245 219.122 31.259C218.951 31.3935 218.866 31.5459 218.866 31.7162C218.866 31.8866 218.956 32.0435 219.135 32.187C219.314 32.3214 219.57 32.3887 219.902 32.3887C220.063 32.3887 220.247 32.3573 220.453 32.2946C220.659 32.2318 220.816 32.0704 220.924 31.8104C220.735 32.2497 220.543 32.6891 220.345 33.1284C220.157 33.5677 219.969 34.0071 219.781 34.4464C219.458 34.6078 219.117 34.7198 218.758 34.7826C218.409 34.8543 218.059 34.8902 217.709 34.8902C217.288 34.8902 216.88 34.8319 216.486 34.7154C216.1 34.6078 215.75 34.4464 215.437 34.2312C215.132 34.016 214.89 33.747 214.71 33.4243C214.531 33.1015 214.441 32.7249 214.441 32.2946C214.441 32.0345 214.486 31.779 214.576 31.528C214.666 31.2769 214.8 31.0393 214.979 30.8152C215.159 30.591 215.383 30.3938 215.652 30.2234C215.93 30.0531 216.257 29.9231 216.634 29.8334C217.01 29.7348 217.44 29.6855 217.925 29.6855C218.238 29.6855 218.543 29.7124 218.839 29.7661C219.135 29.811 219.413 29.8827 219.673 29.9813C219.942 30.08 220.18 30.201 220.386 30.3445C220.601 30.4879 220.776 30.6493 220.91 30.8286C220.91 30.8107 220.91 30.7972 220.91 30.7883C220.91 30.7703 220.91 30.7569 220.91 30.7479C220.91 30.73 220.91 30.7165 220.91 30.7076C220.91 30.4296 220.839 30.192 220.695 29.9948C220.561 29.7886 220.372 29.6227 220.13 29.4972C219.897 29.3627 219.624 29.2641 219.31 29.2013C219.005 29.1385 218.682 29.1071 218.342 29.1071C217.813 29.1071 217.279 29.1744 216.741 29.3089C216.203 29.4434 215.732 29.6406 215.329 29.9006V26.6863ZM230.776 29.8603C230.883 29.4479 230.986 29.0399 231.085 28.6364C231.193 28.233 231.296 27.8295 231.394 27.426C231.502 27.0136 231.605 26.6056 231.704 26.2022H234.326V29.8603H230.776ZM226.163 31.0303C226.163 30.2593 226.163 29.4479 226.163 28.5961C226.163 27.7443 226.163 26.9374 226.163 26.1753L230.762 25.0725C230.762 25.5118 230.762 25.9601 230.762 26.4174C230.762 26.8746 230.762 27.3319 230.762 27.7892C230.762 28.1209 230.762 28.4526 230.762 28.7844C230.762 29.1161 230.762 29.4434 230.762 29.7661C230.762 29.7751 230.762 29.7796 230.762 29.7796C230.762 29.7796 230.762 29.7841 230.762 29.793C230.762 29.9634 230.798 30.1113 230.87 30.2369C230.95 30.3624 231.058 30.47 231.193 30.5596C231.336 30.6403 231.502 30.7031 231.69 30.7479C231.878 30.7928 232.089 30.8152 232.322 30.8152C232.582 30.8152 232.847 30.7748 233.116 30.6941C233.385 30.6134 233.627 30.5014 233.842 30.3579C234.066 30.2144 234.228 30.0486 234.326 29.8603V33.9488C233.941 34.2536 233.443 34.4778 232.833 34.6212C232.224 34.7736 231.614 34.8499 231.004 34.8499C230.081 34.8499 229.251 34.7019 228.516 34.406C227.79 34.1012 227.216 33.6663 226.795 33.1015C226.373 32.5277 226.163 31.8373 226.163 31.0303ZM240.814 31.5011C241.289 31.5011 241.657 31.4159 241.917 31.2455C242.177 31.0752 242.311 30.8421 242.32 30.5462L246.476 31.9045C246.315 32.4694 245.97 32.9849 245.441 33.4512C244.921 33.9084 244.262 34.2715 243.464 34.5405C242.666 34.8095 241.773 34.944 240.787 34.944C239.944 34.944 239.155 34.8499 238.42 34.6616C237.694 34.4733 237.053 34.1909 236.497 33.8143C235.95 33.4287 235.52 32.9491 235.206 32.3752C234.892 31.8014 234.735 31.1335 234.735 30.3714C234.735 29.6092 234.892 28.9413 235.206 28.3675C235.52 27.7936 235.95 27.3184 236.497 26.9419C237.053 26.5563 237.698 26.2694 238.434 26.0811C239.169 25.8928 239.953 25.7987 240.787 25.7987C241.639 25.7987 242.419 25.8928 243.127 26.0811C243.845 26.2694 244.459 26.5608 244.97 26.9553C245.49 27.3409 245.889 27.834 246.167 28.4347C246.454 29.0265 246.597 29.7303 246.597 30.5462H239.267C239.267 30.5462 239.263 30.5462 239.254 30.5462C239.254 30.5462 239.254 30.5507 239.254 30.5596C239.254 30.6941 239.29 30.8196 239.362 30.9362C239.433 31.0528 239.532 31.1559 239.658 31.2455C239.792 31.3262 239.953 31.389 240.142 31.4338C240.339 31.4786 240.563 31.5011 240.814 31.5011ZM240.787 29.2013C240.348 29.2013 239.985 29.282 239.698 29.4434C239.411 29.5958 239.267 29.8155 239.267 30.1024C239.267 30.1113 239.267 30.1203 239.267 30.1293C239.276 30.1293 239.281 30.1293 239.281 30.1293H242.28C242.289 30.1293 242.294 30.1293 242.294 30.1293C242.294 30.1203 242.294 30.1113 242.294 30.1024C242.294 29.9589 242.253 29.8334 242.172 29.7258C242.101 29.6092 241.998 29.5151 241.863 29.4434C241.729 29.3627 241.567 29.3044 241.379 29.2685C241.2 29.2237 241.002 29.2013 240.787 29.2013ZM246.845 28.8651C246.845 28.354 246.988 27.9102 247.275 27.5336C247.571 27.157 247.97 26.8432 248.472 26.5922C248.974 26.3322 249.543 26.1394 250.18 26.0139C250.816 25.8884 251.48 25.8256 252.17 25.8256C253.022 25.8256 253.811 25.9018 254.537 26.0542C255.273 26.2067 255.936 26.4084 256.528 26.6594V29.7796C256.277 29.5913 255.945 29.4299 255.533 29.2954C255.129 29.1609 254.699 29.0578 254.241 28.9861C253.793 28.9144 253.367 28.8785 252.964 28.8785C252.695 28.8785 252.448 28.8964 252.224 28.9323C252.009 28.9592 251.834 29.004 251.7 29.0668C251.574 29.1296 251.511 29.2103 251.511 29.3089C251.511 29.3627 251.529 29.403 251.565 29.4299C251.61 29.4568 251.673 29.4748 251.753 29.4837C251.834 29.4927 251.937 29.4972 252.063 29.4972C252.269 29.4972 252.453 29.4972 252.614 29.4972C252.776 29.4972 252.955 29.4972 253.152 29.4972C253.6 29.4972 254.049 29.5285 254.497 29.5913C254.954 29.6451 255.367 29.7572 255.734 29.9275C256.111 30.0979 256.411 30.3445 256.635 30.6672C256.86 30.981 256.972 31.398 256.972 31.918C256.972 32.4649 256.819 32.9311 256.514 33.3167C256.218 33.6932 255.81 34.0026 255.29 34.2447C254.779 34.4778 254.201 34.6481 253.556 34.7557C252.919 34.8633 252.255 34.9171 251.565 34.9171C250.749 34.9171 249.942 34.8409 249.144 34.6885C248.355 34.536 247.678 34.3119 247.113 34.016V30.7345C247.338 30.9766 247.656 31.1783 248.068 31.3397C248.49 31.4921 248.943 31.6087 249.427 31.6893C249.92 31.7611 250.382 31.7969 250.812 31.7969C251.09 31.7969 251.341 31.7835 251.565 31.7566C251.789 31.7207 251.964 31.6714 252.09 31.6087C252.224 31.5369 252.291 31.4473 252.291 31.3397C252.291 31.2948 252.278 31.2635 252.251 31.2455C252.224 31.2276 252.179 31.2142 252.117 31.2052C252.063 31.1962 251.986 31.1917 251.888 31.1917C251.753 31.1917 251.614 31.1917 251.471 31.1917C251.327 31.1917 251.197 31.1917 251.081 31.1917C250.767 31.1917 250.417 31.1828 250.032 31.1648C249.655 31.1379 249.279 31.0886 248.902 31.0169C248.526 30.9362 248.18 30.8152 247.867 30.6538C247.562 30.4834 247.315 30.2548 247.127 29.9679C246.939 29.672 246.845 29.3044 246.845 28.8651Z" fill="#0D1B2A"/>
<path d="M94.4614 52.3955C94.418 52.0102 94.2389 51.7118 93.9242 51.5002C93.6095 51.2858 93.2134 51.1787 92.7359 51.1787C92.394 51.1787 92.0983 51.2329 91.8487 51.3415C91.5991 51.4473 91.4051 51.5938 91.2668 51.781C91.1311 51.9655 91.0633 52.1757 91.0633 52.4118C91.0633 52.6098 91.1094 52.7807 91.2016 52.9245C91.2966 53.0683 91.42 53.189 91.572 53.2867C91.7266 53.3817 91.8921 53.4617 92.0685 53.5268C92.2448 53.5892 92.4144 53.6408 92.5772 53.6815L93.3911 53.8931C93.6569 53.9582 93.9296 54.0464 94.209 54.1576C94.4885 54.2688 94.7476 54.4153 94.9863 54.5971C95.2251 54.7789 95.4177 55.0041 95.5642 55.2727C95.7134 55.5413 95.788 55.8628 95.788 56.2372C95.788 56.7092 95.666 57.1284 95.4218 57.4946C95.1803 57.8609 94.829 58.1498 94.3678 58.3615C93.9093 58.5731 93.3544 58.6789 92.7033 58.6789C92.0793 58.6789 91.5394 58.5799 91.0836 58.3818C90.6278 58.1838 90.2711 57.903 90.0133 57.5394C89.7556 57.1732 89.6131 56.7391 89.586 56.2372H90.8476C90.872 56.5383 90.9697 56.7893 91.1406 56.99C91.3142 57.1881 91.5353 57.3359 91.8039 57.4336C92.0752 57.5286 92.3723 57.576 92.6952 57.576C93.0506 57.576 93.3666 57.5204 93.6434 57.4092C93.9228 57.2952 94.1426 57.1379 94.3026 56.9371C94.4627 56.7336 94.5428 56.4962 94.5428 56.2249C94.5428 55.9781 94.4722 55.7759 94.3311 55.6186C94.1928 55.4612 94.0042 55.331 93.7655 55.2279C93.5294 55.1248 93.2622 55.0339 92.9638 54.9552L91.9789 54.6866C91.3115 54.5049 90.7825 54.2376 90.3918 53.8849C90.0038 53.5322 89.8098 53.0656 89.8098 52.485C89.8098 52.0048 89.9401 51.5856 90.2005 51.2275C90.461 50.8694 90.8137 50.5913 91.2586 50.3932C91.7036 50.1925 92.2055 50.0921 92.7644 50.0921C93.3287 50.0921 93.8265 50.1911 94.2579 50.3892C94.692 50.5872 95.0338 50.8599 95.2834 51.2072C95.533 51.5517 95.6632 51.9478 95.6741 52.3955H94.4614ZM100.111 52.2897V53.2664H96.6966V52.2897H100.111ZM97.6122 50.7921H98.829V56.7052C98.829 56.9412 98.8643 57.1189 98.9348 57.2383C99.0054 57.3549 99.0963 57.435 99.2075 57.4784C99.3214 57.5191 99.4449 57.5394 99.5778 57.5394C99.6755 57.5394 99.761 57.5326 99.8342 57.5191C99.9075 57.5055 99.9644 57.4946 100.005 57.4865L100.225 58.4917C100.154 58.5188 100.054 58.546 99.9237 58.5731C99.7935 58.6029 99.6307 58.6192 99.4354 58.6219C99.1153 58.6273 98.8168 58.5704 98.5401 58.451C98.2634 58.3316 98.0395 58.1471 97.8686 57.8975C97.6977 57.6479 97.6122 57.3346 97.6122 56.9575V50.7921ZM103.276 58.6789C102.88 58.6789 102.522 58.6056 102.202 58.4591C101.882 58.3099 101.628 58.0942 101.441 57.8121C101.256 57.5299 101.164 57.184 101.164 56.7743C101.164 56.4216 101.232 56.1313 101.367 55.9034C101.503 55.6756 101.686 55.4951 101.917 55.3622C102.147 55.2293 102.405 55.1289 102.69 55.061C102.975 54.9932 103.265 54.9417 103.561 54.9064C103.935 54.863 104.239 54.8277 104.473 54.8006C104.706 54.7707 104.875 54.7233 104.981 54.6582C105.087 54.593 105.14 54.4872 105.14 54.3407V54.3122C105.14 53.9568 105.04 53.6815 104.839 53.4861C104.641 53.2908 104.345 53.1931 103.952 53.1931C103.542 53.1931 103.219 53.284 102.983 53.4658C102.75 53.6448 102.588 53.8442 102.499 54.064L101.355 53.8035C101.491 53.4237 101.689 53.1171 101.949 52.8838C102.213 52.6478 102.515 52.4769 102.857 52.3711C103.199 52.2625 103.558 52.2083 103.935 52.2083C104.185 52.2083 104.449 52.2381 104.729 52.2978C105.011 52.3548 105.274 52.4606 105.518 52.6152C105.765 52.7699 105.967 52.991 106.125 53.2786C106.282 53.5634 106.361 53.9338 106.361 54.3896V58.5405H105.172V57.6859H105.124C105.045 57.8433 104.927 57.9979 104.77 58.1498C104.612 58.3018 104.41 58.4279 104.163 58.5283C103.916 58.6287 103.621 58.6789 103.276 58.6789ZM103.541 57.7022C103.877 57.7022 104.165 57.6357 104.403 57.5028C104.645 57.3698 104.828 57.1962 104.953 56.9819C105.08 56.7648 105.144 56.5329 105.144 56.286V55.4802C105.101 55.5236 105.016 55.5643 104.892 55.6023C104.77 55.6376 104.63 55.6688 104.473 55.6959C104.315 55.7203 104.162 55.7434 104.013 55.7651C103.863 55.7841 103.739 55.8004 103.638 55.8139C103.402 55.8438 103.187 55.894 102.991 55.9645C102.799 56.035 102.644 56.1368 102.527 56.2697C102.413 56.3999 102.356 56.5736 102.356 56.7906C102.356 57.0918 102.468 57.3197 102.69 57.4743C102.913 57.6262 103.196 57.7022 103.541 57.7022ZM108.527 60.8846C108.345 60.8846 108.18 60.8697 108.03 60.8398C107.881 60.8127 107.77 60.7829 107.697 60.7503L107.99 59.7533C108.212 59.8129 108.41 59.8387 108.584 59.8306C108.757 59.8224 108.911 59.7573 109.044 59.6352C109.179 59.5132 109.299 59.3137 109.402 59.037L109.552 58.6219L107.265 52.2897H108.568L110.151 57.1406H110.216L111.799 52.2897H113.105L110.529 59.3748C110.41 59.7004 110.258 59.9757 110.073 60.2009C109.889 60.4288 109.669 60.5997 109.414 60.7137C109.159 60.8276 108.863 60.8846 108.527 60.8846ZM117.281 58.5405V52.2897H118.498V58.5405H117.281ZM117.896 51.3252C117.684 51.3252 117.503 51.2546 117.351 51.1136C117.201 50.9698 117.127 50.7988 117.127 50.6008C117.127 50.4 117.201 50.2291 117.351 50.088C117.503 49.9442 117.684 49.8723 117.896 49.8723C118.108 49.8723 118.288 49.9442 118.437 50.088C118.589 50.2291 118.665 50.4 118.665 50.6008C118.665 50.7988 118.589 50.9698 118.437 51.1136C118.288 51.2546 118.108 51.3252 117.896 51.3252ZM121.352 54.8291V58.5405H120.135V52.2897H121.303V53.3071H121.381C121.524 52.9761 121.75 52.7102 122.056 52.5094C122.365 52.3087 122.755 52.2083 123.224 52.2083C123.65 52.2083 124.023 52.2978 124.343 52.4769C124.663 52.6532 124.912 52.9164 125.088 53.2664C125.264 53.6163 125.352 54.0491 125.352 54.5646V58.5405H124.136V54.7111C124.136 54.258 124.018 53.9039 123.782 53.6489C123.546 53.3912 123.221 53.2623 122.809 53.2623C122.527 53.2623 122.276 53.3233 122.056 53.4454C121.839 53.5675 121.667 53.7466 121.539 53.9826C121.414 54.2159 121.352 54.4981 121.352 54.8291ZM129.959 52.2897V53.2664H126.427V52.2897H129.959ZM127.395 58.5405V51.5653C127.395 51.1746 127.481 50.8504 127.652 50.5927C127.823 50.3322 128.049 50.1382 128.331 50.0107C128.614 49.8805 128.92 49.8154 129.251 49.8154C129.495 49.8154 129.704 49.8357 129.878 49.8764C130.051 49.9144 130.18 49.9497 130.264 49.9822L129.98 50.9671C129.923 50.9508 129.849 50.9318 129.76 50.9101C129.67 50.8857 129.562 50.8735 129.434 50.8735C129.139 50.8735 128.927 50.9467 128.799 51.0932C128.675 51.2397 128.612 51.4513 128.612 51.7281V58.5405H127.395ZM133.601 58.6667C133.015 58.6667 132.504 58.5324 132.067 58.2638C131.63 57.9952 131.291 57.6194 131.05 57.1365C130.808 56.6536 130.688 56.0893 130.688 55.4436C130.688 54.7952 130.808 54.2281 131.05 53.7425C131.291 53.2569 131.63 52.8798 132.067 52.6112C132.504 52.3426 133.015 52.2083 133.601 52.2083C134.187 52.2083 134.699 52.3426 135.136 52.6112C135.572 52.8798 135.912 53.2569 136.153 53.7425C136.395 54.2281 136.515 54.7952 136.515 55.4436C136.515 56.0893 136.395 56.6536 136.153 57.1365C135.912 57.6194 135.572 57.9952 135.136 58.2638C134.699 58.5324 134.187 58.6667 133.601 58.6667ZM133.606 57.6452C133.985 57.6452 134.3 57.5448 134.55 57.3441C134.799 57.1433 134.984 56.8761 135.103 56.5424C135.225 56.2087 135.286 55.841 135.286 55.4395C135.286 55.0407 135.225 54.6744 135.103 54.3407C134.984 54.0043 134.799 53.7344 134.55 53.5309C134.3 53.3274 133.985 53.2257 133.606 53.2257C133.223 53.2257 132.906 53.3274 132.653 53.5309C132.404 53.7344 132.218 54.0043 132.096 54.3407C131.976 54.6744 131.917 55.0407 131.917 55.4395C131.917 55.841 131.976 56.2087 132.096 56.5424C132.218 56.8761 132.404 57.1433 132.653 57.3441C132.906 57.5448 133.223 57.6452 133.606 57.6452ZM137.873 58.5405V52.2897H139.05V53.2826H139.115C139.229 52.9462 139.429 52.6817 139.717 52.4891C140.007 52.2937 140.336 52.1961 140.702 52.1961C140.778 52.1961 140.867 52.1988 140.97 52.2042C141.076 52.2096 141.159 52.2164 141.219 52.2246V53.3885C141.17 53.3749 141.083 53.36 140.958 53.3437C140.833 53.3247 140.709 53.3152 140.584 53.3152C140.296 53.3152 140.04 53.3762 139.815 53.4983C139.592 53.6177 139.416 53.7846 139.286 53.9989C139.155 54.2105 139.09 54.452 139.09 54.7233V58.5405H137.873ZM142.272 58.5405V52.2897H143.44V53.3071H143.517C143.647 52.9625 143.86 52.6939 144.156 52.5013C144.452 52.3059 144.806 52.2083 145.218 52.2083C145.636 52.2083 145.986 52.3059 146.268 52.5013C146.553 52.6966 146.763 52.9652 146.899 53.3071H146.964C147.113 52.9734 147.351 52.7075 147.676 52.5094C148.002 52.3087 148.39 52.2083 148.84 52.2083C149.407 52.2083 149.87 52.386 150.228 52.7414C150.589 53.0968 150.769 53.6326 150.769 54.3489V58.5405H149.552V54.4628C149.552 54.0396 149.437 53.733 149.206 53.5431C148.976 53.3532 148.7 53.2582 148.38 53.2582C147.984 53.2582 147.676 53.3803 147.456 53.6245C147.237 53.8659 147.127 54.1766 147.127 54.5564V58.5405H145.914V54.3855C145.914 54.0464 145.808 53.7737 145.597 53.5675C145.385 53.3613 145.11 53.2582 144.77 53.2582C144.54 53.2582 144.327 53.3193 144.131 53.4414C143.939 53.5607 143.783 53.7276 143.663 53.9419C143.547 54.1562 143.488 54.4045 143.488 54.6866V58.5405H142.272ZM155.094 58.6667C154.478 58.6667 153.948 58.5351 153.503 58.2719C153.06 58.0061 152.719 57.633 152.477 57.1528C152.238 56.6699 152.119 56.1042 152.119 55.4558C152.119 54.8155 152.238 54.2512 152.477 53.7629C152.719 53.2745 153.055 52.8933 153.486 52.6193C153.92 52.3453 154.428 52.2083 155.008 52.2083C155.361 52.2083 155.703 52.2666 156.034 52.3833C156.365 52.4999 156.662 52.6831 156.925 52.9327C157.188 53.1823 157.396 53.5065 157.548 53.9053C157.7 54.3014 157.776 54.783 157.776 55.35V55.7814H152.807V54.8698H156.583C156.583 54.5496 156.518 54.2661 156.388 54.0192C156.258 53.7696 156.075 53.5729 155.839 53.4291C155.605 53.2854 155.331 53.2135 155.017 53.2135C154.675 53.2135 154.376 53.2976 154.121 53.4658C153.869 53.6313 153.674 53.8483 153.535 54.1169C153.4 54.3828 153.332 54.6717 153.332 54.9837V55.6959C153.332 56.1137 153.405 56.4691 153.552 56.7621C153.701 57.0551 153.908 57.279 154.174 57.4336C154.44 57.5855 154.751 57.6615 155.106 57.6615C155.337 57.6615 155.547 57.6289 155.737 57.5638C155.927 57.496 156.091 57.3956 156.229 57.2627C156.368 57.1297 156.473 56.9656 156.547 56.7703L157.698 56.9778C157.606 57.3169 157.441 57.614 157.202 57.869C156.966 58.1214 156.669 58.3181 156.311 58.4591C155.955 58.5975 155.55 58.6667 155.094 58.6667ZM161.466 58.6626C160.961 58.6626 160.511 58.5337 160.115 58.276C159.721 58.0156 159.412 57.6452 159.187 57.165C158.964 56.6821 158.853 56.1029 158.853 55.4273C158.853 54.7518 158.966 54.1739 159.191 53.6937C159.419 53.2135 159.731 52.8458 160.127 52.5908C160.523 52.3358 160.972 52.2083 161.474 52.2083C161.862 52.2083 162.174 52.2734 162.41 52.4036C162.649 52.5311 162.833 52.6803 162.963 52.8513C163.096 53.0222 163.199 53.1728 163.273 53.303H163.346V50.206H164.563V58.5405H163.374V57.5679H163.273C163.199 57.7008 163.094 57.8528 162.955 58.0237C162.82 58.1946 162.632 58.3438 162.394 58.4713C162.155 58.5989 161.846 58.6626 161.466 58.6626ZM161.734 57.6249C162.084 57.6249 162.38 57.5326 162.622 57.3481C162.866 57.1609 163.05 56.9018 163.175 56.5709C163.303 56.2399 163.366 55.8546 163.366 55.4151C163.366 54.981 163.304 54.6012 163.179 54.2756C163.054 53.9501 162.871 53.6964 162.63 53.5146C162.388 53.3328 162.09 53.2419 161.734 53.2419C161.368 53.2419 161.063 53.3369 160.819 53.5268C160.575 53.7167 160.39 53.9758 160.265 54.3041C160.143 54.6324 160.082 55.0027 160.082 55.4151C160.082 55.8329 160.145 56.2087 160.269 56.5424C160.394 56.8761 160.579 57.1406 160.823 57.3359C161.07 57.5286 161.374 57.6249 161.734 57.6249ZM170.687 58.5405L168.848 52.2897H170.105L171.33 56.8801H171.391L172.62 52.2897H173.878L175.099 56.8598H175.16L176.377 52.2897H177.634L175.799 58.5405H174.558L173.288 54.0274H173.194L171.925 58.5405H170.687ZM178.789 58.5405V52.2897H180.006V58.5405H178.789ZM179.403 51.3252C179.192 51.3252 179.01 51.2546 178.858 51.1136C178.709 50.9698 178.634 50.7988 178.634 50.6008C178.634 50.4 178.709 50.2291 178.858 50.088C179.01 49.9442 179.192 49.8723 179.403 49.8723C179.615 49.8723 179.795 49.9442 179.945 50.088C180.097 50.2291 180.173 50.4 180.173 50.6008C180.173 50.7988 180.097 50.9698 179.945 51.1136C179.795 51.2546 179.615 51.3252 179.403 51.3252ZM184.561 52.2897V53.2664H181.146V52.2897H184.561ZM182.062 50.7921H183.279V56.7052C183.279 56.9412 183.314 57.1189 183.385 57.2383C183.455 57.3549 183.546 57.435 183.657 57.4784C183.771 57.5191 183.895 57.5394 184.027 57.5394C184.125 57.5394 184.211 57.5326 184.284 57.5191C184.357 57.5055 184.414 57.4946 184.455 57.4865L184.675 58.4917C184.604 58.5188 184.504 58.546 184.373 58.5731C184.243 58.6029 184.08 58.6192 183.885 58.6219C183.565 58.6273 183.266 58.5704 182.99 58.451C182.713 58.3316 182.489 58.1471 182.318 57.8975C182.147 57.6479 182.062 57.3346 182.062 56.9575V50.7921ZM187.258 54.8291V58.5405H186.041V50.206H187.241V53.3071H187.319C187.465 52.9706 187.689 52.7034 187.99 52.5054C188.291 52.3073 188.685 52.2083 189.17 52.2083C189.599 52.2083 189.973 52.2965 190.294 52.4728C190.616 52.6491 190.866 52.9123 191.042 53.2623C191.221 53.6096 191.311 54.0437 191.311 54.5646V58.5405H190.094V54.7111C190.094 54.2526 189.976 53.8971 189.74 53.6448C189.504 53.3898 189.176 53.2623 188.755 53.2623C188.468 53.2623 188.21 53.3233 187.982 53.4454C187.757 53.5675 187.579 53.7466 187.449 53.9826C187.321 54.2159 187.258 54.4981 187.258 54.8291ZM198.601 58.6667C197.996 58.6667 197.475 58.5297 197.038 58.2557C196.604 57.9789 196.27 57.5977 196.037 57.1121C195.803 56.6265 195.687 56.0703 195.687 55.4436C195.687 54.8087 195.806 54.2485 196.045 53.7629C196.284 53.2745 196.62 52.8933 197.054 52.6193C197.488 52.3453 198 52.2083 198.588 52.2083C199.063 52.2083 199.486 52.2965 199.858 52.4728C200.23 52.6464 200.53 52.8906 200.758 53.2053C200.988 53.52 201.125 53.8877 201.169 54.3082H199.984C199.919 54.0152 199.77 53.7629 199.537 53.5512C199.306 53.3396 198.997 53.2338 198.609 53.2338C198.27 53.2338 197.973 53.3233 197.718 53.5024C197.465 53.6787 197.269 53.9311 197.127 54.2593C196.986 54.5849 196.916 54.9702 196.916 55.4151C196.916 55.8709 196.985 56.2643 197.123 56.5953C197.262 56.9263 197.457 57.1826 197.709 57.3644C197.964 57.5462 198.264 57.6371 198.609 57.6371C198.839 57.6371 199.048 57.595 199.235 57.5109C199.425 57.4241 199.584 57.3007 199.712 57.1406C199.842 56.9805 199.933 56.7879 199.984 56.5627H201.169C201.125 56.967 200.994 57.3278 200.774 57.6452C200.554 57.9626 200.26 58.2122 199.891 58.394C199.524 58.5758 199.094 58.6667 198.601 58.6667ZM206.429 55.9482V52.2897H207.65V58.5405H206.454V57.458H206.389C206.245 57.7917 206.014 58.0698 205.697 58.2923C205.382 58.512 204.99 58.6219 204.521 58.6219C204.119 58.6219 203.764 58.5337 203.455 58.3574C203.148 58.1783 202.907 57.9138 202.73 57.5638C202.557 57.2138 202.47 56.7811 202.47 56.2656V52.2897H203.687V56.1191C203.687 56.5451 203.805 56.8842 204.041 57.1365C204.277 57.3888 204.583 57.515 204.96 57.515C205.188 57.515 205.415 57.458 205.64 57.3441C205.868 57.2301 206.056 57.0578 206.206 56.8272C206.358 56.5966 206.432 56.3036 206.429 55.9482ZM209.285 58.5405V52.2897H210.461V53.2826H210.527C210.64 52.9462 210.841 52.6817 211.129 52.4891C211.419 52.2937 211.747 52.1961 212.114 52.1961C212.19 52.1961 212.279 52.1988 212.382 52.2042C212.488 52.2096 212.571 52.2164 212.63 52.2246V53.3885C212.582 53.3749 212.495 53.36 212.37 53.3437C212.245 53.3247 212.12 53.3152 211.996 53.3152C211.708 53.3152 211.452 53.3762 211.226 53.4983C211.004 53.6177 210.828 53.7846 210.697 53.9989C210.567 54.2105 210.502 54.452 210.502 54.7233V58.5405H209.285ZM213.683 58.5405V52.2897H214.86V53.2826H214.925C215.039 52.9462 215.239 52.6817 215.527 52.4891C215.817 52.2937 216.146 52.1961 216.512 52.1961C216.588 52.1961 216.677 52.1988 216.78 52.2042C216.886 52.2096 216.969 52.2164 217.029 52.2246V53.3885C216.98 53.3749 216.893 53.36 216.768 53.3437C216.643 53.3247 216.519 53.3152 216.394 53.3152C216.106 53.3152 215.85 53.3762 215.625 53.4983C215.402 53.6177 215.226 53.7846 215.096 53.9989C214.965 54.2105 214.9 54.452 214.9 54.7233V58.5405H213.683ZM220.552 58.6667C219.936 58.6667 219.406 58.5351 218.961 58.2719C218.518 58.0061 218.177 57.633 217.935 57.1528C217.696 56.6699 217.577 56.1042 217.577 55.4558C217.577 54.8155 217.696 54.2512 217.935 53.7629C218.177 53.2745 218.513 52.8933 218.944 52.6193C219.378 52.3453 219.886 52.2083 220.466 52.2083C220.819 52.2083 221.161 52.2666 221.492 52.3833C221.823 52.4999 222.12 52.6831 222.383 52.9327C222.646 53.1823 222.854 53.5065 223.006 53.9053C223.158 54.3014 223.234 54.783 223.234 55.35V55.7814H218.265V54.8698H222.041C222.041 54.5496 221.976 54.2661 221.846 54.0192C221.716 53.7696 221.533 53.5729 221.297 53.4291C221.063 53.2854 220.789 53.2135 220.475 53.2135C220.133 53.2135 219.834 53.2976 219.579 53.4658C219.327 53.6313 219.132 53.8483 218.993 54.1169C218.858 54.3828 218.79 54.6717 218.79 54.9837V55.6959C218.79 56.1137 218.863 56.4691 219.01 56.7621C219.159 57.0551 219.366 57.279 219.632 57.4336C219.898 57.5855 220.209 57.6615 220.564 57.6615C220.795 57.6615 221.005 57.6289 221.195 57.5638C221.385 57.496 221.549 57.3956 221.687 57.2627C221.826 57.1297 221.931 56.9656 222.005 56.7703L223.156 56.9778C223.064 57.3169 222.899 57.614 222.66 57.869C222.424 58.1214 222.127 58.3181 221.769 58.4591C221.413 58.5975 221.008 58.6667 220.552 58.6667ZM225.801 54.8291V58.5405H224.584V52.2897H225.752V53.3071H225.829C225.973 52.9761 226.198 52.7102 226.505 52.5094C226.814 52.3087 227.203 52.2083 227.673 52.2083C228.099 52.2083 228.472 52.2978 228.792 52.4769C229.112 52.6532 229.36 52.9164 229.536 53.2664C229.713 53.6163 229.801 54.0491 229.801 54.5646V58.5405H228.584V54.7111C228.584 54.258 228.466 53.9039 228.23 53.6489C227.994 53.3912 227.67 53.2623 227.258 53.2623C226.975 53.2623 226.724 53.3233 226.505 53.4454C226.288 53.5675 226.115 53.7466 225.988 53.9826C225.863 54.2159 225.801 54.4981 225.801 54.8291ZM234.351 52.2897V53.2664H230.936V52.2897H234.351ZM231.852 50.7921H233.069V56.7052C233.069 56.9412 233.104 57.1189 233.175 57.2383C233.245 57.3549 233.336 57.435 233.447 57.4784C233.561 57.5191 233.685 57.5394 233.818 57.5394C233.915 57.5394 234.001 57.5326 234.074 57.5191C234.147 57.5055 234.204 57.4946 234.245 57.4865L234.465 58.4917C234.394 58.5188 234.294 58.546 234.164 58.5731C234.033 58.6029 233.871 58.6192 233.675 58.6219C233.355 58.6273 233.057 58.5704 232.78 58.451C232.503 58.3316 232.279 58.1471 232.108 57.8975C231.938 57.6479 231.852 57.3346 231.852 56.9575V50.7921ZM240.085 58.5405L238.245 52.2897H239.503L240.728 56.8801H240.789L242.018 52.2897H243.275L244.496 56.8598H244.557L245.774 52.2897H247.032L245.196 58.5405H243.955L242.685 54.0274H242.592L241.322 58.5405H240.085ZM250.69 58.6667C250.074 58.6667 249.544 58.5351 249.099 58.2719C248.657 58.0061 248.315 57.633 248.073 57.1528C247.835 56.6699 247.715 56.1042 247.715 55.4558C247.715 54.8155 247.835 54.2512 248.073 53.7629C248.315 53.2745 248.651 52.8933 249.083 52.6193C249.517 52.3453 250.024 52.2083 250.605 52.2083C250.957 52.2083 251.299 52.2666 251.63 52.3833C251.961 52.4999 252.258 52.6831 252.521 52.9327C252.785 53.1823 252.992 53.5065 253.144 53.9053C253.296 54.3014 253.372 54.783 253.372 55.35V55.7814H248.403V54.8698H252.18C252.18 54.5496 252.114 54.2661 251.984 54.0192C251.854 53.7696 251.671 53.5729 251.435 53.4291C251.202 53.2854 250.927 53.2135 250.613 53.2135C250.271 53.2135 249.972 53.2976 249.717 53.4658C249.465 53.6313 249.27 53.8483 249.131 54.1169C248.996 54.3828 248.928 54.6717 248.928 54.9837V55.6959C248.928 56.1137 249.001 56.4691 249.148 56.7621C249.297 57.0551 249.504 57.279 249.77 57.4336C250.036 57.5855 250.347 57.6615 250.702 57.6615C250.933 57.6615 251.143 57.6289 251.333 57.5638C251.523 57.496 251.687 57.3956 251.826 57.2627C251.964 57.1297 252.07 56.9656 252.143 56.7703L253.295 56.9778C253.202 57.3169 253.037 57.614 252.798 57.869C252.562 58.1214 252.265 58.3181 251.907 58.4591C251.551 58.5975 251.146 58.6667 250.69 58.6667ZM256.541 58.6789C256.145 58.6789 255.787 58.6056 255.467 58.4591C255.147 58.3099 254.893 58.0942 254.706 57.8121C254.521 57.5299 254.429 57.184 254.429 56.7743C254.429 56.4216 254.497 56.1313 254.632 55.9034C254.768 55.6756 254.951 55.4951 255.182 55.3622C255.412 55.2293 255.67 55.1289 255.955 55.061C256.24 54.9932 256.53 54.9417 256.826 54.9064C257.2 54.863 257.504 54.8277 257.738 54.8006C257.971 54.7707 258.14 54.7233 258.246 54.6582C258.352 54.593 258.405 54.4872 258.405 54.3407V54.3122C258.405 53.9568 258.305 53.6815 258.104 53.4861C257.906 53.2908 257.61 53.1931 257.217 53.1931C256.807 53.1931 256.484 53.284 256.248 53.4658C256.015 53.6448 255.853 53.8442 255.764 54.064L254.62 53.8035C254.756 53.4237 254.954 53.1171 255.214 52.8838C255.478 52.6478 255.78 52.4769 256.122 52.3711C256.464 52.2625 256.823 52.2083 257.2 52.2083C257.45 52.2083 257.715 52.2381 257.994 52.2978C258.276 52.3548 258.539 52.4606 258.783 52.6152C259.03 52.7699 259.232 52.991 259.39 53.2786C259.547 53.5634 259.626 53.9338 259.626 54.3896V58.5405H258.438V57.6859H258.389C258.31 57.8433 258.192 57.9979 258.035 58.1498C257.877 58.3018 257.675 58.4279 257.428 58.5283C257.181 58.6287 256.886 58.6789 256.541 58.6789ZM256.806 57.7022C257.142 57.7022 257.43 57.6357 257.668 57.5028C257.91 57.3698 258.093 57.1962 258.218 56.9819C258.345 56.7648 258.409 56.5329 258.409 56.286V55.4802C258.366 55.5236 258.282 55.5643 258.157 55.6023C258.035 55.6376 257.895 55.6688 257.738 55.6959C257.58 55.7203 257.427 55.7434 257.278 55.7651C257.128 55.7841 257.004 55.8004 256.903 55.8139C256.667 55.8438 256.452 55.894 256.256 55.9645C256.064 56.035 255.909 56.1368 255.792 56.2697C255.678 56.3999 255.621 56.5736 255.621 56.7906C255.621 57.0918 255.733 57.3197 255.955 57.4743C256.178 57.6262 256.461 57.7022 256.806 57.7022ZM264.164 52.2897V53.2664H260.75V52.2897H264.164ZM261.666 50.7921H262.883V56.7052C262.883 56.9412 262.918 57.1189 262.988 57.2383C263.059 57.3549 263.15 57.435 263.261 57.4784C263.375 57.5191 263.498 57.5394 263.631 57.5394C263.729 57.5394 263.814 57.5326 263.888 57.5191C263.961 57.5055 264.018 57.4946 264.059 57.4865L264.278 58.4917C264.208 58.5188 264.107 58.546 263.977 58.5731C263.847 58.6029 263.684 58.6192 263.489 58.6219C263.169 58.6273 262.87 58.5704 262.594 58.451C262.317 58.3316 262.093 58.1471 261.922 57.8975C261.751 57.6479 261.666 57.3346 261.666 56.9575V50.7921ZM266.862 54.8291V58.5405H265.645V50.206H266.845V53.3071H266.923C267.069 52.9706 267.293 52.7034 267.594 52.5054C267.895 52.3073 268.289 52.2083 268.774 52.2083C269.203 52.2083 269.577 52.2965 269.897 52.4728C270.22 52.6491 270.47 52.9123 270.646 53.2623C270.825 53.6096 270.915 54.0437 270.915 54.5646V58.5405H269.698V54.7111C269.698 54.2526 269.58 53.8971 269.344 53.6448C269.108 53.3898 268.78 53.2623 268.359 53.2623C268.072 53.2623 267.814 53.3233 267.586 53.4454C267.361 53.5675 267.183 53.7466 267.053 53.9826C266.925 54.2159 266.862 54.4981 266.862 54.8291ZM275.233 58.6667C274.617 58.6667 274.086 58.5351 273.641 58.2719C273.199 58.0061 272.857 57.633 272.616 57.1528C272.377 56.6699 272.258 56.1042 272.258 55.4558C272.258 54.8155 272.377 54.2512 272.616 53.7629C272.857 53.2745 273.194 52.8933 273.625 52.6193C274.059 52.3453 274.567 52.2083 275.147 52.2083C275.5 52.2083 275.842 52.2666 276.173 52.3833C276.504 52.4999 276.801 52.6831 277.064 52.9327C277.327 53.1823 277.535 53.5065 277.687 53.9053C277.839 54.3014 277.914 54.783 277.914 55.35V55.7814H272.946V54.8698H276.722C276.722 54.5496 276.657 54.2661 276.527 54.0192C276.397 53.7696 276.213 53.5729 275.977 53.4291C275.744 53.2854 275.47 53.2135 275.155 53.2135C274.813 53.2135 274.515 53.2976 274.26 53.4658C274.008 53.6313 273.812 53.8483 273.674 54.1169C273.538 54.3828 273.471 54.6717 273.471 54.9837V55.6959C273.471 56.1137 273.544 56.4691 273.69 56.7621C273.84 57.0551 274.047 57.279 274.313 57.4336C274.579 57.5855 274.889 57.6615 275.245 57.6615C275.475 57.6615 275.686 57.6289 275.876 57.5638C276.066 57.496 276.23 57.3956 276.368 57.2627C276.506 57.1297 276.612 56.9656 276.685 56.7703L277.837 56.9778C277.745 57.3169 277.579 57.614 277.341 57.869C277.105 58.1214 276.808 58.3181 276.449 58.4591C276.094 58.5975 275.688 58.6667 275.233 58.6667ZM279.265 58.5405V52.2897H280.441V53.2826H280.506C280.62 52.9462 280.821 52.6817 281.108 52.4891C281.398 52.2937 281.727 52.1961 282.093 52.1961C282.169 52.1961 282.258 52.1988 282.362 52.2042C282.467 52.2096 282.55 52.2164 282.61 52.2246V53.3885C282.561 53.3749 282.474 53.36 282.349 53.3437C282.225 53.3247 282.1 53.3152 281.975 53.3152C281.687 53.3152 281.431 53.3762 281.206 53.4983C280.983 53.6177 280.807 53.7846 280.677 53.9989C280.546 54.2105 280.481 54.452 280.481 54.7233V58.5405H279.265ZM289.329 58.6667C288.724 58.6667 288.203 58.5297 287.766 58.2557C287.332 57.9789 286.998 57.5977 286.765 57.1121C286.531 56.6265 286.415 56.0703 286.415 55.4436C286.415 54.8087 286.534 54.2485 286.773 53.7629C287.012 53.2745 287.348 52.8933 287.782 52.6193C288.216 52.3453 288.728 52.2083 289.316 52.2083C289.791 52.2083 290.214 52.2965 290.586 52.4728C290.958 52.6464 291.258 52.8906 291.485 53.2053C291.716 53.52 291.853 53.8877 291.897 54.3082H290.712C290.647 54.0152 290.498 53.7629 290.265 53.5512C290.034 53.3396 289.725 53.2338 289.337 53.2338C288.998 53.2338 288.701 53.3233 288.446 53.5024C288.193 53.6787 287.997 53.9311 287.855 54.2593C287.714 54.5849 287.644 54.9702 287.644 55.4151C287.644 55.8709 287.713 56.2643 287.851 56.5953C287.99 56.9263 288.185 57.1826 288.437 57.3644C288.692 57.5462 288.992 57.6371 289.337 57.6371C289.567 57.6371 289.776 57.595 289.963 57.5109C290.153 57.4241 290.312 57.3007 290.44 57.1406C290.57 56.9805 290.661 56.7879 290.712 56.5627H291.897C291.853 56.967 291.722 57.3278 291.502 57.6452C291.282 57.9626 290.988 58.2122 290.619 58.394C290.252 58.5758 289.822 58.6667 289.329 58.6667ZM295.831 58.6667C295.245 58.6667 294.733 58.5324 294.297 58.2638C293.86 57.9952 293.521 57.6194 293.279 57.1365C293.038 56.6536 292.917 56.0893 292.917 55.4436C292.917 54.7952 293.038 54.2281 293.279 53.7425C293.521 53.2569 293.86 52.8798 294.297 52.6112C294.733 52.3426 295.245 52.2083 295.831 52.2083C296.417 52.2083 296.928 52.3426 297.365 52.6112C297.802 52.8798 298.141 53.2569 298.382 53.7425C298.624 54.2281 298.745 54.7952 298.745 55.4436C298.745 56.0893 298.624 56.6536 298.382 57.1365C298.141 57.6194 297.802 57.9952 297.365 58.2638C296.928 58.5324 296.417 58.6667 295.831 58.6667ZM295.835 57.6452C296.215 57.6452 296.529 57.5448 296.779 57.3441C297.029 57.1433 297.213 56.8761 297.332 56.5424C297.455 56.2087 297.516 55.841 297.516 55.4395C297.516 55.0407 297.455 54.6744 297.332 54.3407C297.213 54.0043 297.029 53.7344 296.779 53.5309C296.529 53.3274 296.215 53.2257 295.835 53.2257C295.452 53.2257 295.135 53.3274 294.883 53.5309C294.633 53.7344 294.447 54.0043 294.325 54.3407C294.206 54.6744 294.146 55.0407 294.146 55.4395C294.146 55.841 294.206 56.2087 294.325 56.5424C294.447 56.8761 294.633 57.1433 294.883 57.3441C295.135 57.5448 295.452 57.6452 295.835 57.6452ZM301.32 54.8291V58.5405H300.103V52.2897H301.271V53.3071H301.348C301.492 52.9761 301.717 52.7102 302.024 52.5094C302.333 52.3087 302.722 52.2083 303.192 52.2083C303.618 52.2083 303.991 52.2978 304.311 52.4769C304.631 52.6532 304.879 52.9164 305.055 53.2664C305.232 53.6163 305.32 54.0491 305.32 54.5646V58.5405H304.103V54.7111C304.103 54.258 303.985 53.9039 303.749 53.6489C303.513 53.3912 303.189 53.2623 302.777 53.2623C302.494 53.2623 302.243 53.3233 302.024 53.4454C301.807 53.5675 301.634 53.7466 301.507 53.9826C301.382 54.2159 301.32 54.4981 301.32 54.8291ZM309.292 58.6626C308.787 58.6626 308.337 58.5337 307.941 58.276C307.547 58.0156 307.238 57.6452 307.013 57.165C306.79 56.6821 306.679 56.1029 306.679 55.4273C306.679 54.7518 306.792 54.1739 307.017 53.6937C307.245 53.2135 307.557 52.8458 307.953 52.5908C308.349 52.3358 308.798 52.2083 309.3 52.2083C309.688 52.2083 310 52.2734 310.236 52.4036C310.475 52.5311 310.659 52.6803 310.789 52.8513C310.922 53.0222 311.026 53.1728 311.099 53.303H311.172V50.206H312.389V58.5405H311.201V57.5679H311.099C311.026 57.7008 310.92 57.8528 310.781 58.0237C310.646 58.1946 310.459 58.3438 310.22 58.4713C309.981 58.5989 309.672 58.6626 309.292 58.6626ZM309.56 57.6249C309.91 57.6249 310.206 57.5326 310.448 57.3481C310.692 57.1609 310.876 56.9018 311.001 56.5709C311.129 56.2399 311.192 55.8546 311.192 55.4151C311.192 54.981 311.13 54.6012 311.005 54.2756C310.88 53.9501 310.697 53.6964 310.456 53.5146C310.214 53.3328 309.916 53.2419 309.56 53.2419C309.194 53.2419 308.889 53.3369 308.645 53.5268C308.401 53.7167 308.216 53.9758 308.091 54.3041C307.969 54.6324 307.908 55.0027 307.908 55.4151C307.908 55.8329 307.971 56.2087 308.095 56.5424C308.22 56.8761 308.405 57.1406 308.649 57.3359C308.896 57.5286 309.2 57.6249 309.56 57.6249ZM314.126 58.5405V52.2897H315.342V58.5405H314.126ZM314.74 51.3252C314.528 51.3252 314.347 51.2546 314.195 51.1136C314.045 50.9698 313.971 50.7988 313.971 50.6008C313.971 50.4 314.045 50.2291 314.195 50.088C314.347 49.9442 314.528 49.8723 314.74 49.8723C314.952 49.8723 315.132 49.9442 315.281 50.088C315.433 50.2291 315.509 50.4 315.509 50.6008C315.509 50.7988 315.433 50.9698 315.281 51.1136C315.132 51.2546 314.952 51.3252 314.74 51.3252ZM319.897 52.2897V53.2664H316.483V52.2897H319.897ZM317.398 50.7921H318.615V56.7052C318.615 56.9412 318.651 57.1189 318.721 57.2383C318.792 57.3549 318.883 57.435 318.994 57.4784C319.108 57.5191 319.231 57.5394 319.364 57.5394C319.462 57.5394 319.547 57.5326 319.62 57.5191C319.694 57.5055 319.751 57.4946 319.791 57.4865L320.011 58.4917C319.941 58.5188 319.84 58.546 319.71 58.5731C319.58 58.6029 319.417 58.6192 319.222 58.6219C318.902 58.6273 318.603 58.5704 318.326 58.451C318.05 58.3316 317.826 58.1471 317.655 57.8975C317.484 57.6479 317.398 57.3346 317.398 56.9575V50.7921ZM321.243 58.5405V52.2897H322.46V58.5405H321.243ZM321.858 51.3252C321.646 51.3252 321.464 51.2546 321.312 51.1136C321.163 50.9698 321.089 50.7988 321.089 50.6008C321.089 50.4 321.163 50.2291 321.312 50.088C321.464 49.9442 321.646 49.8723 321.858 49.8723C322.069 49.8723 322.25 49.9442 322.399 50.088C322.551 50.2291 322.627 50.4 322.627 50.6008C322.627 50.7988 322.551 50.9698 322.399 51.1136C322.25 51.2546 322.069 51.3252 321.858 51.3252ZM326.73 58.6667C326.144 58.6667 325.633 58.5324 325.196 58.2638C324.759 57.9952 324.42 57.6194 324.178 57.1365C323.937 56.6536 323.816 56.0893 323.816 55.4436C323.816 54.7952 323.937 54.2281 324.178 53.7425C324.42 53.2569 324.759 52.8798 325.196 52.6112C325.633 52.3426 326.144 52.2083 326.73 52.2083C327.316 52.2083 327.827 52.3426 328.264 52.6112C328.701 52.8798 329.04 53.2569 329.282 53.7425C329.523 54.2281 329.644 54.7952 329.644 55.4436C329.644 56.0893 329.523 56.6536 329.282 57.1365C329.04 57.6194 328.701 57.9952 328.264 58.2638C327.827 58.5324 327.316 58.6667 326.73 58.6667ZM326.734 57.6452C327.114 57.6452 327.429 57.5448 327.678 57.3441C327.928 57.1433 328.112 56.8761 328.232 56.5424C328.354 56.2087 328.415 55.841 328.415 55.4395C328.415 55.0407 328.354 54.6744 328.232 54.3407C328.112 54.0043 327.928 53.7344 327.678 53.5309C327.429 53.3274 327.114 53.2257 326.734 53.2257C326.352 53.2257 326.034 53.3274 325.782 53.5309C325.532 53.7344 325.346 54.0043 325.224 54.3407C325.105 54.6744 325.045 55.0407 325.045 55.4395C325.045 55.841 325.105 56.2087 325.224 56.5424C325.346 56.8761 325.532 57.1433 325.782 57.3441C326.034 57.5448 326.352 57.6452 326.734 57.6452ZM332.219 54.8291V58.5405H331.002V52.2897H332.17V53.3071H332.247C332.391 52.9761 332.616 52.7102 332.923 52.5094C333.232 52.3087 333.621 52.2083 334.091 52.2083C334.517 52.2083 334.89 52.2978 335.21 52.4769C335.53 52.6532 335.778 52.9164 335.955 53.2664C336.131 53.6163 336.219 54.0491 336.219 54.5646V58.5405H335.002V54.7111C335.002 54.258 334.884 53.9039 334.648 53.6489C334.412 53.3912 334.088 53.2623 333.676 53.2623C333.394 53.2623 333.143 53.3233 332.923 53.4454C332.706 53.5675 332.534 53.7466 332.406 53.9826C332.281 54.2159 332.219 54.4981 332.219 54.8291ZM342.535 53.8158L341.432 54.0111C341.386 53.87 341.313 53.7357 341.213 53.6082C341.115 53.4807 340.982 53.3762 340.814 53.2949C340.646 53.2135 340.435 53.1728 340.183 53.1728C339.838 53.1728 339.551 53.2501 339.32 53.4047C339.09 53.5567 338.974 53.7534 338.974 53.9948C338.974 54.2037 339.052 54.3719 339.206 54.4994C339.361 54.627 339.611 54.7314 339.955 54.8128L340.948 55.0407C341.523 55.1736 341.952 55.3785 342.234 55.6552C342.516 55.9319 342.657 56.2914 342.657 56.7336C342.657 57.108 342.549 57.4417 342.332 57.7348C342.117 58.025 341.818 58.2529 341.432 58.4184C341.05 58.5839 340.606 58.6667 340.102 58.6667C339.402 58.6667 338.831 58.5175 338.388 58.219C337.946 57.9179 337.675 57.4906 337.574 56.9371L338.751 56.7581C338.824 57.0646 338.974 57.2966 339.202 57.454C339.43 57.6086 339.727 57.6859 340.093 57.6859C340.492 57.6859 340.811 57.6032 341.05 57.4377C341.289 57.2695 341.408 57.0646 341.408 56.8232C341.408 56.6278 341.335 56.4637 341.188 56.3308C341.044 56.1978 340.823 56.0974 340.525 56.0296L339.467 55.7976C338.883 55.6647 338.452 55.4531 338.173 55.1628C337.896 54.8725 337.758 54.5049 337.758 54.0599C337.758 53.691 337.861 53.3681 338.067 53.0914C338.273 52.8146 338.558 52.599 338.921 52.4443C339.285 52.287 339.701 52.2083 340.171 52.2083C340.846 52.2083 341.378 52.3548 341.766 52.6478C342.154 52.9381 342.41 53.3274 342.535 53.8158ZM344.797 58.6178C344.574 58.6178 344.383 58.5392 344.223 58.3818C344.063 58.2217 343.983 58.0291 343.983 57.8039C343.983 57.5815 344.063 57.3916 344.223 57.2342C344.383 57.0741 344.574 56.9941 344.797 56.9941C345.019 56.9941 345.211 57.0741 345.371 57.2342C345.531 57.3916 345.611 57.5815 345.611 57.8039C345.611 57.9532 345.573 58.0902 345.497 58.215C345.424 58.337 345.326 58.4347 345.204 58.508C345.082 58.5812 344.946 58.6178 344.797 58.6178Z" fill="#0D1B2A"/>
</svg>
