<svg width="382" height="82" viewBox="0 0 382 82" fill="none" xmlns="http://www.w3.org/2000/svg">
<rect x="0.717773" y="0.877411" width="381.16" height="80.5459" rx="12.831" fill="#BDE0FE"/>
<path d="M13.2239 20.7715C13.2239 16.7855 16.4552 13.5541 20.4413 13.5541H59.3715C63.3576 13.5541 66.589 16.7855 66.589 20.7715V59.7489C66.589 63.7349 63.3576 66.9663 59.3715 66.9663H20.4413C16.4552 66.9663 13.2239 63.7349 13.2239 59.7489V20.7715Z" fill="#E3F2FF"/>
<path d="M43.9065 44.2602V40.2602L48.9065 45.2602L43.9065 50.2602V46.2602H31.9065V44.2602H43.9065ZM35.9065 30.2602V34.2592L47.9065 34.2602V36.2602H35.9065V40.2602L30.9065 35.2602L35.9065 30.2602Z" fill="#0D1B2A"/>
<path d="M96.6911 35.0538C95.9828 35.0538 95.3283 35.009 94.7275 34.9193C94.1268 34.8297 93.5709 34.6997 93.0599 34.5293C92.5578 34.359 92.105 34.1527 91.7015 33.9107C91.307 33.6686 90.9573 33.3951 90.6525 33.0903C90.3477 32.7854 90.0921 32.4537 89.8859 32.0951C89.6887 31.7275 89.5407 31.3374 89.4421 30.925C89.3435 30.5126 89.2942 30.0777 89.2942 29.6205C89.2942 28.8763 89.4152 28.2083 89.6573 27.6166C89.8994 27.0248 90.2401 26.5137 90.6794 26.0834C91.1277 25.653 91.6567 25.2944 92.2664 25.0075C92.885 24.7205 93.5664 24.5098 94.3106 24.3754C95.0548 24.2319 95.8483 24.1602 96.6911 24.1602C98.1794 24.1602 99.4436 24.3395 100.484 24.6981C101.524 25.0568 102.344 25.5723 102.945 26.2448C103.555 26.9172 103.936 27.7331 104.088 28.6925L98.3722 29.6205C98.3722 29.4142 98.3274 29.2394 98.2377 29.0959C98.1481 28.9435 98.027 28.8225 97.8746 28.7328C97.7222 28.6432 97.5429 28.5759 97.3366 28.5311C97.1394 28.4863 96.9242 28.4638 96.6911 28.4638C96.3683 28.4638 96.0814 28.5087 95.8304 28.5983C95.5793 28.679 95.3776 28.8045 95.2251 28.9749C95.0817 29.1363 95.01 29.3425 95.01 29.5936C95.01 29.746 95.0369 29.8849 95.0907 30.0105C95.1445 30.136 95.2207 30.2481 95.3193 30.3467C95.4179 30.4364 95.5345 30.5126 95.669 30.5753C95.8124 30.6291 95.9693 30.674 96.1397 30.7098C96.31 30.7367 96.4938 30.7502 96.6911 30.7502C97.1663 30.7502 97.5653 30.656 97.888 30.4677C98.2108 30.2705 98.3722 29.9881 98.3722 29.6205L104.088 30.1988C103.989 30.8622 103.77 31.4854 103.429 32.0682C103.097 32.6509 102.631 33.1665 102.03 33.6148C101.439 34.0631 100.699 34.4128 99.8112 34.6638C98.9326 34.9238 97.8925 35.0538 96.6911 35.0538ZM115.252 26.312C115.252 26.9127 115.252 27.5179 115.252 28.1276C115.252 28.7373 115.252 29.347 115.252 29.9567C115.252 30.4767 115.252 31.0012 115.252 31.5302C115.252 32.0502 115.252 32.5703 115.252 33.0903C115.252 33.6103 115.252 34.1303 115.252 34.6504H110.598C110.598 34.2738 110.598 33.8927 110.598 33.5072C110.598 33.1217 110.598 32.7361 110.598 32.3506C110.598 31.9561 110.598 31.575 110.598 31.2074C110.598 30.3736 110.598 29.5577 110.598 28.7597C110.598 27.9528 110.598 27.1369 110.598 26.312H115.252ZM109.173 26.312C109.173 26.7872 109.173 27.2669 109.173 27.751C109.173 28.2262 109.173 28.7014 109.173 29.1766C109.173 29.6518 109.173 30.1315 109.173 30.6157C109.173 30.8129 109.204 30.9743 109.267 31.0998C109.339 31.2164 109.428 31.3016 109.536 31.3554C109.652 31.4002 109.773 31.4226 109.899 31.4226C110.024 31.4226 110.15 31.4002 110.275 31.3554C110.41 31.3105 110.518 31.2567 110.598 31.194L109.522 34.5159C109.271 34.6414 108.962 34.7445 108.594 34.8252C108.236 34.9059 107.859 34.9462 107.465 34.9462C107.106 34.9462 106.752 34.9014 106.402 34.8117C106.053 34.7311 105.734 34.5921 105.447 34.3948C105.169 34.1976 104.945 33.9376 104.775 33.6148C104.604 33.292 104.519 32.8885 104.519 32.4044C104.519 31.7588 104.519 31.1133 104.519 30.4677C104.519 29.8222 104.519 29.1766 104.519 28.5311C104.519 28.1635 104.519 27.7959 104.519 27.4283C104.519 27.0517 104.519 26.6796 104.519 26.312H109.173ZM120.441 26.312C120.441 26.85 120.441 27.3924 120.441 27.9393C120.441 28.4773 120.441 29.0197 120.441 29.5667C120.441 30.1046 120.441 30.6471 120.441 31.194C120.441 31.7678 120.441 32.3416 120.441 32.9154C120.441 33.4893 120.441 34.0676 120.441 34.6504H115.788C115.788 33.7627 115.788 32.8751 115.788 31.9875C115.788 31.0998 115.788 30.2122 115.788 29.3246C115.788 28.8225 115.788 28.3204 115.788 27.8183C115.788 27.3162 115.788 26.8141 115.788 26.312H120.441ZM120.428 31.4495L121.154 27.8317C121.235 27.4462 121.392 27.1279 121.625 26.8769C121.867 26.6168 122.149 26.4196 122.472 26.2851C122.795 26.1506 123.127 26.0699 123.467 26.043C123.808 26.0072 124.122 26.0206 124.409 26.0834C124.696 26.1372 124.924 26.2313 125.095 26.3658L124.073 31.3688C123.813 31.1536 123.494 31.0057 123.118 30.925C122.75 30.8443 122.378 30.8174 122.001 30.8443C121.625 30.8622 121.293 30.925 121.006 31.0326C120.719 31.1402 120.527 31.2792 120.428 31.4495ZM130.134 26.312C130.134 26.85 130.134 27.3924 130.134 27.9393C130.134 28.4773 130.134 29.0197 130.134 29.5667C130.134 30.1046 130.134 30.6471 130.134 31.194C130.134 31.7678 130.134 32.3416 130.134 32.9154C130.134 33.4893 130.134 34.0676 130.134 34.6504H125.481C125.481 33.7627 125.481 32.8751 125.481 31.9875C125.481 31.0998 125.481 30.2122 125.481 29.3246C125.481 28.8225 125.481 28.3204 125.481 27.8183C125.481 27.3162 125.481 26.8141 125.481 26.312H130.134ZM130.121 31.4495L130.847 27.8317C130.928 27.4462 131.085 27.1279 131.318 26.8769C131.56 26.6168 131.842 26.4196 132.165 26.2851C132.488 26.1506 132.819 26.0699 133.16 26.043C133.501 26.0072 133.815 26.0206 134.102 26.0834C134.388 26.1372 134.617 26.2313 134.787 26.3658L133.765 31.3688C133.505 31.1536 133.187 31.0057 132.81 30.925C132.443 30.8443 132.071 30.8174 131.694 30.8443C131.318 30.8622 130.986 30.925 130.699 31.0326C130.412 31.1402 130.219 31.2792 130.121 31.4495ZM140.685 31.6109C141.16 31.6109 141.527 31.5257 141.787 31.3554C142.047 31.185 142.182 30.9519 142.191 30.656L146.347 32.0144C146.185 32.5792 145.84 33.0948 145.311 33.561C144.791 34.0183 144.132 34.3814 143.334 34.6504C142.536 34.9193 141.644 35.0538 140.658 35.0538C139.815 35.0538 139.026 34.9597 138.291 34.7714C137.564 34.5831 136.923 34.3007 136.367 33.9241C135.82 33.5386 135.39 33.0589 135.076 32.4851C134.762 31.9113 134.606 31.2433 134.606 30.4812C134.606 29.7191 134.762 29.0511 135.076 28.4773C135.39 27.9035 135.82 27.4283 136.367 27.0517C136.923 26.6662 137.569 26.3793 138.304 26.191C139.039 26.0027 139.824 25.9085 140.658 25.9085C141.509 25.9085 142.289 26.0027 142.998 26.191C143.715 26.3793 144.329 26.6706 144.84 27.0651C145.36 27.4507 145.759 27.9438 146.037 28.5445C146.324 29.1363 146.468 29.8401 146.468 30.656H139.138C139.138 30.656 139.133 30.656 139.124 30.656C139.124 30.656 139.124 30.6605 139.124 30.6695C139.124 30.804 139.16 30.9295 139.232 31.046C139.304 31.1626 139.402 31.2657 139.528 31.3554C139.662 31.4361 139.824 31.4988 140.012 31.5437C140.209 31.5885 140.433 31.6109 140.685 31.6109ZM140.658 29.3111C140.218 29.3111 139.855 29.3918 139.568 29.5532C139.281 29.7056 139.138 29.9253 139.138 30.2122C139.138 30.2212 139.138 30.2301 139.138 30.2391C139.147 30.2391 139.151 30.2391 139.151 30.2391H142.15C142.159 30.2391 142.164 30.2391 142.164 30.2391C142.164 30.2301 142.164 30.2212 142.164 30.2122C142.164 30.0687 142.124 29.9432 142.043 29.8356C141.971 29.7191 141.868 29.6249 141.734 29.5532C141.599 29.4725 141.438 29.4142 141.249 29.3784C141.07 29.3335 140.873 29.3111 140.658 29.3111ZM152.928 34.6504C152.928 33.951 152.928 33.2427 152.928 32.5254C152.928 31.8081 152.928 31.0998 152.928 30.4005C152.928 30.1405 152.861 29.9567 152.727 29.8491C152.601 29.7415 152.449 29.6832 152.269 29.6742C152.09 29.6653 151.924 29.6877 151.772 29.7415C151.628 29.7953 151.539 29.8491 151.503 29.9029L152.579 26.4465C152.901 26.303 153.247 26.1954 153.614 26.1237C153.982 26.052 154.345 26.0161 154.704 26.0161C155.206 26.0161 155.672 26.0968 156.102 26.2582C156.542 26.4196 156.896 26.6751 157.165 27.0248C157.443 27.3745 157.582 27.8407 157.582 28.4235V34.6504H152.928ZM146.849 34.6504C146.849 34.0765 146.849 33.5027 146.849 32.9289C146.849 32.3461 146.849 31.7678 146.849 31.194C146.849 30.6112 146.849 30.0329 146.849 29.4591C146.849 28.9301 146.849 28.4056 146.849 27.8855C146.849 27.3565 146.849 26.832 146.849 26.312C147.369 26.312 147.885 26.312 148.396 26.312C148.916 26.312 149.436 26.312 149.956 26.312C150.476 26.312 150.992 26.312 151.503 26.312C151.503 26.6348 151.503 26.9441 151.503 27.24C151.503 27.5269 151.503 27.8183 151.503 28.1142C151.503 28.4011 151.503 28.6925 151.503 28.9883C151.503 29.2753 151.503 29.5801 151.503 29.9029C151.503 30.0194 151.503 30.136 151.503 30.2526C151.503 30.3601 151.503 30.4767 151.503 30.6022C151.503 31.2657 151.503 31.9471 151.503 32.6465C151.503 33.3458 151.503 34.0138 151.503 34.6504H146.849ZM164.023 35.0538C163.18 35.0538 162.391 34.9597 161.656 34.7714C160.929 34.5831 160.288 34.3007 159.732 33.9241C159.185 33.5386 158.755 33.0589 158.441 32.4851C158.127 31.9113 157.971 31.2433 157.971 30.4812C157.971 30.0867 158.011 29.7191 158.092 29.3784C158.181 29.0377 158.307 28.7239 158.468 28.4369C158.63 28.1411 158.822 27.8721 159.046 27.63C159.28 27.3879 159.54 27.1727 159.826 26.9845C160.194 26.7424 160.598 26.5451 161.037 26.3927C161.476 26.2313 161.947 26.1103 162.449 26.0296C162.96 25.9489 163.485 25.9085 164.023 25.9085C165.054 25.9085 165.982 26.052 166.806 26.3389C167.64 26.6168 168.326 27.0383 168.864 27.6031C169.411 28.168 169.752 28.8763 169.886 29.728L165.569 30.4946C165.569 30.2526 165.493 30.0553 165.341 29.9029C165.188 29.7505 164.995 29.6429 164.762 29.5801C164.529 29.5084 164.283 29.4725 164.023 29.4725C163.736 29.4725 163.471 29.5129 163.229 29.5936C162.996 29.6653 162.812 29.7774 162.678 29.9298C162.543 30.0732 162.476 30.257 162.476 30.4812C162.476 30.6515 162.512 30.7995 162.584 30.925C162.664 31.0505 162.776 31.1581 162.92 31.2478C163.063 31.3285 163.229 31.3912 163.417 31.4361C163.606 31.4719 163.807 31.4899 164.023 31.4899C164.274 31.4899 164.516 31.4585 164.749 31.3957C164.991 31.333 165.188 31.2298 165.341 31.0864C165.493 30.934 165.569 30.7367 165.569 30.4946C166.322 30.5843 167.044 30.6784 167.734 30.7771C168.425 30.8667 169.147 30.9609 169.9 31.0595C169.792 31.9292 169.469 32.6644 168.931 33.2651C168.402 33.8569 167.712 34.3052 166.86 34.61C166.017 34.9059 165.072 35.0538 164.023 35.0538ZM173.304 36.2642C173.465 36.0849 173.622 35.9056 173.775 35.7263C173.927 35.547 174.079 35.3676 174.232 35.1883C174.393 35.009 174.55 34.8297 174.703 34.6504H172.188C171.892 33.7179 171.596 32.7899 171.3 31.8664C171.004 30.9429 170.708 30.0194 170.412 29.0959C170.117 28.1635 169.821 27.2355 169.525 26.312H174.461C174.622 27.2714 174.779 28.2307 174.931 29.1901C175.093 30.1494 175.254 31.1088 175.415 32.0682C175.415 32.0682 175.415 32.0816 175.415 32.1085C175.424 32.1354 175.429 32.1489 175.429 32.1489C175.429 32.1489 175.429 32.1444 175.429 32.1354C175.438 32.1175 175.442 32.104 175.442 32.0951C175.442 32.0861 175.442 32.0816 175.442 32.0816C175.559 31.4361 175.671 30.795 175.779 30.1584C175.886 29.5129 175.994 28.8718 176.101 28.2352C176.218 27.5897 176.33 26.9486 176.438 26.312H181.118C180.759 27.4238 180.396 28.5311 180.028 29.6339C179.67 30.7367 179.311 31.8395 178.952 32.9423C178.594 34.0452 178.231 35.1525 177.863 36.2642H173.304ZM191.333 35.0538C190.625 35.0538 189.97 35.009 189.369 34.9193C188.769 34.8297 188.213 34.6997 187.702 34.5293C187.2 34.359 186.747 34.1527 186.343 33.9107C185.949 33.6686 185.599 33.3951 185.294 33.0903C184.989 32.7854 184.734 32.4537 184.528 32.0951C184.33 31.7275 184.182 31.3374 184.084 30.925C183.985 30.5126 183.936 30.0777 183.936 29.6205C183.936 28.8763 184.057 28.2083 184.299 27.6166C184.541 27.0248 184.882 26.5137 185.321 26.0834C185.769 25.653 186.298 25.2944 186.908 25.0075C187.527 24.7205 188.208 24.5098 188.952 24.3754C189.697 24.2319 190.49 24.1602 191.333 24.1602C192.821 24.1602 194.085 24.3395 195.125 24.6981C196.166 25.0568 196.986 25.5723 197.587 26.2448C198.196 26.9172 198.577 27.7331 198.73 28.6925L193.014 29.6205C193.014 29.4142 192.969 29.2394 192.879 29.0959C192.79 28.9435 192.669 28.8225 192.516 28.7328C192.364 28.6432 192.185 28.5759 191.978 28.5311C191.781 28.4863 191.566 28.4638 191.333 28.4638C191.01 28.4638 190.723 28.5087 190.472 28.5983C190.221 28.679 190.019 28.8045 189.867 28.9749C189.723 29.1363 189.652 29.3425 189.652 29.5936C189.652 29.746 189.679 29.8849 189.732 30.0105C189.786 30.136 189.862 30.2481 189.961 30.3467C190.06 30.4364 190.176 30.5126 190.311 30.5753C190.454 30.6291 190.611 30.674 190.781 30.7098C190.952 30.7367 191.136 30.7502 191.333 30.7502C191.808 30.7502 192.207 30.656 192.53 30.4677C192.853 30.2705 193.014 29.9881 193.014 29.6205L198.73 30.1988C198.631 30.8622 198.411 31.4854 198.071 32.0682C197.739 32.6509 197.273 33.1665 196.672 33.6148C196.08 34.0631 195.341 34.4128 194.453 34.6638C193.574 34.9238 192.534 35.0538 191.333 35.0538ZM205.079 35.0538C204.523 35.0538 203.985 35.0135 203.465 34.9328C202.945 34.8521 202.461 34.7311 202.012 34.5697C201.564 34.3993 201.156 34.1886 200.788 33.9376C200.421 33.6865 200.107 33.3951 199.847 33.0634C199.587 32.7227 199.385 32.3416 199.242 31.9202C199.098 31.4899 199.027 31.0147 199.027 30.4946C199.027 29.8849 199.125 29.338 199.322 28.8539C199.529 28.3607 199.816 27.9304 200.183 27.5628C200.56 27.1952 200.999 26.8903 201.501 26.6482C202.003 26.3972 202.555 26.2134 203.155 26.0968C203.765 25.9713 204.406 25.9085 205.079 25.9085C205.921 25.9085 206.706 26.0072 207.432 26.2044C208.167 26.3927 208.808 26.6796 209.355 27.0651C209.911 27.4417 210.346 27.9169 210.66 28.4907C210.974 29.0646 211.131 29.7325 211.131 30.4946C211.131 31.2567 210.974 31.9247 210.66 32.4985C210.346 33.0634 209.911 33.5386 209.355 33.9241C208.808 34.3007 208.167 34.5831 207.432 34.7714C206.706 34.9597 205.921 35.0538 205.079 35.0538ZM205.092 31.4899C205.648 31.4899 206.042 31.3823 206.276 31.1671C206.509 30.9519 206.625 30.7188 206.625 30.4677C206.625 30.3512 206.598 30.2346 206.545 30.1181C206.491 30.0015 206.406 29.8939 206.289 29.7953C206.172 29.6967 206.016 29.6205 205.818 29.5667C205.621 29.5039 205.379 29.4725 205.092 29.4725C204.805 29.4725 204.559 29.5039 204.352 29.5667C204.155 29.6205 203.994 29.6967 203.868 29.7953C203.752 29.8939 203.667 30.0015 203.613 30.1181C203.559 30.2346 203.532 30.3557 203.532 30.4812C203.532 30.6067 203.559 30.7322 203.613 30.8578C203.667 30.9743 203.756 31.0819 203.882 31.1805C204.007 31.2702 204.169 31.3464 204.366 31.4092C204.563 31.463 204.805 31.4899 205.092 31.4899ZM217.612 34.6504C217.612 33.951 217.612 33.2427 217.612 32.5254C217.612 31.8081 217.612 31.0998 217.612 30.4005C217.612 30.1405 217.545 29.9567 217.41 29.8491C217.285 29.7415 217.132 29.6832 216.953 29.6742C216.774 29.6653 216.608 29.6877 216.455 29.7415C216.312 29.7953 216.222 29.8491 216.186 29.9029L217.262 26.4465C217.585 26.303 217.93 26.1954 218.298 26.1237C218.666 26.052 219.029 26.0161 219.387 26.0161C219.889 26.0161 220.356 26.0968 220.786 26.2582C221.225 26.4196 221.579 26.6751 221.848 27.0248C222.126 27.3745 222.265 27.8407 222.265 28.4235V34.6504H217.612ZM211.533 34.6504C211.533 34.0765 211.533 33.5027 211.533 32.9289C211.533 32.3461 211.533 31.7678 211.533 31.194C211.533 30.6112 211.533 30.0329 211.533 29.4591C211.533 28.9301 211.533 28.4056 211.533 27.8855C211.533 27.3565 211.533 26.832 211.533 26.312C212.053 26.312 212.569 26.312 213.08 26.312C213.6 26.312 214.12 26.312 214.64 26.312C215.16 26.312 215.675 26.312 216.186 26.312C216.186 26.6348 216.186 26.9441 216.186 27.24C216.186 27.5269 216.186 27.8183 216.186 28.1142C216.186 28.4011 216.186 28.6925 216.186 28.9883C216.186 29.2753 216.186 29.5801 216.186 29.9029C216.186 30.0194 216.186 30.136 216.186 30.2526C216.186 30.3601 216.186 30.4767 216.186 30.6022C216.186 31.2657 216.186 31.9471 216.186 32.6465C216.186 33.3458 216.186 34.0138 216.186 34.6504H211.533ZM233.757 26.312C233.542 27.0114 233.326 27.7107 233.111 28.41C232.896 29.1004 232.681 29.7908 232.466 30.4812C232.26 31.1716 232.049 31.8664 231.834 32.5658C231.618 33.2562 231.403 33.951 231.188 34.6504H224.773C224.603 34.0945 224.432 33.5386 224.262 32.9827C224.092 32.4268 223.921 31.8709 223.751 31.315C223.58 30.7591 223.406 30.2032 223.226 29.6473C223.056 29.0915 222.886 28.5356 222.715 27.9797C222.545 27.4238 222.375 26.8679 222.204 26.312H227.14C227.194 26.6258 227.243 26.9396 227.288 27.2534C227.342 27.5583 227.395 27.8676 227.449 28.1814C227.503 28.4952 227.552 28.809 227.597 29.1228C227.651 29.4366 227.705 29.7505 227.759 30.0643C227.812 30.3781 227.862 30.6919 227.907 31.0057C227.96 31.3105 228.014 31.6199 228.068 31.9337C228.077 31.9785 228.081 32.0144 228.081 32.0413C228.09 32.0592 228.099 32.0682 228.108 32.0682C228.117 32.0682 228.122 32.0592 228.122 32.0413C228.131 32.0144 228.14 31.9785 228.149 31.9337C228.202 31.6199 228.252 31.3105 228.297 31.0057C228.35 30.6919 228.404 30.3781 228.458 30.0643C228.512 29.7505 228.561 29.4366 228.606 29.1228C228.66 28.809 228.713 28.4952 228.767 28.1814C228.821 27.8676 228.87 27.5583 228.915 27.2534C228.969 26.9396 229.023 26.6258 229.077 26.312H233.757ZM239.293 31.6109C239.768 31.6109 240.135 31.5257 240.396 31.3554C240.656 31.185 240.79 30.9519 240.799 30.656L244.955 32.0144C244.793 32.5792 244.448 33.0948 243.919 33.561C243.399 34.0183 242.74 34.3814 241.942 34.6504C241.144 34.9193 240.252 35.0538 239.266 35.0538C238.423 35.0538 237.634 34.9597 236.899 34.7714C236.173 34.5831 235.531 34.3007 234.976 33.9241C234.429 33.5386 233.998 33.0589 233.684 32.4851C233.371 31.9113 233.214 31.2433 233.214 30.4812C233.214 29.7191 233.371 29.0511 233.684 28.4773C233.998 27.9035 234.429 27.4283 234.976 27.0517C235.531 26.6662 236.177 26.3793 236.912 26.191C237.647 26.0027 238.432 25.9085 239.266 25.9085C240.118 25.9085 240.898 26.0027 241.606 26.191C242.323 26.3793 242.937 26.6706 243.448 27.0651C243.968 27.4507 244.367 27.9438 244.645 28.5445C244.932 29.1363 245.076 29.8401 245.076 30.656H237.746C237.746 30.656 237.742 30.656 237.733 30.656C237.733 30.656 237.733 30.6605 237.733 30.6695C237.733 30.804 237.768 30.9295 237.84 31.046C237.912 31.1626 238.011 31.2657 238.136 31.3554C238.271 31.4361 238.432 31.4988 238.62 31.5437C238.817 31.5885 239.042 31.6109 239.293 31.6109ZM239.266 29.3111C238.826 29.3111 238.463 29.3918 238.176 29.5532C237.89 29.7056 237.746 29.9253 237.746 30.2122C237.746 30.2212 237.746 30.2301 237.746 30.2391C237.755 30.2391 237.76 30.2391 237.76 30.2391H240.759C240.768 30.2391 240.772 30.2391 240.772 30.2391C240.772 30.2301 240.772 30.2212 240.772 30.2122C240.772 30.0687 240.732 29.9432 240.651 29.8356C240.579 29.7191 240.476 29.6249 240.342 29.5532C240.207 29.4725 240.046 29.4142 239.858 29.3784C239.678 29.3335 239.481 29.3111 239.266 29.3111ZM250.111 26.312C250.111 26.85 250.111 27.3924 250.111 27.9393C250.111 28.4773 250.111 29.0197 250.111 29.5667C250.111 30.1046 250.111 30.6471 250.111 31.194C250.111 31.7678 250.111 32.3416 250.111 32.9154C250.111 33.4893 250.111 34.0676 250.111 34.6504H245.458C245.458 33.7627 245.458 32.8751 245.458 31.9875C245.458 31.0998 245.458 30.2122 245.458 29.3246C245.458 28.8225 245.458 28.3204 245.458 27.8183C245.458 27.3162 245.458 26.8141 245.458 26.312H250.111ZM250.097 31.4495L250.824 27.8317C250.904 27.4462 251.061 27.1279 251.294 26.8769C251.536 26.6168 251.819 26.4196 252.142 26.2851C252.464 26.1506 252.796 26.0699 253.137 26.043C253.478 26.0072 253.791 26.0206 254.078 26.0834C254.365 26.1372 254.594 26.2313 254.764 26.3658L253.742 31.3688C253.482 31.1536 253.164 31.0057 252.787 30.925C252.42 30.8443 252.048 30.8174 251.671 30.8443C251.294 30.8622 250.963 30.925 250.676 31.0326C250.389 31.1402 250.196 31.2792 250.097 31.4495ZM254.753 28.9749C254.753 28.4638 254.897 28.02 255.183 27.6435C255.479 27.2669 255.878 26.9531 256.38 26.702C256.883 26.442 257.452 26.2492 258.088 26.1237C258.725 25.9982 259.389 25.9354 260.079 25.9354C260.931 25.9354 261.72 26.0116 262.446 26.1641C263.181 26.3165 263.845 26.5182 264.436 26.7693V29.8894C264.185 29.7011 263.854 29.5398 263.441 29.4053C263.038 29.2708 262.607 29.1677 262.15 29.0959C261.702 29.0242 261.276 28.9883 260.872 28.9883C260.603 28.9883 260.357 29.0063 260.133 29.0421C259.917 29.069 259.743 29.1139 259.608 29.1766C259.483 29.2394 259.42 29.3201 259.42 29.4187C259.42 29.4725 259.438 29.5129 259.474 29.5398C259.519 29.5667 259.581 29.5846 259.662 29.5936C259.743 29.6025 259.846 29.607 259.971 29.607C260.178 29.607 260.361 29.607 260.523 29.607C260.684 29.607 260.863 29.607 261.061 29.607C261.509 29.607 261.957 29.6384 262.406 29.7011C262.863 29.7549 263.275 29.867 263.643 30.0374C264.019 30.2077 264.32 30.4543 264.544 30.7771C264.768 31.0909 264.88 31.5078 264.88 32.0278C264.88 32.5747 264.728 33.041 264.423 33.4265C264.127 33.8031 263.719 34.1124 263.199 34.3545C262.688 34.5876 262.11 34.758 261.464 34.8655C260.828 34.9731 260.164 35.0269 259.474 35.0269C258.658 35.0269 257.851 34.9507 257.053 34.7983C256.264 34.6459 255.587 34.4217 255.022 34.1259V30.8443C255.246 31.0864 255.565 31.2881 255.977 31.4495C256.398 31.6019 256.851 31.7185 257.335 31.7992C257.828 31.8709 258.29 31.9068 258.721 31.9068C258.998 31.9068 259.25 31.8933 259.474 31.8664C259.698 31.8306 259.873 31.7812 259.998 31.7185C260.133 31.6468 260.2 31.5571 260.2 31.4495C260.2 31.4047 260.186 31.3733 260.16 31.3554C260.133 31.3374 260.088 31.324 260.025 31.315C259.971 31.3061 259.895 31.3016 259.796 31.3016C259.662 31.3016 259.523 31.3016 259.38 31.3016C259.236 31.3016 259.106 31.3016 258.99 31.3016C258.676 31.3016 258.326 31.2926 257.94 31.2747C257.564 31.2478 257.187 31.1985 256.811 31.1267C256.434 31.046 256.089 30.925 255.775 30.7636C255.47 30.5933 255.224 30.3646 255.036 30.0777C254.847 29.7818 254.753 29.4142 254.753 28.9749ZM265.29 34.6504C265.29 34.2379 265.29 33.83 265.29 33.4265C265.29 33.0141 265.29 32.6061 265.29 32.2026C265.29 31.7902 265.29 31.3823 265.29 30.9788C265.29 30.8084 265.29 30.6381 265.29 30.4677C265.29 30.2974 265.29 30.127 265.29 29.9567C265.81 29.9567 266.325 29.9567 266.836 29.9567C267.356 29.9567 267.876 29.9567 268.396 29.9567C268.916 29.9567 269.432 29.9567 269.943 29.9567C269.943 30.4767 269.943 30.9967 269.943 31.5168C269.943 32.0368 269.943 32.5613 269.943 33.0903C269.943 33.6103 269.943 34.1303 269.943 34.6504H265.29ZM265.29 29.9567C265.29 29.347 265.29 28.7373 265.29 28.1276C265.29 27.5179 265.29 26.9127 265.29 26.312H269.943C269.943 26.6079 269.943 26.9038 269.943 27.1996C269.943 27.4955 269.943 27.7914 269.943 28.0873C269.943 28.3831 269.943 28.679 269.943 28.9749C269.943 28.9749 269.938 28.9794 269.929 28.9883C269.158 29.1497 268.383 29.3111 267.603 29.4725C266.832 29.6339 266.061 29.7953 265.29 29.9567ZM276.395 35.0538C275.839 35.0538 275.301 35.0135 274.781 34.9328C274.261 34.8521 273.777 34.7311 273.329 34.5697C272.88 34.3993 272.472 34.1886 272.105 33.9376C271.737 33.6865 271.423 33.3951 271.163 33.0634C270.903 32.7227 270.701 32.3416 270.558 31.9202C270.415 31.4899 270.343 31.0147 270.343 30.4946C270.343 29.8849 270.441 29.338 270.639 28.8539C270.845 28.3607 271.132 27.9304 271.499 27.5628C271.876 27.1952 272.315 26.8903 272.817 26.6482C273.32 26.3972 273.871 26.2134 274.472 26.0968C275.081 25.9713 275.722 25.9085 276.395 25.9085C277.238 25.9085 278.022 26.0072 278.748 26.2044C279.484 26.3927 280.125 26.6796 280.672 27.0651C281.228 27.4417 281.662 27.9169 281.976 28.4907C282.29 29.0646 282.447 29.7325 282.447 30.4946C282.447 31.2567 282.29 31.9247 281.976 32.4985C281.662 33.0634 281.228 33.5386 280.672 33.9241C280.125 34.3007 279.484 34.5831 278.748 34.7714C278.022 34.9597 277.238 35.0538 276.395 35.0538ZM276.408 31.4899C276.964 31.4899 277.359 31.3823 277.592 31.1671C277.825 30.9519 277.942 30.7188 277.942 30.4677C277.942 30.3512 277.915 30.2346 277.861 30.1181C277.807 30.0015 277.722 29.8939 277.605 29.7953C277.489 29.6967 277.332 29.6205 277.135 29.5667C276.937 29.5039 276.695 29.4725 276.408 29.4725C276.121 29.4725 275.875 29.5039 275.669 29.5667C275.471 29.6205 275.31 29.6967 275.184 29.7953C275.068 29.8939 274.983 30.0015 274.929 30.1181C274.875 30.2346 274.848 30.3557 274.848 30.4812C274.848 30.6067 274.875 30.7322 274.929 30.8578C274.983 30.9743 275.072 31.0819 275.198 31.1805C275.323 31.2702 275.485 31.3464 275.682 31.4092C275.879 31.463 276.121 31.4899 276.408 31.4899ZM288.928 34.6504C288.928 33.951 288.928 33.2427 288.928 32.5254C288.928 31.8081 288.928 31.0998 288.928 30.4005C288.928 30.1405 288.861 29.9567 288.727 29.8491C288.601 29.7415 288.449 29.6832 288.269 29.6742C288.09 29.6653 287.924 29.6877 287.772 29.7415C287.628 29.7953 287.539 29.8491 287.503 29.9029L288.579 26.4465C288.901 26.303 289.247 26.1954 289.614 26.1237C289.982 26.052 290.345 26.0161 290.704 26.0161C291.206 26.0161 291.672 26.0968 292.102 26.2582C292.542 26.4196 292.896 26.6751 293.165 27.0248C293.443 27.3745 293.582 27.8407 293.582 28.4235V34.6504H288.928ZM282.849 34.6504C282.849 34.0765 282.849 33.5027 282.849 32.9289C282.849 32.3461 282.849 31.7678 282.849 31.194C282.849 30.6112 282.849 30.0329 282.849 29.4591C282.849 28.9301 282.849 28.4056 282.849 27.8855C282.849 27.3565 282.849 26.832 282.849 26.312C283.369 26.312 283.885 26.312 284.396 26.312C284.916 26.312 285.436 26.312 285.956 26.312C286.476 26.312 286.992 26.312 287.503 26.312C287.503 26.6348 287.503 26.9441 287.503 27.24C287.503 27.5269 287.503 27.8183 287.503 28.1142C287.503 28.4011 287.503 28.6925 287.503 28.9883C287.503 29.2753 287.503 29.5801 287.503 29.9029C287.503 30.0194 287.503 30.136 287.503 30.2526C287.503 30.3601 287.503 30.4767 287.503 30.6022C287.503 31.2657 287.503 31.9471 287.503 32.6465C287.503 33.3458 287.503 34.0138 287.503 34.6504H282.849Z" fill="#0D1B2A"/>
<path d="M90.7794 58.6504H89.4445L92.4438 50.3159H93.8966L96.8959 58.6504H95.5611L93.2048 51.8298H93.1397L90.7794 58.6504ZM91.0032 55.3866H95.3332V56.4447H91.0032V55.3866ZM100.534 58.7765C99.9291 58.7765 99.4082 58.6395 98.9714 58.3655C98.5373 58.0888 98.2036 57.7076 97.9703 57.2219C97.737 56.7363 97.6203 56.1801 97.6203 55.5534C97.6203 54.9186 97.7397 54.3583 97.9784 53.8727C98.2172 53.3843 98.5536 53.0032 98.9877 52.7291C99.4218 52.4551 99.9332 52.3181 100.522 52.3181C100.997 52.3181 101.42 52.4063 101.792 52.5826C102.163 52.7563 102.463 53.0004 102.691 53.3152C102.922 53.6299 103.059 53.9975 103.102 54.418H101.918C101.853 54.125 101.703 53.8727 101.47 53.6611C101.24 53.4495 100.93 53.3436 100.542 53.3436C100.203 53.3436 99.906 53.4332 99.651 53.6122C99.3987 53.7886 99.202 54.0409 99.0609 54.3692C98.9199 54.6947 98.8493 55.08 98.8493 55.5249C98.8493 55.9807 98.9185 56.3741 99.0569 56.7051C99.1952 57.0361 99.3906 57.2925 99.6429 57.4743C99.8979 57.656 100.198 57.7469 100.542 57.7469C100.773 57.7469 100.982 57.7049 101.169 57.6208C101.359 57.5339 101.518 57.4105 101.645 57.2504C101.775 57.0904 101.866 56.8977 101.918 56.6725H103.102C103.059 57.0768 102.927 57.4376 102.707 57.7551C102.488 58.0725 102.193 58.3221 101.824 58.5039C101.458 58.6856 101.028 58.7765 100.534 58.7765ZM107.036 58.7765C106.431 58.7765 105.91 58.6395 105.474 58.3655C105.039 58.0888 104.706 57.7076 104.472 57.2219C104.239 56.7363 104.122 56.1801 104.122 55.5534C104.122 54.9186 104.242 54.3583 104.481 53.8727C104.719 53.3843 105.056 53.0032 105.49 52.7291C105.924 52.4551 106.435 52.3181 107.024 52.3181C107.499 52.3181 107.922 52.4063 108.294 52.5826C108.665 52.7563 108.965 53.0004 109.193 53.3152C109.424 53.6299 109.561 53.9975 109.604 54.418H108.42C108.355 54.125 108.206 53.8727 107.972 53.6611C107.742 53.4495 107.432 53.3436 107.044 53.3436C106.705 53.3436 106.408 53.4332 106.153 53.6122C105.901 53.7886 105.704 54.0409 105.563 54.3692C105.422 54.6947 105.351 55.08 105.351 55.5249C105.351 55.9807 105.421 56.3741 105.559 56.7051C105.697 57.0361 105.893 57.2925 106.145 57.4743C106.4 57.656 106.7 57.7469 107.044 57.7469C107.275 57.7469 107.484 57.7049 107.671 57.6208C107.861 57.5339 108.02 57.4105 108.147 57.2504C108.277 57.0904 108.368 56.8977 108.42 56.6725H109.604C109.561 57.0768 109.429 57.4376 109.209 57.7551C108.99 58.0725 108.695 58.3221 108.326 58.5039C107.96 58.6856 107.53 58.7765 107.036 58.7765ZM114.865 56.058V52.3995H116.086V58.6504H114.89V57.5679H114.824C114.681 57.9016 114.45 58.1796 114.133 58.4021C113.818 58.6219 113.426 58.7318 112.956 58.7318C112.555 58.7318 112.2 58.6436 111.89 58.4672C111.584 58.2882 111.342 58.0236 111.166 57.6737C110.992 57.3237 110.905 56.8909 110.905 56.3755V52.3995H112.122V56.229C112.122 56.6549 112.24 56.994 112.476 57.2464C112.712 57.4987 113.019 57.6248 113.396 57.6248C113.624 57.6248 113.85 57.5679 114.076 57.4539C114.304 57.34 114.492 57.1677 114.641 56.9371C114.793 56.7065 114.868 56.4135 114.865 56.058ZM117.721 58.6504V52.3995H118.897V53.3925H118.962C119.076 53.0561 119.277 52.7915 119.564 52.5989C119.855 52.4036 120.183 52.3059 120.549 52.3059C120.625 52.3059 120.715 52.3086 120.818 52.314C120.924 52.3195 121.006 52.3262 121.066 52.3344V53.4983C121.017 53.4847 120.93 53.4698 120.806 53.4535C120.681 53.4345 120.556 53.425 120.431 53.425C120.144 53.425 119.887 53.4861 119.662 53.6082C119.44 53.7275 119.263 53.8944 119.133 54.1087C119.003 54.3203 118.938 54.5618 118.938 54.8331V58.6504H117.721ZM123.882 58.7887C123.486 58.7887 123.128 58.7155 122.808 58.569C122.488 58.4198 122.234 58.2041 122.047 57.9219C121.862 57.6398 121.77 57.2938 121.77 56.8842C121.77 56.5315 121.838 56.2412 121.974 56.0133C122.109 55.7854 122.292 55.605 122.523 55.472C122.754 55.3391 123.011 55.2387 123.296 55.1709C123.581 55.1031 123.871 55.0515 124.167 55.0162C124.542 54.9728 124.845 54.9376 125.079 54.9104C125.312 54.8806 125.482 54.8331 125.587 54.768C125.693 54.7029 125.746 54.5971 125.746 54.4506V54.4221C125.746 54.0667 125.646 53.7913 125.445 53.596C125.247 53.4006 124.951 53.3029 124.558 53.3029C124.148 53.3029 123.825 53.3938 123.589 53.5756C123.356 53.7547 123.194 53.9541 123.105 54.1738L121.961 53.9134C122.097 53.5336 122.295 53.227 122.556 52.9937C122.819 52.7576 123.121 52.5867 123.463 52.4809C123.805 52.3724 124.164 52.3181 124.542 52.3181C124.791 52.3181 125.056 52.348 125.335 52.4076C125.617 52.4646 125.88 52.5704 126.125 52.7251C126.371 52.8797 126.574 53.1008 126.731 53.3884C126.888 53.6733 126.967 54.0436 126.967 54.4994V58.6504H125.779V57.7958H125.73C125.651 57.9531 125.533 58.1078 125.376 58.2597C125.218 58.4116 125.016 58.5378 124.769 58.6382C124.523 58.7385 124.227 58.7887 123.882 58.7887ZM124.147 57.812C124.483 57.812 124.771 57.7456 125.01 57.6126C125.251 57.4797 125.434 57.306 125.559 57.0917C125.686 56.8747 125.75 56.6427 125.75 56.3958V55.59C125.707 55.6335 125.623 55.6741 125.498 55.7121C125.376 55.7474 125.236 55.7786 125.079 55.8057C124.921 55.8301 124.768 55.8532 124.619 55.8749C124.47 55.8939 124.345 55.9102 124.244 55.9237C124.008 55.9536 123.793 56.0038 123.597 56.0743C123.405 56.1449 123.25 56.2466 123.133 56.3795C123.02 56.5098 122.963 56.6834 122.963 56.9004C122.963 57.2016 123.074 57.4295 123.296 57.5841C123.519 57.7361 123.802 57.812 124.147 57.812ZM131.506 52.3995V53.3762H128.091V52.3995H131.506ZM129.007 50.9019H130.224V56.815C130.224 57.051 130.259 57.2287 130.329 57.3481C130.4 57.4648 130.491 57.5448 130.602 57.5882C130.716 57.6289 130.84 57.6492 130.972 57.6492C131.07 57.6492 131.156 57.6425 131.229 57.6289C131.302 57.6153 131.359 57.6045 131.4 57.5963L131.62 58.6015C131.549 58.6287 131.449 58.6558 131.318 58.6829C131.188 58.7128 131.025 58.729 130.83 58.7318C130.51 58.7372 130.211 58.6802 129.935 58.5608C129.658 58.4415 129.434 58.257 129.263 58.0074C129.092 57.7578 129.007 57.4444 129.007 57.0673V50.9019ZM135.478 58.7765C134.863 58.7765 134.332 58.6449 133.887 58.3818C133.445 58.1159 133.103 57.7428 132.862 57.2626C132.623 56.7797 132.504 56.214 132.504 55.5656C132.504 54.9253 132.623 54.361 132.862 53.8727C133.103 53.3843 133.44 53.0032 133.871 52.7291C134.305 52.4551 134.812 52.3181 135.393 52.3181C135.746 52.3181 136.088 52.3764 136.419 52.4931C136.75 52.6098 137.047 52.7929 137.31 53.0425C137.573 53.2921 137.781 53.6163 137.932 54.0151C138.084 54.4112 138.16 54.8928 138.16 55.4598V55.8912H133.191V54.9796H136.968C136.968 54.6595 136.903 54.376 136.773 54.1291C136.642 53.8795 136.459 53.6828 136.223 53.539C135.99 53.3952 135.716 53.3233 135.401 53.3233C135.059 53.3233 134.761 53.4074 134.506 53.5756C134.254 53.7411 134.058 53.9581 133.92 54.2267C133.784 54.4926 133.716 54.7816 133.716 55.0936V55.8057C133.716 56.2235 133.79 56.5789 133.936 56.872C134.085 57.165 134.293 57.3888 134.559 57.5434C134.825 57.6954 135.135 57.7713 135.491 57.7713C135.721 57.7713 135.932 57.7388 136.121 57.6737C136.311 57.6058 136.476 57.5055 136.614 57.3725C136.752 57.2396 136.858 57.0754 136.931 56.8801L138.083 57.0876C137.991 57.4268 137.825 57.7239 137.587 57.9789C137.35 58.2312 137.053 58.4279 136.695 58.569C136.34 58.7073 135.934 58.7765 135.478 58.7765ZM145.237 58.7765C144.621 58.7765 144.091 58.6449 143.646 58.3818C143.204 58.1159 142.862 57.7428 142.621 57.2626C142.382 56.7797 142.262 56.214 142.262 55.5656C142.262 54.9253 142.382 54.361 142.621 53.8727C142.862 53.3843 143.198 53.0032 143.63 52.7291C144.064 52.4551 144.571 52.3181 145.152 52.3181C145.505 52.3181 145.846 52.3764 146.177 52.4931C146.508 52.6098 146.805 52.7929 147.069 53.0425C147.332 53.2921 147.539 53.6163 147.691 54.0151C147.843 54.4112 147.919 54.8928 147.919 55.4598V55.8912H142.95V54.9796H146.727C146.727 54.6595 146.662 54.376 146.531 54.1291C146.401 53.8795 146.218 53.6828 145.982 53.539C145.749 53.3952 145.475 53.3233 145.16 53.3233C144.818 53.3233 144.52 53.4074 144.265 53.5756C144.012 53.7411 143.817 53.9581 143.679 54.2267C143.543 54.4926 143.475 54.7816 143.475 55.0936V55.8057C143.475 56.2235 143.548 56.5789 143.695 56.872C143.844 57.165 144.052 57.3888 144.318 57.5434C144.583 57.6954 144.894 57.7713 145.25 57.7713C145.48 57.7713 145.69 57.7388 145.88 57.6737C146.07 57.6058 146.234 57.5055 146.373 57.3725C146.511 57.2396 146.617 57.0754 146.69 56.8801L147.842 57.0876C147.75 57.4268 147.584 57.7239 147.345 57.9789C147.109 58.2312 146.812 58.4279 146.454 58.569C146.099 58.7073 145.693 58.7765 145.237 58.7765ZM150.084 52.3995L151.464 54.8331L152.856 52.3995H154.186L152.237 55.5249L154.203 58.6504H152.872L151.464 56.3144L150.06 58.6504H148.725L150.67 55.5249L148.749 52.3995H150.084ZM157.822 58.7765C157.217 58.7765 156.697 58.6395 156.26 58.3655C155.826 58.0888 155.492 57.7076 155.259 57.2219C155.025 56.7363 154.909 56.1801 154.909 55.5534C154.909 54.9186 155.028 54.3583 155.267 53.8727C155.506 53.3843 155.842 53.0032 156.276 52.7291C156.71 52.4551 157.222 52.3181 157.81 52.3181C158.285 52.3181 158.708 52.4063 159.08 52.5826C159.452 52.7563 159.751 53.0004 159.979 53.3152C160.21 53.6299 160.347 53.9975 160.39 54.418H159.206C159.141 54.125 158.992 53.8727 158.758 53.6611C158.528 53.4495 158.219 53.3436 157.831 53.3436C157.491 53.3436 157.194 53.4332 156.939 53.6122C156.687 53.7886 156.49 54.0409 156.349 54.3692C156.208 54.6947 156.138 55.08 156.138 55.5249C156.138 55.9807 156.207 56.3741 156.345 56.7051C156.484 57.0361 156.679 57.2925 156.931 57.4743C157.186 57.656 157.486 57.7469 157.831 57.7469C158.061 57.7469 158.27 57.7049 158.457 57.6208C158.647 57.5339 158.806 57.4105 158.933 57.2504C159.064 57.0904 159.155 56.8977 159.206 56.6725H160.39C160.347 57.0768 160.215 57.4376 159.996 57.7551C159.776 58.0725 159.481 58.3221 159.113 58.5039C158.746 58.6856 158.316 58.7765 157.822 58.7765ZM162.908 54.9389V58.6504H161.692V50.3159H162.892V53.4169H162.969C163.116 53.0805 163.34 52.8132 163.641 52.6152C163.942 52.4171 164.335 52.3181 164.821 52.3181C165.25 52.3181 165.624 52.4063 165.944 52.5826C166.267 52.759 166.517 53.0221 166.693 53.3721C166.872 53.7194 166.962 54.1535 166.962 54.6744V58.6504H165.745V54.8209C165.745 54.3624 165.627 54.007 165.391 53.7547C165.155 53.4996 164.827 53.3721 164.406 53.3721C164.118 53.3721 163.861 53.4332 163.633 53.5553C163.408 53.6773 163.23 53.8564 163.1 54.0924C162.972 54.3258 162.908 54.6079 162.908 54.9389ZM170.405 58.7887C170.008 58.7887 169.65 58.7155 169.33 58.569C169.01 58.4198 168.756 58.2041 168.569 57.9219C168.385 57.6398 168.292 57.2938 168.292 56.8842C168.292 56.5315 168.36 56.2412 168.496 56.0133C168.632 55.7854 168.815 55.605 169.045 55.472C169.276 55.3391 169.534 55.2387 169.819 55.1709C170.103 55.1031 170.394 55.0515 170.689 55.0162C171.064 54.9728 171.368 54.9376 171.601 54.9104C171.834 54.8806 172.004 54.8331 172.11 54.768C172.216 54.7029 172.268 54.5971 172.268 54.4506V54.4221C172.268 54.0667 172.168 53.7913 171.967 53.596C171.769 53.4006 171.473 53.3029 171.08 53.3029C170.67 53.3029 170.348 53.3938 170.112 53.5756C169.878 53.7547 169.717 53.9541 169.627 54.1738L168.484 53.9134C168.619 53.5336 168.817 53.227 169.078 52.9937C169.341 52.7576 169.644 52.5867 169.985 52.4809C170.327 52.3724 170.687 52.3181 171.064 52.3181C171.313 52.3181 171.578 52.348 171.857 52.4076C172.14 52.4646 172.403 52.5704 172.647 52.7251C172.894 52.8797 173.096 53.1008 173.253 53.3884C173.411 53.6733 173.489 54.0436 173.489 54.4994V58.6504H172.301V57.7958H172.252C172.173 57.9531 172.055 58.1078 171.898 58.2597C171.741 58.4116 171.539 58.5378 171.292 58.6382C171.045 58.7385 170.749 58.7887 170.405 58.7887ZM170.669 57.812C171.005 57.812 171.293 57.7456 171.532 57.6126C171.773 57.4797 171.956 57.306 172.081 57.0917C172.209 56.8747 172.272 56.6427 172.272 56.3958V55.59C172.229 55.6335 172.145 55.6741 172.02 55.7121C171.898 55.7474 171.758 55.7786 171.601 55.8057C171.444 55.8301 171.29 55.8532 171.141 55.8749C170.992 55.8939 170.867 55.9102 170.767 55.9237C170.531 55.9536 170.315 56.0038 170.12 56.0743C169.927 56.1449 169.772 56.2466 169.656 56.3795C169.542 56.5098 169.485 56.6834 169.485 56.9004C169.485 57.2016 169.596 57.4295 169.819 57.5841C170.041 57.7361 170.325 57.812 170.669 57.812ZM176.327 54.9389V58.6504H175.11V52.3995H176.278V53.4169H176.355C176.499 53.0859 176.724 52.82 177.031 52.6193C177.34 52.4185 177.729 52.3181 178.199 52.3181C178.625 52.3181 178.998 52.4076 179.318 52.5867C179.638 52.763 179.886 53.0262 180.063 53.3762C180.239 53.7262 180.327 54.1589 180.327 54.6744V58.6504H179.11V54.8209C179.11 54.3678 178.992 54.0138 178.756 53.7587C178.52 53.501 178.196 53.3721 177.784 53.3721C177.502 53.3721 177.251 53.4332 177.031 53.5553C176.814 53.6773 176.642 53.8564 176.514 54.0924C176.389 54.3258 176.327 54.6079 176.327 54.9389ZM184.58 61.1247C184.083 61.1247 183.656 61.0595 183.298 60.9293C182.943 60.7991 182.652 60.6268 182.427 60.4125C182.202 60.1982 182.034 59.9635 181.922 59.7084L182.968 59.2771C183.042 59.3964 183.139 59.5226 183.261 59.6555C183.386 59.7912 183.554 59.9065 183.766 60.0015C183.98 60.0964 184.256 60.1439 184.592 60.1439C185.053 60.1439 185.434 60.0313 185.736 59.8061C186.037 59.5836 186.187 59.2282 186.187 58.7399V57.5109H186.11C186.037 57.6438 185.931 57.7917 185.793 57.9545C185.657 58.1172 185.47 58.2583 185.231 58.3777C184.992 58.4971 184.682 58.5568 184.299 58.5568C183.805 58.5568 183.36 58.4415 182.964 58.2108C182.571 57.9775 182.259 57.6343 182.028 57.1812C181.8 56.7255 181.686 56.1652 181.686 55.5005C181.686 54.8358 181.799 54.2661 182.024 53.7913C182.252 53.3165 182.564 52.953 182.96 52.7006C183.356 52.4456 183.805 52.3181 184.307 52.3181C184.695 52.3181 185.009 52.3832 185.247 52.5134C185.486 52.641 185.672 52.7902 185.805 52.9611C185.94 53.132 186.045 53.2826 186.118 53.4128H186.208V52.3995H187.4V58.7887C187.4 59.3259 187.275 59.7668 187.026 60.1113C186.776 60.4559 186.438 60.7109 186.012 60.8764C185.589 61.0419 185.112 61.1247 184.58 61.1247ZM184.568 57.5475C184.918 57.5475 185.213 57.4661 185.455 57.3033C185.699 57.1378 185.883 56.9018 186.008 56.5952C186.136 56.2859 186.2 55.9156 186.2 55.4842C186.2 55.0637 186.137 54.6934 186.012 54.3732C185.888 54.0531 185.704 53.8035 185.463 53.6244C185.222 53.4427 184.923 53.3518 184.568 53.3518C184.201 53.3518 183.896 53.4467 183.652 53.6367C183.408 53.8239 183.223 54.0789 183.099 54.4017C182.976 54.7246 182.915 55.0854 182.915 55.4842C182.915 55.8939 182.978 56.2534 183.103 56.5627C183.227 56.872 183.412 57.1134 183.656 57.2871C183.903 57.4607 184.207 57.5475 184.568 57.5475ZM191.726 58.7765C191.11 58.7765 190.58 58.6449 190.135 58.3818C189.693 58.1159 189.351 57.7428 189.109 57.2626C188.871 56.7797 188.751 56.214 188.751 55.5656C188.751 54.9253 188.871 54.361 189.109 53.8727C189.351 53.3843 189.687 53.0032 190.119 52.7291C190.553 52.4551 191.06 52.3181 191.641 52.3181C191.993 52.3181 192.335 52.3764 192.666 52.4931C192.997 52.6098 193.294 52.7929 193.557 53.0425C193.821 53.2921 194.028 53.6163 194.18 54.0151C194.332 54.4112 194.408 54.8928 194.408 55.4598V55.8912H189.439V54.9796H193.216C193.216 54.6595 193.15 54.376 193.02 54.1291C192.89 53.8795 192.707 53.6828 192.471 53.539C192.237 53.3952 191.963 53.3233 191.649 53.3233C191.307 53.3233 191.008 53.4074 190.753 53.5756C190.501 53.7411 190.306 53.9581 190.167 54.2267C190.032 54.4926 189.964 54.7816 189.964 55.0936V55.8057C189.964 56.2235 190.037 56.5789 190.184 56.872C190.333 57.165 190.54 57.3888 190.806 57.5434C191.072 57.6954 191.383 57.7713 191.738 57.7713C191.969 57.7713 192.179 57.7388 192.369 57.6737C192.559 57.6058 192.723 57.5055 192.861 57.3725C193 57.2396 193.106 57.0754 193.179 56.8801L194.331 57.0876C194.238 57.4268 194.073 57.7239 193.834 57.9789C193.598 58.2312 193.301 58.4279 192.943 58.569C192.587 58.7073 192.182 58.7765 191.726 58.7765ZM198.791 58.6504V52.3995H199.967V53.3925H200.032C200.146 53.0561 200.347 52.7915 200.634 52.5989C200.925 52.4036 201.253 52.3059 201.619 52.3059C201.695 52.3059 201.785 52.3086 201.888 52.314C201.994 52.3195 202.076 52.3262 202.136 52.3344V53.4983C202.087 53.4847 202 53.4698 201.876 53.4535C201.751 53.4345 201.626 53.425 201.501 53.425C201.214 53.425 200.957 53.4861 200.732 53.6082C200.51 53.7275 200.333 53.8944 200.203 54.1087C200.073 54.3203 200.008 54.5618 200.008 54.8331V58.6504H198.791ZM204.952 58.7887C204.556 58.7887 204.198 58.7155 203.878 58.569C203.558 58.4198 203.304 58.2041 203.117 57.9219C202.932 57.6398 202.84 57.2938 202.84 56.8842C202.84 56.5315 202.908 56.2412 203.044 56.0133C203.179 55.7854 203.362 55.605 203.593 55.472C203.824 55.3391 204.081 55.2387 204.366 55.1709C204.651 55.1031 204.941 55.0515 205.237 55.0162C205.611 54.9728 205.915 54.9376 206.149 54.9104C206.382 54.8806 206.551 54.8331 206.657 54.768C206.763 54.7029 206.816 54.5971 206.816 54.4506V54.4221C206.816 54.0667 206.716 53.7913 206.515 53.596C206.317 53.4006 206.021 53.3029 205.628 53.3029C205.218 53.3029 204.895 53.3938 204.659 53.5756C204.426 53.7547 204.264 53.9541 204.175 54.1738L203.031 53.9134C203.167 53.5336 203.365 53.227 203.625 52.9937C203.889 52.7576 204.191 52.5867 204.533 52.4809C204.875 52.3724 205.234 52.3181 205.611 52.3181C205.861 52.3181 206.126 52.348 206.405 52.4076C206.687 52.4646 206.95 52.5704 207.194 52.7251C207.441 52.8797 207.643 53.1008 207.801 53.3884C207.958 53.6733 208.037 54.0436 208.037 54.4994V58.6504H206.849V57.7958H206.8C206.721 57.9531 206.603 58.1078 206.446 58.2597C206.288 58.4116 206.086 58.5378 205.839 58.6382C205.592 58.7385 205.297 58.7887 204.952 58.7887ZM205.217 57.812C205.553 57.812 205.841 57.7456 206.079 57.6126C206.321 57.4797 206.504 57.306 206.629 57.0917C206.756 56.8747 206.82 56.6427 206.82 56.3958V55.59C206.777 55.6335 206.693 55.6741 206.568 55.7121C206.446 55.7474 206.306 55.7786 206.149 55.8057C205.991 55.8301 205.838 55.8532 205.689 55.8749C205.54 55.8939 205.415 55.9102 205.314 55.9237C205.078 55.9536 204.863 56.0038 204.667 56.0743C204.475 56.1449 204.32 56.2466 204.203 56.3795C204.089 56.5098 204.032 56.6834 204.032 56.9004C204.032 57.2016 204.144 57.4295 204.366 57.5841C204.589 57.7361 204.872 57.812 205.217 57.812ZM212.575 52.3995V53.3762H209.161V52.3995H212.575ZM210.077 50.9019H211.294V56.815C211.294 57.051 211.329 57.2287 211.399 57.3481C211.47 57.4648 211.561 57.5448 211.672 57.5882C211.786 57.6289 211.909 57.6492 212.042 57.6492C212.14 57.6492 212.225 57.6425 212.299 57.6289C212.372 57.6153 212.429 57.6045 212.47 57.5963L212.689 58.6015C212.619 58.6287 212.518 58.6558 212.388 58.6829C212.258 58.7128 212.095 58.729 211.9 58.7318C211.58 58.7372 211.281 58.6802 211.005 58.5608C210.728 58.4415 210.504 58.257 210.333 58.0074C210.162 57.7578 210.077 57.4444 210.077 57.0673V50.9019ZM216.548 58.7765C215.933 58.7765 215.402 58.6449 214.957 58.3818C214.515 58.1159 214.173 57.7428 213.932 57.2626C213.693 56.7797 213.574 56.214 213.574 55.5656C213.574 54.9253 213.693 54.361 213.932 53.8727C214.173 53.3843 214.51 53.0032 214.941 52.7291C215.375 52.4551 215.882 52.3181 216.463 52.3181C216.816 52.3181 217.157 52.3764 217.488 52.4931C217.819 52.6098 218.117 52.7929 218.38 53.0425C218.643 53.2921 218.85 53.6163 219.002 54.0151C219.154 54.4112 219.23 54.8928 219.23 55.4598V55.8912H214.261V54.9796H218.038C218.038 54.6595 217.973 54.376 217.843 54.1291C217.712 53.8795 217.529 53.6828 217.293 53.539C217.06 53.3952 216.786 53.3233 216.471 53.3233C216.129 53.3233 215.831 53.4074 215.576 53.5756C215.323 53.7411 215.128 53.9581 214.99 54.2267C214.854 54.4926 214.786 54.7816 214.786 55.0936V55.8057C214.786 56.2235 214.86 56.5789 215.006 56.872C215.155 57.165 215.363 57.3888 215.629 57.5434C215.895 57.6954 216.205 57.7713 216.561 57.7713C216.791 57.7713 217.001 57.7388 217.191 57.6737C217.381 57.6058 217.545 57.5055 217.684 57.3725C217.822 57.2396 217.928 57.0754 218.001 56.8801L219.153 57.0876C219.061 57.4268 218.895 57.7239 218.656 57.9789C218.42 58.2312 218.123 58.4279 217.765 58.569C217.41 58.7073 217.004 58.7765 216.548 58.7765ZM225.264 53.9256L224.162 54.1209C224.115 53.9799 224.042 53.8456 223.942 53.718C223.844 53.5905 223.711 53.4861 223.543 53.4047C223.375 53.3233 223.164 53.2826 222.912 53.2826C222.568 53.2826 222.28 53.3599 222.049 53.5146C221.819 53.6665 221.704 53.8632 221.704 54.1047C221.704 54.3136 221.781 54.4818 221.935 54.6093C222.09 54.7368 222.34 54.8412 222.684 54.9226L223.677 55.1505C224.252 55.2835 224.681 55.4883 224.963 55.765C225.245 56.0418 225.386 56.4012 225.386 56.8435C225.386 57.2179 225.278 57.5516 225.061 57.8446C224.847 58.1349 224.547 58.3628 224.162 58.5283C223.779 58.6938 223.335 58.7765 222.831 58.7765C222.131 58.7765 221.56 58.6273 221.117 58.3289C220.675 58.0277 220.404 57.6004 220.304 57.0469L221.48 56.8679C221.553 57.1745 221.704 57.4064 221.931 57.5638C222.159 57.7184 222.456 57.7958 222.823 57.7958C223.221 57.7958 223.54 57.713 223.779 57.5475C224.018 57.3793 224.137 57.1745 224.137 56.933C224.137 56.7377 224.064 56.5735 223.917 56.4406C223.774 56.3076 223.552 56.2073 223.254 56.1394L222.196 55.9075C221.613 55.7745 221.181 55.5629 220.902 55.2726C220.625 54.9823 220.487 54.6147 220.487 54.1698C220.487 53.8008 220.59 53.4779 220.796 53.2012C221.002 52.9245 221.287 52.7088 221.651 52.5541C222.014 52.3968 222.431 52.3181 222.9 52.3181C223.576 52.3181 224.107 52.4646 224.495 52.7576C224.883 53.0479 225.14 53.4372 225.264 53.9256ZM232.732 52.3995V53.3762H229.2V52.3995H232.732ZM230.168 58.6504V51.6751C230.168 51.2844 230.254 50.9602 230.425 50.7025C230.596 50.442 230.822 50.2481 231.104 50.1205C231.386 49.9903 231.693 49.9252 232.024 49.9252C232.268 49.9252 232.477 49.9456 232.651 49.9862C232.824 50.0242 232.953 50.0595 233.037 50.0921L232.752 51.0769C232.695 51.0606 232.622 51.0416 232.533 51.0199C232.443 50.9955 232.335 50.9833 232.207 50.9833C231.911 50.9833 231.7 51.0565 231.572 51.203C231.447 51.3496 231.385 51.5612 231.385 51.8379V58.6504H230.168ZM236.374 58.7765C235.788 58.7765 235.277 58.6422 234.84 58.3736C234.403 58.105 234.064 57.7293 233.823 57.2464C233.581 56.7634 233.46 56.1991 233.46 55.5534C233.46 54.905 233.581 54.338 233.823 53.8523C234.064 53.3667 234.403 52.9896 234.84 52.721C235.277 52.4524 235.788 52.3181 236.374 52.3181C236.96 52.3181 237.472 52.4524 237.909 52.721C238.345 52.9896 238.684 53.3667 238.926 53.8523C239.167 54.338 239.288 54.905 239.288 55.5534C239.288 56.1991 239.167 56.7634 238.926 57.2464C238.684 57.7293 238.345 58.105 237.909 58.3736C237.472 58.6422 236.96 58.7765 236.374 58.7765ZM236.378 57.7551C236.758 57.7551 237.073 57.6547 237.323 57.4539C237.572 57.2531 237.757 56.9859 237.876 56.6522C237.998 56.3185 238.059 55.9509 238.059 55.5493C238.059 55.1505 237.998 54.7843 237.876 54.4506C237.757 54.1141 237.572 53.8442 237.323 53.6407C237.073 53.4372 236.758 53.3355 236.378 53.3355C235.996 53.3355 235.678 53.4372 235.426 53.6407C235.176 53.8442 234.991 54.1141 234.869 54.4506C234.749 54.7843 234.69 55.1505 234.69 55.5493C234.69 55.9509 234.749 56.3185 234.869 56.6522C234.991 56.9859 235.176 57.2531 235.426 57.4539C235.678 57.6547 235.996 57.7551 236.378 57.7551ZM240.646 58.6504V52.3995H241.822V53.3925H241.888C242.002 53.0561 242.202 52.7915 242.49 52.5989C242.78 52.4036 243.108 52.3059 243.475 52.3059C243.551 52.3059 243.64 52.3086 243.743 52.314C243.849 52.3195 243.932 52.3262 243.992 52.3344V53.4983C243.943 53.4847 243.856 53.4698 243.731 53.4535C243.606 53.4345 243.481 53.425 243.357 53.425C243.069 53.425 242.813 53.4861 242.588 53.6082C242.365 53.7275 242.189 53.8944 242.058 54.1087C241.928 54.3203 241.863 54.5618 241.863 54.8331V58.6504H240.646ZM250.771 58.7765C250.156 58.7765 249.625 58.6449 249.18 58.3818C248.738 58.1159 248.396 57.7428 248.155 57.2626C247.916 56.7797 247.797 56.214 247.797 55.5656C247.797 54.9253 247.916 54.361 248.155 53.8727C248.396 53.3843 248.733 53.0032 249.164 52.7291C249.598 52.4551 250.105 52.3181 250.686 52.3181C251.039 52.3181 251.381 52.3764 251.711 52.4931C252.042 52.6098 252.34 52.7929 252.603 53.0425C252.866 53.2921 253.073 53.6163 253.225 54.0151C253.377 54.4112 253.453 54.8928 253.453 55.4598V55.8912H248.484V54.9796H252.261C252.261 54.6595 252.196 54.376 252.066 54.1291C251.935 53.8795 251.752 53.6828 251.516 53.539C251.283 53.3952 251.009 53.3233 250.694 53.3233C250.352 53.3233 250.054 53.4074 249.799 53.5756C249.546 53.7411 249.351 53.9581 249.213 54.2267C249.077 54.4926 249.009 54.7816 249.009 55.0936V55.8057C249.009 56.2235 249.083 56.5789 249.229 56.872C249.378 57.165 249.586 57.3888 249.852 57.5434C250.118 57.6954 250.428 57.7713 250.784 57.7713C251.014 57.7713 251.225 57.7388 251.414 57.6737C251.604 57.6058 251.768 57.5055 251.907 57.3725C252.045 57.2396 252.151 57.0754 252.224 56.8801L253.376 57.0876C253.284 57.4268 253.118 57.7239 252.879 57.9789C252.643 58.2312 252.346 58.4279 251.988 58.569C251.633 58.7073 251.227 58.7765 250.771 58.7765ZM256.622 58.7887C256.226 58.7887 255.868 58.7155 255.548 58.569C255.228 58.4198 254.974 58.2041 254.787 57.9219C254.603 57.6398 254.51 57.2938 254.51 56.8842C254.51 56.5315 254.578 56.2412 254.714 56.0133C254.849 55.7854 255.033 55.605 255.263 55.472C255.494 55.3391 255.752 55.2387 256.036 55.1709C256.321 55.1031 256.612 55.0515 256.907 55.0162C257.282 54.9728 257.586 54.9376 257.819 54.9104C258.052 54.8806 258.222 54.8331 258.328 54.768C258.433 54.7029 258.486 54.5971 258.486 54.4506V54.4221C258.486 54.0667 258.386 53.7913 258.185 53.596C257.987 53.4006 257.691 53.3029 257.298 53.3029C256.888 53.3029 256.565 53.3938 256.329 53.5756C256.096 53.7547 255.935 53.9541 255.845 54.1738L254.702 53.9134C254.837 53.5336 255.035 53.227 255.296 52.9937C255.559 52.7576 255.861 52.5867 256.203 52.4809C256.545 52.3724 256.905 52.3181 257.282 52.3181C257.531 52.3181 257.796 52.348 258.075 52.4076C258.357 52.4646 258.621 52.5704 258.865 52.7251C259.112 52.8797 259.314 53.1008 259.471 53.3884C259.629 53.6733 259.707 54.0436 259.707 54.4994V58.6504H258.519V57.7958H258.47C258.391 57.9531 258.273 58.1078 258.116 58.2597C257.959 58.4116 257.757 58.5378 257.51 58.6382C257.263 58.7385 256.967 58.7887 256.622 58.7887ZM256.887 57.812C257.223 57.812 257.511 57.7456 257.75 57.6126C257.991 57.4797 258.174 57.306 258.299 57.0917C258.427 56.8747 258.49 56.6427 258.49 56.3958V55.59C258.447 55.6335 258.363 55.6741 258.238 55.7121C258.116 55.7474 257.976 55.7786 257.819 55.8057C257.662 55.8301 257.508 55.8532 257.359 55.8749C257.21 55.8939 257.085 55.9102 256.985 55.9237C256.749 55.9536 256.533 56.0038 256.338 56.0743C256.145 56.1449 255.99 56.2466 255.874 56.3795C255.76 56.5098 255.703 56.6834 255.703 56.9004C255.703 57.2016 255.814 57.4295 256.036 57.5841C256.259 57.7361 256.542 57.812 256.887 57.812ZM266.012 53.9256L264.909 54.1209C264.863 53.9799 264.79 53.8456 264.689 53.718C264.592 53.5905 264.459 53.4861 264.291 53.4047C264.122 53.3233 263.912 53.2826 263.66 53.2826C263.315 53.2826 263.028 53.3599 262.797 53.5146C262.566 53.6665 262.451 53.8632 262.451 54.1047C262.451 54.3136 262.528 54.4818 262.683 54.6093C262.838 54.7368 263.087 54.8412 263.432 54.9226L264.425 55.1505C265 55.2835 265.429 55.4883 265.711 55.765C265.993 56.0418 266.134 56.4012 266.134 56.8435C266.134 57.2179 266.026 57.5516 265.808 57.8446C265.594 58.1349 265.294 58.3628 264.909 58.5283C264.527 58.6938 264.083 58.7765 263.578 58.7765C262.878 58.7765 262.307 58.6273 261.865 58.3289C261.423 58.0277 261.152 57.6004 261.051 57.0469L262.227 56.8679C262.301 57.1745 262.451 57.4064 262.679 57.5638C262.907 57.7184 263.204 57.7958 263.57 57.7958C263.969 57.7958 264.288 57.713 264.527 57.5475C264.765 57.3793 264.885 57.1745 264.885 56.933C264.885 56.7377 264.811 56.5735 264.665 56.4406C264.521 56.3076 264.3 56.2073 264.002 56.1394L262.944 55.9075C262.36 55.7745 261.929 55.5629 261.649 55.2726C261.373 54.9823 261.234 54.6147 261.234 54.1698C261.234 53.8008 261.337 53.4779 261.544 53.2012C261.75 52.9245 262.035 52.7088 262.398 52.5541C262.762 52.3968 263.178 52.3181 263.648 52.3181C264.323 52.3181 264.855 52.4646 265.243 52.7576C265.631 53.0479 265.887 53.4372 266.012 53.9256ZM268.241 60.9944C268.059 60.9944 267.894 60.9795 267.745 60.9497C267.595 60.9225 267.484 60.8927 267.411 60.8601L267.704 59.8631C267.926 59.9228 268.124 59.9486 268.298 59.9404C268.472 59.9323 268.625 59.8672 268.758 59.7451C268.894 59.623 269.013 59.4236 269.116 59.1468L269.267 58.7318L266.98 52.3995H268.282L269.865 57.2504H269.93L271.513 52.3995H272.819L270.243 59.4846C270.124 59.8102 269.972 60.0856 269.788 60.3107C269.603 60.5386 269.383 60.7096 269.128 60.8235C268.873 60.9375 268.577 60.9944 268.241 60.9944ZM279.914 52.3995V53.3762H276.499V52.3995H279.914ZM277.415 50.9019H278.632V56.815C278.632 57.051 278.667 57.2287 278.738 57.3481C278.808 57.4648 278.899 57.5448 279.01 57.5882C279.124 57.6289 279.248 57.6492 279.381 57.6492C279.478 57.6492 279.564 57.6425 279.637 57.6289C279.71 57.6153 279.767 57.6045 279.808 57.5963L280.028 58.6015C279.957 58.6287 279.857 58.6558 279.726 58.6829C279.596 58.7128 279.433 58.729 279.238 58.7318C278.918 58.7372 278.619 58.6802 278.343 58.5608C278.066 58.4415 277.842 58.257 277.671 58.0074C277.5 57.7578 277.415 57.4444 277.415 57.0673V50.9019ZM281.26 58.6504V52.3995H282.436V53.3925H282.501C282.615 53.0561 282.816 52.7915 283.103 52.5989C283.393 52.4036 283.722 52.3059 284.088 52.3059C284.164 52.3059 284.253 52.3086 284.357 52.314C284.462 52.3195 284.545 52.3262 284.605 52.3344V53.4983C284.556 53.4847 284.469 53.4698 284.344 53.4535C284.22 53.4345 284.095 53.425 283.97 53.425C283.682 53.425 283.426 53.4861 283.201 53.6082C282.978 53.7275 282.802 53.8944 282.672 54.1087C282.542 54.3203 282.476 54.5618 282.476 54.8331V58.6504H281.26ZM287.421 58.7887C287.025 58.7887 286.667 58.7155 286.347 58.569C286.026 58.4198 285.773 58.2041 285.586 57.9219C285.401 57.6398 285.309 57.2938 285.309 56.8842C285.309 56.5315 285.377 56.2412 285.512 56.0133C285.648 55.7854 285.831 55.605 286.062 55.472C286.292 55.3391 286.55 55.2387 286.835 55.1709C287.12 55.1031 287.41 55.0515 287.706 55.0162C288.08 54.9728 288.384 54.9376 288.617 54.9104C288.851 54.8806 289.02 54.8331 289.126 54.768C289.232 54.7029 289.285 54.5971 289.285 54.4506V54.4221C289.285 54.0667 289.184 53.7913 288.984 53.596C288.786 53.4006 288.49 53.3029 288.097 53.3029C287.687 53.3029 287.364 53.3938 287.128 53.5756C286.895 53.7547 286.733 53.9541 286.644 54.1738L285.5 53.9134C285.636 53.5336 285.834 53.227 286.094 52.9937C286.357 52.7576 286.66 52.5867 287.002 52.4809C287.344 52.3724 287.703 52.3181 288.08 52.3181C288.33 52.3181 288.594 52.348 288.874 52.4076C289.156 52.4646 289.419 52.5704 289.663 52.7251C289.91 52.8797 290.112 53.1008 290.27 53.3884C290.427 53.6733 290.506 54.0436 290.506 54.4994V58.6504H289.317V57.7958H289.269C289.19 57.9531 289.072 58.1078 288.914 58.2597C288.757 58.4116 288.555 58.5378 288.308 58.6382C288.061 58.7385 287.766 58.7887 287.421 58.7887ZM287.685 57.812C288.022 57.812 288.309 57.7456 288.548 57.6126C288.79 57.4797 288.973 57.306 289.098 57.0917C289.225 56.8747 289.289 56.6427 289.289 56.3958V55.59C289.245 55.6335 289.161 55.6741 289.037 55.7121C288.914 55.7474 288.775 55.7786 288.617 55.8057C288.46 55.8301 288.307 55.8532 288.158 55.8749C288.008 55.8939 287.884 55.9102 287.783 55.9237C287.547 55.9536 287.331 56.0038 287.136 56.0743C286.943 56.1449 286.789 56.2466 286.672 56.3795C286.558 56.5098 286.501 56.6834 286.501 56.9004C286.501 57.2016 286.612 57.4295 286.835 57.5841C287.057 57.7361 287.341 57.812 287.685 57.812ZM293.343 54.9389V58.6504H292.126V52.3995H293.294V53.4169H293.372C293.515 53.0859 293.741 52.82 294.047 52.6193C294.357 52.4185 294.746 52.3181 295.215 52.3181C295.641 52.3181 296.014 52.4076 296.334 52.5867C296.654 52.763 296.903 53.0262 297.079 53.3762C297.255 53.7262 297.344 54.1589 297.344 54.6744V58.6504H296.127V54.8209C296.127 54.3678 296.009 54.0138 295.773 53.7587C295.537 53.501 295.212 53.3721 294.8 53.3721C294.518 53.3721 294.267 53.4332 294.047 53.5553C293.83 53.6773 293.658 53.8564 293.53 54.0924C293.406 54.3258 293.343 54.6079 293.343 54.9389ZM303.66 53.9256L302.557 54.1209C302.511 53.9799 302.437 53.8456 302.337 53.718C302.239 53.5905 302.106 53.4861 301.938 53.4047C301.77 53.3233 301.56 53.2826 301.307 53.2826C300.963 53.2826 300.675 53.3599 300.445 53.5146C300.214 53.6665 300.099 53.8632 300.099 54.1047C300.099 54.3136 300.176 54.4818 300.331 54.6093C300.485 54.7368 300.735 54.8412 301.079 54.9226L302.072 55.1505C302.648 55.2835 303.076 55.4883 303.358 55.765C303.641 56.0418 303.782 56.4012 303.782 56.8435C303.782 57.2179 303.673 57.5516 303.456 57.8446C303.242 58.1349 302.942 58.3628 302.557 58.5283C302.174 58.6938 301.731 58.7765 301.226 58.7765C300.526 58.7765 299.955 58.6273 299.513 58.3289C299.07 58.0277 298.799 57.6004 298.699 57.0469L299.875 56.8679C299.948 57.1745 300.099 57.4064 300.327 57.5638C300.554 57.7184 300.852 57.7958 301.218 57.7958C301.617 57.7958 301.935 57.713 302.174 57.5475C302.413 57.3793 302.532 57.1745 302.532 56.933C302.532 56.7377 302.459 56.5735 302.313 56.4406C302.169 56.3076 301.948 56.2073 301.649 56.1394L300.591 55.9075C300.008 55.7745 299.576 55.5629 299.297 55.2726C299.02 54.9823 298.882 54.6147 298.882 54.1698C298.882 53.8008 298.985 53.4779 299.191 53.2012C299.397 52.9245 299.682 52.7088 300.046 52.5541C300.409 52.3968 300.826 52.3181 301.295 52.3181C301.971 52.3181 302.502 52.4646 302.89 52.7576C303.278 53.0479 303.535 53.4372 303.66 53.9256ZM306.939 58.7887C306.543 58.7887 306.184 58.7155 305.864 58.569C305.544 58.4198 305.29 58.2041 305.103 57.9219C304.919 57.6398 304.827 57.2938 304.827 56.8842C304.827 56.5315 304.894 56.2412 305.03 56.0133C305.166 55.7854 305.349 55.605 305.579 55.472C305.81 55.3391 306.068 55.2387 306.353 55.1709C306.637 55.1031 306.928 55.0515 307.223 55.0162C307.598 54.9728 307.902 54.9376 308.135 54.9104C308.368 54.8806 308.538 54.8331 308.644 54.768C308.75 54.7029 308.802 54.5971 308.802 54.4506V54.4221C308.802 54.0667 308.702 53.7913 308.501 53.596C308.303 53.4006 308.008 53.3029 307.614 53.3029C307.204 53.3029 306.882 53.3938 306.646 53.5756C306.412 53.7547 306.251 53.9541 306.161 54.1738L305.018 53.9134C305.153 53.5336 305.351 53.227 305.612 52.9937C305.875 52.7576 306.178 52.5867 306.519 52.4809C306.861 52.3724 307.221 52.3181 307.598 52.3181C307.847 52.3181 308.112 52.348 308.391 52.4076C308.674 52.4646 308.937 52.5704 309.181 52.7251C309.428 52.8797 309.63 53.1008 309.787 53.3884C309.945 53.6733 310.023 54.0436 310.023 54.4994V58.6504H308.835V57.7958H308.786C308.708 57.9531 308.589 58.1078 308.432 58.2597C308.275 58.4116 308.073 58.5378 307.826 58.6382C307.579 58.7385 307.283 58.7887 306.939 58.7887ZM307.203 57.812C307.54 57.812 307.827 57.7456 308.066 57.6126C308.307 57.4797 308.49 57.306 308.615 57.0917C308.743 56.8747 308.807 56.6427 308.807 56.3958V55.59C308.763 55.6335 308.679 55.6741 308.554 55.7121C308.432 55.7474 308.292 55.7786 308.135 55.8057C307.978 55.8301 307.824 55.8532 307.675 55.8749C307.526 55.8939 307.401 55.9102 307.301 55.9237C307.065 55.9536 306.849 56.0038 306.654 56.0743C306.461 56.1449 306.306 56.2466 306.19 56.3795C306.076 56.5098 306.019 56.6834 306.019 56.9004C306.019 57.2016 306.13 57.4295 306.353 57.5841C306.575 57.7361 306.859 57.812 307.203 57.812ZM314.277 58.7765C313.672 58.7765 313.151 58.6395 312.714 58.3655C312.28 58.0888 311.947 57.7076 311.713 57.2219C311.48 56.7363 311.363 56.1801 311.363 55.5534C311.363 54.9186 311.483 54.3583 311.721 53.8727C311.96 53.3843 312.297 53.0032 312.731 52.7291C313.165 52.4551 313.676 52.3181 314.265 52.3181C314.74 52.3181 315.163 52.4063 315.535 52.5826C315.906 52.7563 316.206 53.0004 316.434 53.3152C316.665 53.6299 316.802 53.9975 316.845 54.418H315.661C315.596 54.125 315.446 53.8727 315.213 53.6611C314.982 53.4495 314.673 53.3436 314.285 53.3436C313.946 53.3436 313.649 53.4332 313.394 53.6122C313.142 53.7886 312.945 54.0409 312.804 54.3692C312.663 54.6947 312.592 55.08 312.592 55.5249C312.592 55.9807 312.661 56.3741 312.8 56.7051C312.938 57.0361 313.134 57.2925 313.386 57.4743C313.641 57.656 313.941 57.7469 314.285 57.7469C314.516 57.7469 314.725 57.7049 314.912 57.6208C315.102 57.5339 315.261 57.4105 315.388 57.2504C315.518 57.0904 315.609 56.8977 315.661 56.6725H316.845C316.802 57.0768 316.67 57.4376 316.45 57.7551C316.23 58.0725 315.936 58.3221 315.567 58.5039C315.201 58.6856 314.771 58.7765 314.277 58.7765ZM321.064 52.3995V53.3762H317.65V52.3995H321.064ZM318.565 50.9019H319.782V56.815C319.782 57.051 319.817 57.2287 319.888 57.3481C319.959 57.4648 320.049 57.5448 320.161 57.5882C320.275 57.6289 320.398 57.6492 320.531 57.6492C320.629 57.6492 320.714 57.6425 320.787 57.6289C320.861 57.6153 320.918 57.6045 320.958 57.5963L321.178 58.6015C321.107 58.6287 321.007 58.6558 320.877 58.6829C320.747 58.7128 320.584 58.729 320.389 58.7318C320.068 58.7372 319.77 58.6802 319.493 58.5608C319.216 58.4415 318.993 58.257 318.822 58.0074C318.651 57.7578 318.565 57.4444 318.565 57.0673V50.9019ZM322.41 58.6504V52.3995H323.627V58.6504H322.41ZM323.025 51.435C322.813 51.435 322.631 51.3645 322.479 51.2234C322.33 51.0796 322.255 50.9087 322.255 50.7106C322.255 50.5099 322.33 50.3389 322.479 50.1979C322.631 50.0541 322.813 49.9822 323.025 49.9822C323.236 49.9822 323.417 50.0541 323.566 50.1979C323.718 50.3389 323.794 50.5099 323.794 50.7106C323.794 50.9087 323.718 51.0796 323.566 51.2234C323.417 51.3645 323.236 51.435 323.025 51.435ZM327.897 58.7765C327.311 58.7765 326.799 58.6422 326.363 58.3736C325.926 58.105 325.587 57.7293 325.345 57.2464C325.104 56.7634 324.983 56.1991 324.983 55.5534C324.983 54.905 325.104 54.338 325.345 53.8523C325.587 53.3667 325.926 52.9896 326.363 52.721C326.799 52.4524 327.311 52.3181 327.897 52.3181C328.483 52.3181 328.994 52.4524 329.431 52.721C329.868 52.9896 330.207 53.3667 330.449 53.8523C330.69 54.338 330.811 54.905 330.811 55.5534C330.811 56.1991 330.69 56.7634 330.449 57.2464C330.207 57.7293 329.868 58.105 329.431 58.3736C328.994 58.6422 328.483 58.7765 327.897 58.7765ZM327.901 57.7551C328.281 57.7551 328.595 57.6547 328.845 57.4539C329.095 57.2531 329.279 56.9859 329.399 56.6522C329.521 56.3185 329.582 55.9509 329.582 55.5493C329.582 55.1505 329.521 54.7843 329.399 54.4506C329.279 54.1141 329.095 53.8442 328.845 53.6407C328.595 53.4372 328.281 53.3355 327.901 53.3355C327.518 53.3355 327.201 53.4372 326.949 53.6407C326.699 53.8442 326.513 54.1141 326.391 54.4506C326.272 54.7843 326.212 55.1505 326.212 55.5493C326.212 55.9509 326.272 56.3185 326.391 56.6522C326.513 56.9859 326.699 57.2531 326.949 57.4539C327.201 57.6547 327.518 57.7551 327.901 57.7551ZM333.386 54.9389V58.6504H332.169V52.3995H333.337V53.4169H333.414C333.558 53.0859 333.783 52.82 334.09 52.6193C334.399 52.4185 334.788 52.3181 335.258 52.3181C335.684 52.3181 336.057 52.4076 336.377 52.5867C336.697 52.763 336.945 53.0262 337.122 53.3762C337.298 53.7262 337.386 54.1589 337.386 54.6744V58.6504H336.169V54.8209C336.169 54.3678 336.051 54.0138 335.815 53.7587C335.579 53.501 335.255 53.3721 334.843 53.3721C334.56 53.3721 334.31 53.4332 334.09 53.5553C333.873 53.6773 333.7 53.8564 333.573 54.0924C333.448 54.3258 333.386 54.6079 333.386 54.9389ZM343.702 53.9256L342.599 54.1209C342.553 53.9799 342.48 53.8456 342.379 53.718C342.282 53.5905 342.149 53.4861 341.981 53.4047C341.812 53.3233 341.602 53.2826 341.35 53.2826C341.005 53.2826 340.718 53.3599 340.487 53.5146C340.257 53.6665 340.141 53.8632 340.141 54.1047C340.141 54.3136 340.219 54.4818 340.373 54.6093C340.528 54.7368 340.777 54.8412 341.122 54.9226L342.115 55.1505C342.69 55.2835 343.119 55.4883 343.401 55.765C343.683 56.0418 343.824 56.4012 343.824 56.8435C343.824 57.2179 343.716 57.5516 343.499 57.8446C343.284 58.1349 342.984 58.3628 342.599 58.5283C342.217 58.6938 341.773 58.7765 341.268 58.7765C340.569 58.7765 339.997 58.6273 339.555 58.3289C339.113 58.0277 338.842 57.6004 338.741 57.0469L339.917 56.8679C339.991 57.1745 340.141 57.4064 340.369 57.5638C340.597 57.7184 340.894 57.7958 341.26 57.7958C341.659 57.7958 341.978 57.713 342.217 57.5475C342.455 57.3793 342.575 57.1745 342.575 56.933C342.575 56.7377 342.502 56.5735 342.355 56.4406C342.211 56.3076 341.99 56.2073 341.692 56.1394L340.634 55.9075C340.05 55.7745 339.619 55.5629 339.34 55.2726C339.063 54.9823 338.924 54.6147 338.924 54.1698C338.924 53.8008 339.028 53.4779 339.234 53.2012C339.44 52.9245 339.725 52.7088 340.088 52.5541C340.452 52.3968 340.868 52.3181 341.338 52.3181C342.013 52.3181 342.545 52.4646 342.933 52.7576C343.321 53.0479 343.577 53.4372 343.702 53.9256ZM345.964 58.7277C345.741 58.7277 345.55 58.649 345.39 58.4916C345.23 58.3316 345.15 58.139 345.15 57.9138C345.15 57.6913 345.23 57.5014 345.39 57.344C345.55 57.184 345.741 57.1039 345.964 57.1039C346.186 57.1039 346.377 57.184 346.538 57.344C346.698 57.5014 346.778 57.6913 346.778 57.9138C346.778 58.063 346.74 58.2 346.664 58.3248C346.59 58.4469 346.493 58.5446 346.371 58.6178C346.249 58.6911 346.113 58.7277 345.964 58.7277Z" fill="#0D1B2A"/>
</svg>
