<svg width="32" height="33" viewBox="0 0 32 33" fill="none" xmlns="http://www.w3.org/2000/svg">
<path d="M17.3708 3.1676C18.8713 3.17008 19.6317 3.17803 20.2888 3.19759L20.5476 3.20604C20.8465 3.21667 21.1415 3.23 21.4971 3.24667C22.9159 3.31223 23.8837 3.53667 24.7337 3.86667C25.6125 4.20556 26.3548 4.66334 27.0959 5.40446C27.8359 6.14556 28.2937 6.89 28.6337 7.76667C28.9625 8.61556 29.1871 9.58446 29.2537 11.0033C29.2696 11.3589 29.2824 11.6538 29.2929 11.9528L29.3013 12.2116C29.3208 12.8686 29.3297 13.6291 29.3325 15.1297L29.3336 16.1238C29.3337 16.2453 29.3337 16.3706 29.3337 16.5L29.3336 16.8761L29.3328 17.8704C29.3303 19.3709 29.3224 20.1314 29.3028 20.7884L29.2943 21.0472C29.2837 21.3462 29.2704 21.6412 29.2537 21.9966C29.1881 23.4156 28.9625 24.3833 28.6337 25.2333C28.2948 26.1122 27.8359 26.8545 27.0959 27.5956C26.3548 28.3356 25.6092 28.7933 24.7337 29.1333C23.8837 29.4622 22.9159 29.6866 21.4971 29.7533C21.1415 29.7692 20.8465 29.7821 20.5476 29.7925L20.2888 29.8009C19.6317 29.8205 18.8713 29.8293 17.3708 29.8322L16.3765 29.8333C16.2551 29.8333 16.1297 29.8333 16.0004 29.8333H15.6243L14.63 29.8324C13.1295 29.83 12.369 29.822 11.712 29.8024L11.4532 29.794C11.1542 29.7833 10.8592 29.77 10.5037 29.7533C9.08481 29.6878 8.11814 29.4622 7.26704 29.1333C6.38925 28.7945 5.64592 28.3356 4.90481 27.5956C4.1637 26.8545 3.70704 26.1089 3.36704 25.2333C3.03704 24.3833 2.8137 23.4156 2.74704 21.9966C2.7312 21.6412 2.71828 21.3462 2.70781 21.0472L2.69942 20.7884C2.67992 20.1314 2.67102 19.3709 2.66814 17.8704L2.66797 15.1297C2.67045 13.6291 2.67838 12.8686 2.69794 12.2116L2.70641 11.9528C2.71704 11.6538 2.73037 11.3589 2.74704 11.0033C2.81258 9.58334 3.03704 8.61667 3.36704 7.76667C3.70592 6.8889 4.1637 6.14556 4.90481 5.40446C5.64592 4.66334 6.39037 4.20667 7.26704 3.86667C8.11704 3.53667 9.0837 3.31334 10.5037 3.24667C10.8592 3.23084 11.1542 3.21792 11.4532 3.20746L11.712 3.19907C12.369 3.17955 13.1295 3.17066 14.63 3.16778L17.3708 3.1676ZM16.0004 9.83334C12.3165 9.83334 9.3337 12.8194 9.3337 16.5C9.3337 20.1838 12.3197 23.1666 16.0004 23.1666C19.6843 23.1666 22.6671 20.1806 22.6671 16.5C22.6671 12.8161 19.6809 9.83334 16.0004 9.83334ZM16.0004 12.5C18.2096 12.5 20.0004 14.2902 20.0004 16.5C20.0004 18.7092 18.2101 20.5 16.0004 20.5C13.7912 20.5 12.0004 18.7098 12.0004 16.5C12.0004 14.2908 13.7905 12.5 16.0004 12.5ZM23.0004 7.83334C22.0813 7.83334 21.3337 8.57988 21.3337 9.49887C21.3337 10.4179 22.0803 11.1656 23.0004 11.1656C23.9193 11.1656 24.6671 10.419 24.6671 9.49887C24.6671 8.57988 23.9181 7.83219 23.0004 7.83334Z" fill="#FFC8DD"/>
</svg>
