<svg width="32" height="33" viewBox="0 0 32 33" fill="none" xmlns="http://www.w3.org/2000/svg">
<path d="M24.4482 24.952H20.8942V19.3829C20.8942 18.0549 20.8672 16.346 19.0422 16.346C17.1892 16.346 16.9062 17.7911 16.9062 19.2849V24.952H13.3522V13.5H16.7662V15.0609H16.8122C17.2892 14.1609 18.4492 13.211 20.1822 13.211C23.7832 13.211 24.4492 15.5811 24.4492 18.666L24.4482 24.952ZM9.33822 11.933C8.19422 11.933 7.27522 11.007 7.27522 9.868C7.27522 8.73 8.19522 7.805 9.33822 7.805C10.4782 7.805 11.4022 8.73 11.4022 9.868C11.4022 11.007 10.4772 11.933 9.33822 11.933ZM11.1202 24.952H7.55622V13.5H11.1202V24.952ZM26.2262 4.5H5.77222C4.79322 4.5 4.00122 5.274 4.00122 6.229V26.7711C4.00122 27.7269 4.79322 28.5 5.77222 28.5H26.2232C27.2012 28.5 28.0012 27.7269 28.0012 26.7711V6.229C28.0012 5.274 27.2012 4.5 26.2232 4.5H26.2262Z" fill="#FFC8DD"/>
</svg>
